<svg id="Camada_1" data-name="Camada 1" xmlns="http://www.w3.org/2000/svg" viewBox="0 0 685.31 398.13"><defs><style>.cls-1{fill:#6d0f59;}.cls-2{fill:#d1d1d1;}.cls-3{fill:#068587;}.cls-4{fill:#4198df;}.cls-5{fill:#fff;}.cls-6{fill:#4c4c4c;}.cls-7{font-size:30px;fill:#ff0043;font-family:Lato-BoldItalic, Lato;font-weight:700;font-style:italic;}</style></defs><title>exemplo</title><rect class="cls-1" x="147.26" y="10.8" width="167.85" height="228.99"/><rect class="cls-2" x="40.36" y="10.8" width="93.64" height="228.99"/><rect class="cls-3" x="328.36" y="10.8" width="167.85" height="228.99"/><rect class="cls-4" x="509.47" y="10.8" width="167.85" height="228.99"/><rect class="cls-2" x="40.36" y="253.18" width="636.96" height="35.22"/><rect class="cls-2" x="40.36" y="301.79" width="636.96" height="35.22"/><circle class="cls-5" cx="614.65" cy="124.71" r="7.5"/><circle class="cls-5" cx="574.29" cy="157.71" r="7.5"/><circle class="cls-5" cx="533.93" cy="92.71" r="7.5"/><circle class="cls-5" cx="469.24" cy="124.71" r="7.5"/><circle class="cls-5" cx="431.55" cy="92.71" r="7.5"/><circle class="cls-5" cx="393.86" cy="157.71" r="7.5"/><circle class="cls-5" cx="356.17" cy="157.71" r="7.5"/><circle class="cls-5" cx="290.47" cy="124.71" r="7.5"/><circle class="cls-5" cx="251.45" cy="157.71" r="7.5"/><circle class="cls-5" cx="212.42" cy="157.71" r="7.5"/><circle class="cls-5" cx="173.4" cy="124.71" r="7.5"/><circle class="cls-5" cx="655.01" cy="92.71" r="7.5"/><path class="cls-6" d="M371.46,365.34h-3v-1h3Zm-6,0h-3v-1h3Zm-6,0h-3v-1h3Zm-6,0h-3v-1h3Zm-6,0h-3v-1h3Zm-6,0h-3v-1h3Zm-6.19-.44a3.42,3.42,0,0,1-1.78-2.84l1-.06a2.48,2.48,0,0,0,1.28,2Zm39.17-1.22-.85-.52a2.47,2.47,0,0,0,.36-1.3V360.5h1v1.36A3.52,3.52,0,0,1,374.39,363.68Zm-40-4.65h-1v-3h1Zm40.47-1.53h-1v-3h1ZM334.43,353h-1v-3h1Zm40.47-1.53h-1v-3h1ZM334.43,347h-1v-3h1Zm40.47-1.53h-1v-3h1ZM334.43,341h-1v-3h1Zm40.47-1.53h-1v-3h1ZM334.43,335h-1v-3h1Zm40.47-1.54h-1v-3h1ZM334.43,329h-1v-3h1Zm40.47-1.53h-1v-3h1ZM334.43,323h-1v-3h1Zm40.47-1.53h-1v-3h1ZM334.43,317h-1v-3h1Zm40.47-1.54h-1v-3h1ZM334.43,311h-1v-3h1Zm40.47-1.53h-1v-3h1ZM334.43,305h-1v-3h1Zm40.47-1.53h-1v-3h1ZM334.43,299h-1v-3h1Zm40.47-1.54h-1v-3h1ZM334.43,293h-1v-3h1Zm40.47-1.53h-1v-3h1ZM334.43,287h-1v-3h1Zm40.47-1.53h-1v-3h1ZM334.43,281h-1v-3h1Zm40.47-1.53h-1v-3h1ZM334.43,275h-1v-3h1Zm40.47-1.53h-1v-3h1ZM334.43,269h-1v-3h1Zm40.47-1.53h-1v-3h1ZM334.43,263h-1v-3h1Zm40.47-1.53h-1v-3h1ZM334.43,257h-1v-3h1Zm40.47-1.53h-1v-3h1ZM334.43,251h-1v-3h1Zm40.47-1.54h-1v-3h1ZM334.43,245h-1v-3h1Zm40.47-1.53h-1v-3h1ZM334.43,239h-1v-3h1Zm40.47-1.53h-1v-3h1ZM334.43,233h-1v-3h1Zm40.47-1.54h-1v-3h1ZM334.43,227h-1v-3h1Zm40.47-1.53h-1v-3h1ZM334.43,221h-1v-3h1Zm40.47-1.53h-1v-3h1ZM334.43,215h-1v-3h1Zm40.47-1.54h-1v-3h1Zm-40.47-4.47h-1v-3h1Zm40.47-1.53h-1v-3h1Zm-40.47-4.47h-1v-3h1Zm40.47-1.53h-1v-3h1Zm-40.47-4.48h-1v-3h1Zm40.47-1.53h-1v-3h1Zm-40.47-4.47h-1v-3h1Zm40.47-1.53h-1v-3h1Zm-40.47-4.47h-1v-3h1Zm40.47-1.53h-1v-3h1Zm-40.47-4.48h-1v-3h1Zm40.47-1.53h-1v-3h1Zm-40.47-4.47h-1v-3h1Zm40.47-1.53h-1v-3h1Zm-40.47-4.47h-1v-3h1Zm40.47-1.54h-1v-3h1Zm-40.47-4.47h-1v-3h1Zm40.47-1.53h-1v-3h1Zm-40.47-4.47h-1v-3h1Zm40.47-1.53h-1v-3h1Zm-40.47-4.47h-1v-3h1Zm40.47-1.54h-1v-3h1Zm-40.47-4.47h-1v-3h1Zm40.47-1.53h-1v-3h1Zm-40.47-4.47h-1v-3h1Zm40.47-1.53h-1v-3h1Zm-40.47-4.48h-1v-3h1Zm40.47-1.53h-1v-3h1Zm-40.47-4.47h-1v-3h1Zm40.47-1.53h-1v-3h1Zm-40.47-4.47h-1v-3h1Zm40.47-1.53h-1v-3h1Zm-40.47-4.48h-1v-3h1Zm40.47-1.53h-1v-3h1Zm-40.47-4.47h-1v-3h1Zm40.47-1.53h-1v-3h1Zm-40.47-4.47h-1v-3h1Zm40.47-1.54h-1v-3h1Zm-40.47-4.47h-1v-3h1Zm40.47-1.53h-1v-3h1Zm-40.47-4.47h-1v-3h1Zm40.47-1.53h-1v-3h1Zm-40.47-4.47h-1v-3h1Zm40.47-1.54h-1v-3h1Zm-40.47-4.47h-1v-3h1Zm40.47-1.53h-1v-3h1Zm-40.47-4.47h-1v-3h1Zm40.47-1.53h-1v-3h1Zm-40.47-4.47h-1v-3h1Zm40.47-1.54h-1v-3h1Zm-40.47-4.47h-1v-3h1Zm40.47-1.53h-1v-3h1Zm-40.47-4.47h-1v-3h1Zm40.47-1.53h-1v-3h1Zm-40.47-4.48h-1v-3h1Zm40.47-1.53h-1v-3h1Zm-40.47-4.47h-1v-3h1Zm40.47-1.53h-1v-3h1Zm-40.47-4.47h-1v-3h1Zm40.47-1.53h-1v-3h1Zm-40.47-4.48h-1v-3h1ZM374.9,27.3h-1v-3h1Zm-40.47-4.47h-1v-3h1ZM374.9,21.3h-1v-3h1Zm-40.47-4.47h-1v-3h1Zm40.47-1.54h-1v-3h1Zm-40.47-4.47h-1v-3h1ZM374.9,9.29h-1v-3h1ZM334.43,4.82h-1V3.48A3.43,3.43,0,0,1,334,1.64l.84.53a2.49,2.49,0,0,0-.37,1.31Zm39.47-1.5a2.49,2.49,0,0,0-1.29-2l.48-.88a3.48,3.48,0,0,1,1.81,2.83Zm-4-2.32h-3V0h3Zm-6,0h-3V0h3Zm-6,0h-3V0h3Zm-6,0h-3V0h3Zm-6,0h-3V0h3Zm-6,0h-3l0-1h3Z"/><path class="cls-6" d="M680.48,344.39h-3v-1h3Zm-6,0h-3v-1h3Zm-6,0h-3v-1h3Zm-6,0h-3v-1h3Zm-6,0h-3v-1h3Zm-6,0h-3v-1h3Zm-6,0h-3v-1h3Zm-6,0h-3v-1h3Zm-6,0h-3v-1h3Zm-6,0h-3v-1h3Zm-6,0h-3v-1h3Zm-6,0h-3v-1h3Zm-6,0h-3v-1h3Zm-6,0h-3v-1h3Zm-6,0h-3v-1h3Zm-6,0h-3v-1h3Zm-6,0h-3v-1h3Zm-6,0h-3v-1h3Zm-6,0h-3v-1h3Zm-6,0h-3v-1h3Zm-6,0h-3v-1h3Zm-6,0h-3v-1h3Zm-6,0h-3v-1h3Zm-6,0h-3v-1h3Zm-6,0h-3v-1h3Zm-6,0h-3v-1h3Zm-6,0h-3v-1h3Zm-6,0h-3v-1h3Zm-6,0h-3v-1h3Zm-6,0h-3v-1h3Zm-6,0h-3v-1h3Zm-6,0h-3v-1h3Zm-6,0h-3v-1h3Zm-6,0h-3v-1h3Zm-6,0h-3v-1h3Zm-6,0h-3v-1h3Zm-6,0h-3v-1h3Zm-6,0h-3v-1h3Zm-6,0h-3v-1h3Zm-6,0h-3v-1h3Zm-6,0h-3v-1h3Zm-6,0h-3v-1h3Zm-6,0h-3v-1h3Zm-6,0h-3v-1h3Zm-6,0h-3v-1h3Zm-6,0h-3v-1h3Zm-6,0h-3v-1h3Zm-6,0h-3v-1h3Zm-6,0h-3v-1h3Zm-6,0h-3v-1h3Zm-6,0h-3v-1h3Zm-6,0h-3v-1h3Zm-6,0h-3v-1h3Zm-6,0h-3v-1h3Zm-6,0h-3v-1h3Zm-6,0h-3v-1h3Zm-6,0h-3v-1h3Zm-6,0h-3v-1h3Zm-6,0h-3v-1h3Zm-6,0h-3v-1h3Zm-6,0h-3v-1h3Zm-6,0h-3v-1h3Zm-6,0h-3v-1h3Zm-6,0h-3v-1h3Zm-6,0h-3v-1h3Zm-6,0h-3v-1h3Zm-6,0h-3v-1h3Zm-6,0h-3v-1h3Zm-6,0h-3v-1h3Zm-6,0h-3v-1h3Zm-6,0h-3v-1h3Zm-6,0h-3v-1h3Zm-6,0h-3v-1h3Zm-6,0h-3v-1h3Zm-6,0h-3v-1h3Zm-6,0h-3v-1h3Zm-6,0h-3v-1h3Zm-6,0h-3v-1h3Zm-6,0h-3v-1h3Zm-6,0h-3v-1h3Zm-6,0h-3v-1h3Zm-6,0h-3v-1h3Zm-6,0h-3v-1h3Zm-6,0h-3v-1h3Zm-6,0h-3v-1h3Zm-6,0h-3v-1h3Zm-6,0h-3v-1h3Zm-6,0h-3v-1h3Zm-6,0h-3v-1h3Zm-6,0h-3v-1h3Zm-6,0h-3v-1h3Zm-6,0h-3v-1h3Zm-6,0h-3v-1h3Zm-6,0h-3v-1h3Zm-6,0h-3v-1h3Zm-6,0h-3v-1h3Zm-6,0h-3v-1h3Zm-6,0h-3v-1h3Zm-6,0h-3v-1h3Zm-6,0h-3v-1h3Zm-6,0h-3v-1h3Zm-6,0h-3v-1h3Zm-6,0h-3v-1h3Zm-6,0h-3v-1h3Zm-6,0h-3v-1h3Zm-6,0h-3v-1h3Zm-6,0h-3v-1h3Zm-6,0H36.24a3.48,3.48,0,0,1-1.78-.49L35,343a2.42,2.42,0,0,0,1.26.35h1.41Zm646-.51-.52-.85a2.44,2.44,0,0,0,1.17-2.08h1A3.41,3.41,0,0,1,683.66,343.88ZM32.79,341v-3h1v3Zm652.52-3h-1v-3h1Zm-651.52-3h-1v-3h1Zm651.52-3h-1v-3h1Zm-651.52-3h-1v-3h1Zm651.52-3h-1v-3h1Zm-651.52-3h-1v-3h1Zm651.52-3h-1v-3h1Zm-651.52-3h-1v-3h1Zm651.52-3h-1v-3h1Zm-651.52-3h-1v-3h1Zm651.52-3h-1v-3h1Zm-651.52-3h-1v-3h1Zm651.52-3h-1v-3h1Zm-651.52-3h-1A3.42,3.42,0,0,1,34.46,296l.51.86A2.44,2.44,0,0,0,33.79,298.89Zm649.34-2.07a2.46,2.46,0,0,0-1.27-.36h-1.39v-1h1.39a3.39,3.39,0,0,1,1.79.51Zm-5.66-.36h-3v-1h3Zm-6,0h-3v-1h3Zm-6,0h-3v-1h3Zm-6,0h-3v-1h3Zm-6,0h-3v-1h3Zm-6,0h-3v-1h3Zm-6,0h-3v-1h3Zm-6,0h-3v-1h3Zm-6,0h-3v-1h3Zm-6,0h-3v-1h3Zm-6,0h-3v-1h3Zm-6,0h-3v-1h3Zm-6,0h-3v-1h3Zm-6,0h-3v-1h3Zm-6,0h-3v-1h3Zm-6,0h-3v-1h3Zm-6,0h-3v-1h3Zm-6,0h-3v-1h3Zm-6,0h-3v-1h3Zm-6,0h-3v-1h3Zm-6,0h-3v-1h3Zm-6,0h-3v-1h3Zm-6,0h-3v-1h3Zm-6,0h-3v-1h3Zm-6,0h-3v-1h3Zm-6,0h-3v-1h3Zm-6,0h-3v-1h3Zm-6,0h-3v-1h3Zm-6,0h-3v-1h3Zm-6,0h-3v-1h3Zm-6,0h-3v-1h3Zm-6,0h-3v-1h3Zm-6,0h-3v-1h3Zm-6,0h-3v-1h3Zm-6,0h-3v-1h3Zm-6,0h-3v-1h3Zm-6,0h-3v-1h3Zm-6,0h-3v-1h3Zm-6,0h-3v-1h3Zm-6,0h-3v-1h3Zm-6,0h-3v-1h3Zm-6,0h-3v-1h3Zm-6,0h-3v-1h3Zm-6,0h-3v-1h3Zm-6,0h-3v-1h3Zm-6,0h-3v-1h3Zm-6,0h-3v-1h3Zm-6,0h-3v-1h3Zm-6,0h-3v-1h3Zm-6,0h-3v-1h3Zm-6,0h-3v-1h3Zm-6,0h-3v-1h3Zm-6,0h-3v-1h3Zm-6,0h-3v-1h3Zm-6,0h-3v-1h3Zm-6,0h-3v-1h3Zm-6,0h-3v-1h3Zm-6,0h-3v-1h3Zm-6,0h-3v-1h3Zm-6,0h-3v-1h3Zm-6,0h-3v-1h3Zm-6,0h-3v-1h3Zm-6,0h-3v-1h3Zm-6,0h-3v-1h3Zm-6,0h-3v-1h3Zm-6,0h-3v-1h3Zm-6,0h-3v-1h3Zm-6,0h-3v-1h3Zm-6,0h-3v-1h3Zm-6,0h-3v-1h3Zm-6,0h-3v-1h3Zm-6,0h-3v-1h3Zm-6,0h-3v-1h3Zm-6,0h-3v-1h3Zm-6,0h-3v-1h3Zm-6,0h-3v-1h3Zm-6,0h-3v-1h3Zm-6,0h-3v-1h3Zm-6,0h-3v-1h3Zm-6,0h-3v-1h3Zm-6,0h-3v-1h3Zm-6,0h-3v-1h3Zm-6,0h-3v-1h3Zm-6,0h-3v-1h3Zm-6,0h-3v-1h3Zm-6,0h-3v-1h3Zm-6,0h-3v-1h3Zm-6,0h-3v-1h3Zm-6,0h-3v-1h3Zm-6,0h-3v-1h3Zm-6,0h-3v-1h3Zm-6,0h-3v-1h3Zm-6,0h-3v-1h3Zm-6,0h-3v-1h3Zm-6,0h-3v-1h3Zm-6,0h-3v-1h3Zm-6,0h-3v-1h3Zm-6,0h-3v-1h3Zm-6,0h-3v-1h3Zm-6,0h-3v-1h3Zm-6,0h-3v-1h3Zm-6,0h-3v-1h3Zm-6,0h-3v-1h3Zm-6,0h-3v-1h3Zm-6,0h-3v-1h3Zm-6,0h-3v-1h3Zm-6,0h-3v-1h3Z"/><text class="cls-7" transform="translate(342.16 331.01)">%</text><rect class="cls-6" x="353.67" y="364.84" width="1" height="31.15"/><path class="cls-6" d="M351.91,395.87a2.26,2.26,0,1,0,2.26-2.25A2.26,2.26,0,0,0,351.91,395.87Z"/><rect class="cls-6" x="2.14" y="318.9" width="31.15" height="1"/><path class="cls-6" d="M2.26,317.15a2.26,2.26,0,1,0,2.25,2.25A2.26,2.26,0,0,0,2.26,317.15Z"/></svg>