<?xml version="1.0" standalone="no"?>
<!DOCTYPE svg PUBLIC "-//W3C//DTD SVG 20010904//EN"
 "http://www.w3.org/TR/2001/REC-SVG-20010904/DTD/svg10.dtd">
<svg version="1.0" xmlns="http://www.w3.org/2000/svg"
 width="1300.000000pt" height="350.000000pt" viewBox="0 0 1300.000000 350.000000"
 preserveAspectRatio="xMidYMid meet">

<g transform="translate(0.000000,350.000000) scale(0.100000,-0.100000)"
fill="#ffffff" stroke="none">
<path d="M5410 3263 c-337 -23 -618 -85 -854 -189 -114 -49 -124 -62 -106
-124 24 -84 98 -115 191 -81 30 11 105 38 167 60 l114 41 -7 -42 c-25 -158
-173 -801 -186 -809 -6 -3 -52 -12 -103 -18 -167 -22 -156 -18 -156 -65 0 -95
58 -146 166 -146 l61 0 -74 -362 c-77 -378 -92 -508 -64 -541 18 -23 109 -22
175 1 l50 17 81 463 c47 269 87 467 94 471 15 10 224 47 366 66 129 17 304 19
394 5 35 -6 66 -9 68 -6 3 2 7 31 10 63 6 75 -18 116 -84 145 -38 17 -66 20
-158 20 -98 -1 -350 -31 -507 -61 -42 -7 -48 -6 -48 8 0 53 185 820 204 846 8
10 46 18 131 26 262 24 576 -18 777 -105 13 -6 19 1 29 32 14 49 6 99 -24 143
-27 40 -124 92 -212 114 -117 28 -324 40 -495 28z"/>
<path d="M740 3250 c-314 -44 -540 -180 -540 -323 0 -82 56 -85 172 -10 73 48
193 101 204 90 3 -3 -49 -216 -115 -474 -216 -838 -316 -1264 -347 -1480 -14
-94 -14 -105 1 -137 20 -43 83 -76 142 -76 64 0 74 20 117 237 45 223 112 533
118 538 2 2 30 -3 63 -11 87 -21 327 -30 420 -15 361 59 647 317 748 676 28
102 35 315 13 426 -58 286 -275 480 -607 544 -103 19 -302 27 -389 15z m341
-236 c251 -79 399 -299 399 -593 0 -288 -149 -501 -422 -603 -72 -27 -99 -32
-209 -36 -124 -4 -279 15 -303 38 -16 16 128 574 253 980 86 282 70 253 144
245 34 -4 96 -18 138 -31z"/>
<path d="M8129 3213 c-36 -92 -119 -377 -179 -610 -10 -41 -12 -43 -50 -43
-66 0 -257 -30 -323 -50 -91 -28 -152 -70 -167 -115 -17 -52 -7 -115 22 -139
30 -24 78 -19 288 28 85 19 156 33 158 32 2 -2 -4 -30 -12 -62 -23 -91 -94
-440 -123 -608 -33 -192 -37 -380 -10 -472 38 -123 119 -194 250 -217 134 -23
355 37 506 137 75 50 175 152 206 210 25 46 13 84 -36 110 l-37 20 -76 -65
c-154 -130 -276 -184 -396 -177 -81 4 -115 24 -145 84 -50 97 -7 450 113 929
l37 150 105 8 c104 8 496 2 577 -9 l41 -6 7 45 c20 133 -82 175 -451 186
l-221 6 59 215 c66 236 75 312 45 368 -25 46 -72 72 -130 72 -43 0 -49 -3 -58
-27z"/>
<path d="M3480 2575 c-434 -93 -788 -578 -792 -1083 -1 -120 12 -191 51 -272
153 -321 664 -285 1020 71 143 144 259 342 312 536 29 109 37 313 15 407 -31
131 -111 243 -215 299 -99 54 -255 71 -391 42z m250 -246 c62 -28 88 -54 121
-123 34 -72 45 -162 30 -253 -63 -371 -365 -711 -666 -749 -106 -13 -198 42
-232 139 -26 78 -22 235 11 357 86 328 282 574 505 636 74 20 179 17 231 -7z"/>
<path d="M12299 2574 c-445 -95 -808 -614 -786 -1122 6 -137 22 -198 77 -280
69 -103 172 -159 312 -169 233 -17 484 90 683 292 409 413 460 1060 98 1244
-98 49 -252 63 -384 35z m256 -248 c61 -29 97 -66 127 -131 20 -43 23 -66 23
-165 -1 -105 -4 -124 -36 -217 -109 -310 -356 -560 -598 -603 -188 -33 -281
60 -281 281 0 187 77 418 195 584 53 76 171 187 227 216 122 63 256 77 343 35z"/>
<path d="M6193 2568 c-39 -48 -146 -307 -217 -527 -96 -294 -130 -489 -124
-695 3 -130 5 -136 38 -202 28 -55 45 -74 84 -99 46 -28 56 -30 140 -29 106 1
162 20 267 90 141 93 321 323 460 585 33 64 58 101 55 84 -58 -319 -52 -552
15 -662 55 -88 159 -118 242 -70 24 15 52 38 61 52 16 24 15 28 -20 100 -50
105 -67 208 -60 365 10 241 44 421 128 680 68 212 68 227 -1 300 -32 34 -44
40 -80 40 -69 0 -111 -52 -205 -255 -238 -514 -391 -777 -541 -930 -74 -77
-154 -125 -205 -125 -68 0 -105 86 -104 240 2 170 47 349 169 670 93 243 97
322 21 369 -43 27 -109 37 -123 19z"/>
<path d="M9197 2487 c-119 -244 -235 -599 -283 -867 -24 -131 -24 -347 -2
-421 36 -116 106 -178 212 -186 80 -7 152 10 237 54 173 89 328 270 506 588
40 72 73 123 73 115 0 -8 -7 -53 -15 -100 -22 -124 -30 -322 -16 -405 15 -93
60 -183 106 -214 42 -28 110 -38 158 -22 20 7 51 30 71 51 l35 39 -35 69 c-65
129 -79 296 -49 554 20 174 47 294 111 490 30 92 54 183 54 201 0 36 -36 99
-73 129 -12 10 -39 18 -61 18 -64 0 -116 -63 -195 -235 -290 -634 -502 -964
-673 -1049 -86 -43 -127 -32 -160 40 -62 141 -20 403 131 811 92 249 94 258
88 310 -6 52 -27 79 -82 104 -78 36 -87 30 -138 -74z"/>
<path d="M2595 2536 c-140 -44 -281 -159 -394 -320 -22 -33 -41 -57 -41 -55 0
2 7 39 15 82 30 155 15 260 -41 286 -33 15 -109 14 -121 -1 -14 -17 -100 -340
-163 -603 -89 -379 -125 -618 -110 -728 15 -106 78 -167 173 -167 l44 0 17
108 c48 295 122 584 195 751 124 287 315 423 517 369 58 -16 95 -9 132 24 78
72 67 210 -21 251 -42 20 -144 22 -202 3z"/>
<path d="M11397 2526 c-125 -42 -282 -173 -373 -311 -20 -30 -38 -55 -39 -55
-1 0 4 30 11 68 18 94 18 226 -1 262 -20 39 -43 50 -105 50 -43 0 -52 -3 -60
-22 -15 -35 -87 -302 -140 -523 -130 -533 -158 -780 -101 -882 29 -51 84 -83
144 -83 44 0 46 1 52 33 73 438 143 704 235 887 125 249 308 362 496 305 45
-13 52 -13 90 5 59 29 88 84 82 161 -5 65 -23 93 -75 115 -48 21 -139 17 -216
-10z"/>
<path d="M11700 684 c-30 -2 -192 -11 -360 -19 -1455 -72 -4555 -249 -5440
-310 -661 -46 -960 -87 -960 -131 0 -45 268 -95 595 -109 188 -8 407 4 1280
75 1674 135 1985 155 3680 240 1233 62 1547 81 1925 116 373 35 419 74 140
121 -82 13 -724 26 -860 17z" fill="#e65c2d"/>
</g>
</svg>
