<?xml version="1.0" encoding="utf-8"?>
<!-- Generator: Adobe Illustrator 24.2.1, SVG Export Plug-In . SVG Version: 6.00 Build 0)  -->
<svg version="1.1" id="Camada_1" xmlns="http://www.w3.org/2000/svg" xmlns:xlink="http://www.w3.org/1999/xlink" x="0px" y="0px"
	 viewBox="0 0 115 117" style="enable-background:new 0 0 115 117;" xml:space="preserve">
<style type="text/css">
	.st0{fill:#FFFFFF;}
	.st1{fill:#85BC44;}
</style>
<g>
	<g>
		<path class="st0" d="M24.2,64C13.1,64,6.7,56.7,6.7,46.8c0-10.7,6.2-17,17.3-17c7.1,0,10,1.6,10,1.6v4.1c0,0-3.4-1.9-9.8-1.9
			c-6.9,0-13,3.1-13,12.7c0,9.6,6.3,13.7,14,13.7c5.8,0,8.9-1.4,8.9-1.4l0.1,4C34.1,62.6,30.4,64,24.2,64"/>
		<rect x="44.6" y="44.4" class="st0" width="4.2" height="19.4"/>
		<polygon class="st0" points="58.5,30.2 58.5,63.7 77.9,63.7 77.9,59.7 62.6,59.7 62.6,34.2 76.7,34.2 76.7,30.2 		"/>
		<path class="st0" d="M94.5,44.5c-2.1,0-3.8-0.1-3.8-0.1V33.5c0,0,1.9-0.1,3.4-0.1c4.5,0,7,1.6,7,5.3C101.1,41.8,99,44.5,94.5,44.5
			 M100.8,45.5c0,0,4.8-1.5,4.8-7.6c0-5-4.1-7.7-10.6-7.7c-3.2,0-8.4,0-8.4,0v17.6h7.5v0c5.6,0,9.3,1.8,9.3,6.4c0,4.7-3.5,6-7.5,6v0
			h-9.3v3.5c0,0,7.2,0.1,9.6,0.1c7.8,0,11.9-3.9,11.9-9.8C108,46.7,100.8,45.5,100.8,45.5"/>
		<path class="st1" d="M46.9,37.6c2.2,0,4-1.8,4-4s-1.8-4-4-4s-4,1.8-4,4S44.7,37.6,46.9,37.6"/>
		<path class="st1" d="M72.4,52.1c2.2,0,4-1.8,4-4s-1.8-4-4-4c-2.2,0-4,1.8-4,4S70.2,52.1,72.4,52.1"/>
		<polygon class="st1" points="72.7,47.2 46.1,31.9 46.1,34.6 72.7,49.9 		"/>
	</g>
	<g>
		<path class="st0" d="M60.4,73c-1.3,0-1.9,0.9-1.9,2.1c0,1.1,0.6,2.1,1.9,2.1c1.3,0,2-0.9,2-2.1S61.6,73,60.4,73 M60.3,77.8
			c-1.6,0-2.6-1.1-2.6-2.7c0-1.6,1.1-2.7,2.7-2.7c1.7,0,2.6,1.2,2.6,2.7C63,76.7,62,77.8,60.3,77.8"/>
		<path class="st0" d="M9,82.1L9.7,84H8.3L9,82.1z M8.7,81.3l-2.1,5.2h0.7l0.8-1.9H10l0.8,1.9h0.7l-2.1-5.2H8.7z"/>
		<polygon class="st0" points="14.1,86.5 14.1,81.3 16.9,81.3 16.9,81.9 14.7,81.9 14.7,83.5 16.8,83.5 16.8,84.1 14.7,84.1 
			14.7,85.8 17.1,85.8 17.1,86.5 		"/>
		<path class="st0" d="M21.7,82.5c-0.4-0.5-1-0.7-1.8-0.7c-0.6,0-1,0-1,0v4c0,0,0.5,0.1,1.2,0.1c1.3,0,2.1-0.7,2.1-2
			C22.1,83.3,22,82.8,21.7,82.5 M22.1,85.7c-0.5,0.5-1.1,0.8-2.2,0.8c-0.7,0-1.7,0-1.7,0v-5.2c0,0,1.1,0,1.7,0
			c1.1,0,1.8,0.2,2.3,0.8c0.4,0.4,0.6,1,0.6,1.7C22.8,84.6,22.6,85.3,22.1,85.7"/>
		<path class="st0" d="M27.9,84.7c-0.1,1.4-1,1.9-2.1,1.9c-1.1,0-2-0.4-2.1-1.7c0-0.3,0-0.9,0-1.5c0-0.7,0-2,0-2h0.6
			c0,0,0,1.2,0,1.8c0,0.4,0,1,0,1.5c0,0.9,0.5,1.3,1.4,1.3c0.9,0,1.4-0.4,1.5-1.4c0-0.2,0-0.6,0-1.1c0-1.1,0-2.1,0-2.1h0.6
			c0,0,0,1.6,0,2.2C27.9,83.8,27.9,84.4,27.9,84.7"/>
		<path class="st0" d="M31.6,86.5c-1.7,0-2.7-1.1-2.7-2.7c0-1.7,1-2.6,2.7-2.6c1.1,0,1.5,0.2,1.5,0.2v0.6c0,0-0.5-0.3-1.5-0.3
			c-1.1,0-2,0.5-2,2c0,1.5,1,2.1,2.2,2.1c0.9,0,1.4-0.2,1.4-0.2l0,0.6C33.1,86.3,32.5,86.5,31.6,86.5"/>
		<path class="st0" d="M36.2,82.1L35.5,84h1.4L36.2,82.1z M37.9,86.5l-0.8-1.9h-1.9l-0.8,1.9h-0.7l2.1-5.2h0.6l2.1,5.2H37.9z"/>
		<path class="st0" d="M41.7,86.5h-0.2l-0.2,0.3c0.5,0.1,0.8,0.4,0.8,0.8c0,0.4-0.3,0.8-0.9,0.8c-0.5,0-0.7-0.2-0.7-0.2l0.1-0.4
			c0,0,0.3,0.2,0.6,0.2c0.3,0,0.4-0.1,0.4-0.3c0-0.3-0.4-0.4-0.9-0.5v-0.3l0.2-0.4c-1.3-0.2-2.1-1.3-2.1-2.6c0-1.7,1-2.6,2.7-2.6
			c1.1,0,1.5,0.2,1.5,0.2v0.6c0,0-0.5-0.3-1.5-0.3c-1.1,0-2,0.5-2,2c0,1.5,1,2.1,2.2,2.1c0.9,0,1.4-0.2,1.4-0.2l0,0.6
			C43.3,86.3,42.7,86.5,41.7,86.5"/>
		<path class="st0" d="M46.5,82.1L45.7,84h1.4L46.5,82.1z M46.9,80.3c-0.4,0-0.6-0.3-0.9-0.3c-0.2,0-0.4,0.1-0.6,0.3l-0.2-0.4
			c0,0,0.3-0.4,0.8-0.4c0.4,0,0.6,0.3,0.9,0.3c0.4,0,0.6-0.3,0.6-0.3l0.2,0.4C47.7,79.8,47.4,80.3,46.9,80.3 M48.2,86.5l-0.8-1.9
			h-1.9l-0.8,1.9h-0.7l2.1-5.2h0.6l2.1,5.2H48.2z"/>
		<path class="st0" d="M51.9,81.8c-1.3,0-1.9,0.9-1.9,2.1c0,1.1,0.6,2.1,1.9,2.1c1.3,0,2-0.9,2-2.1S53.1,81.8,51.9,81.8 M51.8,86.5
			c-1.6,0-2.6-1.1-2.6-2.7c0-1.6,1.1-2.7,2.7-2.7c1.7,0,2.6,1.2,2.6,2.7C54.5,85.5,53.5,86.5,51.8,86.5"/>
		<path class="st0" d="M58.7,84c-0.2,0-0.5,0-0.5,0v1.9c0,0,0.4,0,0.8,0c0.6,0,1.2-0.2,1.2-0.9C60.2,84.3,59.6,84,58.7,84
			 M58.7,81.8c-0.2,0-0.5,0-0.5,0v1.7c0,0,0.3,0,0.6,0c0.7,0,1-0.4,1-0.9C59.8,82,59.4,81.8,58.7,81.8 M59,86.5c-0.4,0-1.5,0-1.5,0
			v-5.2c0,0,0.8,0,1.3,0c1,0,1.7,0.4,1.7,1.2c0,0.9-0.8,1.2-0.8,1.2s1.1,0.2,1.1,1.3C60.9,85.9,60.2,86.5,59,86.5"/>
		<path class="st0" d="M68.4,82.1L67.7,84h1.4L68.4,82.1z M70.1,86.5l-0.8-1.9h-1.9l-0.8,1.9H66l2.1-5.2h0.6l2.1,5.2H70.1z"/>
		<path class="st0" d="M72.8,86.5c-0.9,0-1.4-0.3-1.4-0.3v-0.6c0,0,0.6,0.4,1.4,0.4c0.6,0,1.2-0.2,1.2-0.8c0-0.6-0.7-0.8-1.2-1.1
			c-0.6-0.2-1.3-0.6-1.3-1.5c0-0.9,0.7-1.3,1.5-1.3c0.9,0,1.3,0.3,1.3,0.3v0.6c0,0-0.6-0.3-1.3-0.3c-0.6,0-0.9,0.2-0.9,0.7
			c0,0.5,0.6,0.8,1.2,1c0.7,0.3,1.4,0.6,1.4,1.5C74.6,86,73.8,86.5,72.8,86.5"/>
		<rect x="75.7" y="81.3" class="st0" width="0.6" height="5.2"/>
		<polygon class="st0" points="77.7,86.5 77.7,81.3 78.3,81.3 78.3,85.8 80.6,85.8 80.6,86.5 		"/>
		<polygon class="st0" points="81.6,86.5 81.6,81.3 84.5,81.3 84.5,81.9 82.3,81.9 82.3,83.5 84.4,83.5 84.4,84.1 82.3,84.1 
			82.3,85.8 84.7,85.8 84.7,86.5 		"/>
		<rect x="85.8" y="81.3" class="st0" width="0.6" height="5.2"/>
		<path class="st0" d="M94.4,82.1L93.7,84h1.4L94.4,82.1z M96.1,86.5l-0.8-1.9h-1.9l-0.8,1.9h-0.7l2.1-5.2h0.6l2.1,5.2H96.1z"/>
		<path class="st0" d="M63.2,83.9L63.2,83.9L63.2,83.9C63.2,83.9,63.2,83.9,63.2,83.9C63.1,83.9,63.1,83.9,63.2,83.9l-0.8,0v-2.1
			h0.7c0.5,0,0.8,0.1,1,0.3c0.2,0.2,0.3,0.4,0.3,0.7c0,0.3-0.1,0.6-0.3,0.8C63.8,83.8,63.6,83.9,63.2,83.9 M64,84.3L64,84.3
			c0.5-0.2,1-0.7,1-1.5c0-0.4-0.1-0.8-0.4-1c-0.3-0.3-0.7-0.5-1.5-0.5c-0.1,0-0.1,0-0.2,0h-1.2v0v0.1v0v0.4v2.1v0.5v2h0.7v-2h1
			l1.2,2h0.7L64,84.3z"/>
		<path class="st0" d="M89,83.9L89,83.9L89,83.9C89,83.9,89,83.9,89,83.9C89,83.9,89,83.9,89,83.9l-0.8,0v-2.1h0.7
			c0.5,0,0.8,0.1,1,0.3c0.2,0.2,0.3,0.4,0.3,0.7c0,0.3-0.1,0.6-0.3,0.8C89.7,83.8,89.4,83.9,89,83.9 M89.9,84.3L89.9,84.3
			c0.5-0.2,1-0.7,1-1.5c0-0.4-0.1-0.8-0.4-1c-0.3-0.3-0.7-0.5-1.5-0.5c-0.1,0-0.1,0-0.2,0h-1.2v0v0.1v0v0.4v2.1v0.5v2h0.7v-2h1
			l1.2,2h0.7L89.9,84.3z"/>
		<path class="st0" d="M42.1,73.6c-0.4-0.5-1-0.7-1.8-0.7c-0.6,0-1,0-1,0v4c0,0,0.5,0.1,1.2,0.1c1.3,0,2.1-0.7,2.1-2
			C42.6,74.4,42.4,74,42.1,73.6 M42.6,76.9c-0.5,0.5-1.1,0.8-2.2,0.8c-0.7,0-1.7,0-1.7,0v-5.2c0,0,1.1,0,1.7,0
			c1.1,0,1.8,0.2,2.3,0.8c0.4,0.4,0.6,1,0.6,1.7C43.3,75.8,43,76.4,42.6,76.9"/>
		<polygon class="st0" points="44.1,77.6 44.1,72.4 46.9,72.4 46.9,73 44.8,73 44.8,74.7 46.9,74.7 46.9,75.3 44.8,75.3 44.8,77 
			47.1,77 47.1,77.6 		"/>
		<rect x="50.6" y="72.4" class="st0" width="0.6" height="5.2"/>
		<polygon class="st0" points="56.1,77.6 53.1,73.6 53.1,77.6 52.5,77.6 52.5,72.4 53.1,72.4 56.1,76.5 56.1,72.4 56.7,72.4 
			56.7,77.6 		"/>
		<polygon class="st0" points="65.9,77.6 65.3,77.6 63.3,72.4 64.1,72.4 65.6,76.7 67.2,72.4 67.9,72.4 		"/>
		<path class="st0" d="M69.9,73.3l-0.7,1.8h1.4L69.9,73.3z M71.6,77.6l-0.8-1.9h-1.9l-0.8,1.9h-0.7l2.1-5.2h0.6l2.1,5.2H71.6z"/>
		<path class="st0" d="M75.3,77.6h-0.2L75,77.9c0.5,0.1,0.8,0.4,0.8,0.8c0,0.4-0.3,0.8-0.9,0.8c-0.5,0-0.7-0.2-0.7-0.2l0.1-0.4
			c0,0,0.3,0.2,0.6,0.2c0.3,0,0.4-0.1,0.4-0.3c0-0.3-0.4-0.4-0.9-0.5V78l0.2-0.4c-1.3-0.2-2.1-1.3-2.1-2.6c0-1.7,1-2.6,2.7-2.6
			c1.1,0,1.5,0.2,1.5,0.2v0.6c0,0-0.5-0.3-1.5-0.3c-1.1,0-2,0.5-2,2c0,1.5,1,2.1,2.2,2.1c0.9,0,1.4-0.2,1.4-0.2l0,0.6
			C76.8,77.4,76.3,77.6,75.3,77.6"/>
		<path class="st0" d="M79.9,73.3l-0.7,1.8h1.4L79.9,73.3z M80.4,71.4c-0.4,0-0.6-0.3-0.9-0.3c-0.2,0-0.4,0.1-0.6,0.3L78.7,71
			c0,0,0.3-0.4,0.8-0.4c0.4,0,0.6,0.3,0.9,0.3c0.4,0,0.6-0.3,0.6-0.3l0.2,0.4C81.2,71,80.9,71.4,80.4,71.4 M81.6,77.6l-0.8-1.9H79
			l-0.8,1.9h-0.7l2.1-5.2h0.6l2.1,5.2H81.6z"/>
		<path class="st0" d="M85.1,72.9c-1.3,0-1.9,0.9-1.9,2.1c0,1.1,0.6,2.1,1.9,2.1c1.3,0,2-0.9,2-2.1S86.3,72.9,85.1,72.9 M85.1,77.7
			c-1.6,0-2.6-1.1-2.6-2.7c0-1.6,1.1-2.7,2.7-2.7c1.7,0,2.6,1.2,2.6,2.7C87.7,76.6,86.7,77.7,85.1,77.7"/>
		<path class="st0" d="M9.4,77.6c-1.7,0-2.7-1.1-2.7-2.7c0-1.7,1-2.6,2.7-2.6c1.1,0,1.5,0.2,1.5,0.2v0.6c0,0-0.5-0.3-1.5-0.3
			c-1.1,0-2,0.5-2,2c0,1.5,1,2.1,2.2,2.1c0.9,0,1.4-0.2,1.4-0.2l0,0.6C10.9,77.4,10.4,77.6,9.4,77.6"/>
		<polygon class="st0" points="12.1,77.6 12.1,72.4 14.9,72.4 14.9,73 12.7,73 12.7,74.7 14.8,74.7 14.8,75.3 12.7,75.3 12.7,77 
			15.1,77 15.1,77.6 		"/>
		<polygon class="st0" points="19.6,77.6 16.7,73.6 16.7,77.6 16,77.6 16,72.4 16.7,72.4 19.6,76.5 19.6,72.4 20.2,72.4 20.2,77.6 
					"/>
		<polygon class="st0" points="23.5,73 23.5,77.6 22.8,77.6 22.8,73 21,73 21,72.4 25.3,72.4 25.3,73 		"/>
		<path class="st0" d="M32.9,72.9c-1.3,0-1.9,0.9-1.9,2.1c0,1.1,0.6,2.1,1.9,2.1c1.3,0,2-0.9,2-2.1S34.1,72.9,32.9,72.9 M32.9,77.7
			c-1.6,0-2.6-1.1-2.6-2.7c0-1.6,1.1-2.7,2.7-2.7c1.7,0,2.6,1.2,2.6,2.7C35.5,76.6,34.5,77.7,32.9,77.7"/>
		<path class="st0" d="M27.6,75L27.6,75L27.6,75C27.6,75,27.6,75,27.6,75C27.6,75,27.6,75,27.6,75l-0.8,0v-2.1h0.7
			c0.5,0,0.8,0.1,1,0.3c0.2,0.2,0.3,0.4,0.3,0.7c0,0.3-0.1,0.6-0.3,0.8C28.3,75,28,75,27.6,75 M28.5,75.4L28.5,75.4
			c0.5-0.2,1-0.7,1-1.5c0-0.4-0.1-0.8-0.4-1c-0.3-0.3-0.7-0.5-1.5-0.5c-0.1,0-0.1,0-0.2,0h-1.3v0v0.1v0v0.4V75v0.5v2h0.7v-2h1l1.3,2
			h0.7L28.5,75.4z"/>
		<path class="st0" d="M93.1,74.6C93.1,74.6,93.1,74.6,93.1,74.6C93.1,74.7,93.1,74.7,93.1,74.6C93.1,74.7,93.1,74.7,93.1,74.6
			c-0.1,0.1-0.1,0.1-0.1,0.1C92.7,75,92.1,75,92.1,75h-0.7v-2.1h0.7c0.5,0,0.8,0.1,1,0.3c0.2,0.2,0.3,0.4,0.3,0.7
			C93.3,74.2,93.2,74.5,93.1,74.6 M93.7,72.9c-0.3-0.3-0.7-0.5-1.5-0.5c-0.1,0-0.1,0-0.2,0h-1.2v0v5.2h0.6v-2h0.7
			c0.4,0,1-0.1,1.4-0.4c0,0,0,0,0,0c0,0,0,0,0,0c0.3-0.3,0.5-0.6,0.5-1.2C94,73.5,93.9,73.2,93.7,72.9"/>
		<path class="st0" d="M96.3,73.3l-0.7,1.8h1.4L96.3,73.3z M98,77.6l-0.8-1.9h-1.9l-0.8,1.9H94l2.1-5.2h0.6l2.1,5.2H98z"/>
		<path class="st0" d="M106.6,73.3l-0.7,1.8h1.4L106.6,73.3z M108.3,77.6l-0.8-1.9h-1.9l-0.8,1.9h-0.7l2.1-5.2h0.6l2.1,5.2H108.3z"
			/>
		<path class="st0" d="M101.2,75L101.2,75L101.2,75C101.2,75,101.2,75,101.2,75C101.2,75,101.2,75,101.2,75l-0.8,0v-2.1h0.7
			c0.5,0,0.8,0.1,1,0.3c0.2,0.2,0.3,0.4,0.3,0.7c0,0.3-0.1,0.6-0.3,0.8C101.9,74.9,101.6,75,101.2,75 M102.1,75.4L102.1,75.4
			c0.5-0.2,1-0.7,1-1.5c0-0.4-0.1-0.8-0.4-1c-0.3-0.3-0.7-0.5-1.5-0.5c-0.1,0-0.1,0-0.2,0h-1.2v0v0.1v0v0.4V75v0.5v2h0.7v-2h1l1.3,2
			h0.7L102.1,75.4z"/>
	</g>
</g>
</svg>
