<?xml version="1.0" standalone="no"?>
<!DOCTYPE svg PUBLIC "-//W3C//DTD SVG 20010904//EN"
 "http://www.w3.org/TR/2001/REC-SVG-20010904/DTD/svg10.dtd">
<svg version="1.0" xmlns="http://www.w3.org/2000/svg"
 width="2398.000000pt" height="350.000000pt" viewBox="0 0 2398.000000 350.000000"
 preserveAspectRatio="xMidYMid meet">

<g transform="translate(0.000000,350.000000) scale(0.100000,-0.100000)"
fill="#ffffff" stroke="none">
<path d="M2415 3328 c-2 -13 -8 -160 -12 -327 l-8 -305 -115 -67 -115 -68 3
-48 c7 -98 52 -117 148 -63 30 18 55 26 58 21 4 -5 13 -128 21 -273 8 -145 19
-344 24 -443 20 -348 19 -343 51 -360 41 -21 67 -19 81 7 13 24 12 85 -15 798
-7 190 -12 347 -10 350 1 3 93 43 203 90 l201 85 0 32 c0 46 -17 83 -37 83
-10 0 -90 -20 -178 -45 -88 -25 -166 -45 -174 -45 -12 0 -13 34 -8 213 4 116
10 246 13 289 l7 76 -39 11 c-64 18 -93 14 -99 -11z"/>
<path d="M10727 3305 c-4 -26 -7 -127 -7 -225 0 -97 -3 -224 -6 -282 l-7 -104
-113 -65 c-63 -35 -114 -68 -115 -74 -3 -32 5 -84 18 -109 13 -26 18 -28 57
-24 23 3 60 17 83 31 30 19 44 23 49 15 4 -6 11 -75 15 -152 17 -303 39 -686
45 -789 7 -99 9 -110 32 -127 29 -24 65 -26 82 -5 16 19 14 195 -5 635 -8 179
-15 370 -15 425 l0 100 201 85 c110 47 203 88 205 92 2 3 -1 29 -7 57 -9 43
-14 51 -33 51 -12 0 -93 -20 -180 -46 -87 -25 -165 -43 -172 -40 -18 7 -18
194 0 406 10 116 11 158 2 167 -6 7 -36 15 -67 19 l-56 6 -6 -47z"/>
<path d="M22016 3309 c-3 -24 -8 -170 -10 -324 -7 -323 9 -281 -139 -365 -53
-30 -98 -59 -101 -65 -6 -17 12 -106 25 -121 19 -23 69 -16 125 16 32 18 56
26 59 19 7 -10 8 -18 30 -409 8 -140 20 -343 26 -451 l12 -196 27 -17 c33 -19
61 -21 78 -4 15 15 16 234 2 488 -5 96 -12 288 -16 425 l-7 250 204 86 204 86
-4 39 c-4 50 -17 74 -40 74 -10 0 -88 -20 -174 -45 -87 -25 -165 -45 -174 -45
-15 0 -16 19 -9 213 4 116 11 244 15 282 6 47 4 74 -3 82 -6 7 -37 15 -68 19
l-56 7 -6 -44z"/>
<path d="M562 3303 c-5 -10 -12 -43 -15 -73 -3 -30 -15 -131 -26 -225 -19
-163 -24 -209 -56 -515 -37 -361 -85 -879 -88 -940 l-2 -45 49 -3 c27 -2 53 1
58 6 5 5 16 71 24 148 21 192 41 232 143 285 38 20 250 87 291 92 26 4 68 -95
120 -284 51 -185 106 -329 126 -336 6 -2 23 14 38 35 l27 39 -51 199 c-28 110
-65 250 -81 313 -34 131 -35 156 -11 166 62 26 220 75 239 75 22 0 23 -3 23
-82 1 -120 26 -381 46 -468 31 -135 85 -235 146 -266 43 -22 95 -13 159 29 72
46 194 168 220 220 20 38 22 39 35 23 7 -10 15 -44 19 -75 16 -155 37 -208 87
-222 14 -4 39 -1 58 7 36 16 37 3 -4 156 -46 177 -58 334 -54 723 l3 350 -67
3 -68 3 0 -153 c0 -254 -16 -438 -45 -514 -63 -167 -173 -345 -238 -384 -17
-11 -44 -20 -59 -20 -65 0 -87 169 -115 874 -5 145 -9 172 -25 188 -22 22 -56
23 -85 3 -20 -14 -20 -21 -15 -144 l5 -129 -32 -7 c-17 -4 -79 -22 -138 -41
-58 -19 -114 -34 -124 -34 -19 0 -74 137 -204 515 -46 132 -93 266 -105 297
-28 74 -96 199 -117 216 -25 18 -81 15 -91 -5z m157 -387 c53 -113 201 -622
201 -695 0 -38 -44 -83 -121 -122 -62 -31 -156 -59 -197 -59 l-25 0 6 148 c4
81 13 215 21 297 8 83 20 211 26 285 16 184 15 182 48 178 18 -2 31 -12 41
-32z"/>
<path d="M16736 3288 c-26 -137 -27 -139 -74 -187 -26 -25 -68 -63 -94 -83
-50 -40 -70 -87 -48 -113 18 -21 44 -19 100 10 27 14 56 25 63 25 15 0 16 -9
53 -515 8 -110 19 -256 24 -325 6 -69 15 -194 20 -277 6 -84 13 -160 16 -168
4 -8 18 -18 32 -22 19 -5 30 0 45 18 19 23 19 34 13 224 -4 110 -11 243 -16
295 -5 52 -12 259 -16 460 -5 317 -4 368 9 385 20 26 117 34 292 23 273 -17
455 -95 501 -214 41 -108 -15 -299 -149 -502 -85 -130 -135 -190 -350 -425
-293 -321 -330 -376 -293 -432 9 -14 25 -25 35 -25 25 0 354 339 476 489 222
276 364 546 406 773 35 191 -94 343 -350 409 -111 29 -349 59 -477 59 -125 0
-127 1 -143 70 -14 64 -66 96 -75 48z"/>
<path d="M13184 3265 c-14 -22 -14 -30 -3 -67 32 -98 150 -62 125 37 -15 58
-91 77 -122 30z"/>
<path d="M6853 2930 c-28 -11 -29 -41 -9 -215 8 -66 21 -286 30 -490 27 -626
35 -768 44 -777 4 -4 32 0 62 10 l55 17 16 80 c132 655 175 810 224 810 32 0
63 -95 111 -340 23 -121 46 -237 49 -258 l6 -38 52 3 c63 4 62 2 112 188 77
282 156 488 197 514 25 15 46 -9 63 -76 19 -69 45 -378 45 -519 0 -212 69
-341 165 -309 57 19 61 44 21 130 -49 108 -57 164 -66 455 -9 293 -26 412 -77
522 -30 65 -147 86 -197 36 -42 -42 -107 -188 -196 -441 -60 -171 -72 -160
-100 83 -14 117 -35 217 -55 256 -27 52 -61 69 -137 69 -59 0 -72 -3 -93 -24
-34 -34 -68 -152 -109 -381 -48 -257 -45 -245 -56 -245 -6 0 -10 28 -10 63 0
34 -7 226 -15 427 -14 337 -21 419 -39 449 -8 13 -62 14 -93 1z"/>
<path d="M12517 2906 c-103 -37 -180 -145 -227 -315 -30 -108 -48 -225 -66
-424 -14 -160 -15 -203 -4 -280 24 -176 77 -303 158 -379 74 -69 150 -83 281
-53 87 21 155 59 222 126 100 100 146 204 156 354 5 84 4 91 -16 110 -42 37
-74 -8 -141 -195 -75 -209 -119 -256 -268 -280 -165 -28 -282 138 -282 401 0
79 22 255 51 399 42 216 117 385 185 418 19 8 37 13 40 9 4 -3 13 -46 21 -94
17 -108 55 -189 101 -216 53 -31 57 -19 45 140 -13 161 -31 221 -79 263 -29
25 -43 30 -87 30 -29 -1 -69 -7 -90 -14z"/>
<path d="M18871 2902 c-155 -59 -249 -294 -281 -702 -6 -74 -13 -153 -16 -175
-7 -53 20 -233 46 -315 60 -180 157 -270 294 -270 67 0 171 29 232 65 114 66
220 216 244 344 16 84 13 177 -6 195 -21 22 -31 20 -59 -10 -23 -25 -41 -67
-105 -244 -49 -138 -116 -199 -237 -219 -82 -13 -125 1 -184 59 -91 90 -120
243 -95 487 35 326 112 573 204 654 52 46 65 37 79 -54 14 -92 28 -140 55
-185 21 -34 72 -67 88 -57 13 8 13 116 0 224 -12 102 -48 184 -90 206 -38 19
-113 18 -169 -3z"/>
<path d="M10072 2855 c-161 -81 -263 -249 -326 -540 -51 -233 -90 -377 -97
-358 -3 10 -10 52 -13 93 -25 271 -72 652 -92 743 -18 78 -38 96 -82 75 -36
-18 -37 -39 -18 -328 9 -129 23 -336 31 -460 41 -620 41 -621 78 -634 39 -14
107 11 124 44 6 14 24 90 39 170 61 332 164 665 266 862 61 117 109 167 167
175 38 5 44 3 85 -38 51 -51 50 -49 66 -324 6 -99 17 -277 25 -395 8 -118 17
-260 20 -315 4 -55 11 -105 17 -112 16 -19 52 -16 82 8 26 20 26 22 26 147 0
70 -5 244 -10 387 -15 365 -47 549 -122 700 -68 139 -136 165 -266 100z"/>
<path d="M14842 2855 c-174 -88 -270 -263 -347 -634 -13 -64 -35 -154 -48
-201 -28 -100 -31 -95 -47 90 -10 116 -14 152 -50 445 -34 279 -52 335 -104
319 -51 -16 -54 -39 -36 -254 5 -63 14 -194 20 -290 12 -202 35 -534 50 -730
12 -154 18 -165 84 -156 67 8 88 32 103 117 80 469 241 947 365 1083 34 38 51
49 84 53 37 5 46 2 83 -32 25 -23 44 -51 50 -74 5 -20 14 -128 20 -241 7 -113
16 -261 21 -330 6 -69 14 -208 20 -309 6 -104 15 -190 21 -198 17 -19 53 -16
83 8 l26 20 0 167 c0 237 -17 579 -36 702 -46 310 -136 480 -254 480 -23 0
-65 -14 -108 -35z"/>
<path d="M21362 2855 c-83 -42 -171 -130 -219 -221 -46 -87 -87 -216 -127
-404 -20 -91 -44 -194 -54 -230 -21 -73 -26 -66 -37 50 -28 291 -71 640 -90
733 -16 76 -35 101 -69 91 -53 -16 -54 -26 -31 -351 8 -115 21 -318 30 -453
14 -223 25 -373 41 -548 5 -54 9 -65 29 -74 29 -13 86 -3 115 20 18 15 27 44
46 153 52 294 172 697 262 879 61 124 132 200 185 200 37 0 96 -40 118 -82 10
-18 19 -140 54 -713 26 -415 26 -417 88 -401 57 14 57 16 47 421 -12 485 -36
651 -121 823 -71 145 -137 172 -267 107z"/>
<path d="M13227 2838 c-20 -80 -29 -406 -18 -651 6 -144 13 -368 17 -497 3
-133 11 -240 16 -247 17 -21 86 -16 98 6 6 13 10 250 10 700 0 763 5 711 -75
711 -36 0 -44 -3 -48 -22z"/>
<path d="M3153 2789 c-23 -11 -47 -26 -53 -34 -12 -15 -55 -189 -96 -390 -28
-135 -29 -149 -28 -415 1 -168 6 -300 13 -339 32 -170 106 -207 260 -130 189
95 294 353 294 724 0 188 -15 270 -69 377 -102 203 -200 267 -321 207z m192
-183 c14 -9 31 -29 39 -45 52 -100 45 -468 -12 -691 -42 -159 -111 -256 -190
-267 -39 -5 -42 -3 -53 23 -17 42 -28 401 -19 609 11 233 43 342 112 382 28
16 90 11 123 -11z"/>
<path d="M6290 2801 c-109 -34 -253 -160 -349 -306 -103 -156 -199 -386 -231
-549 -20 -101 -16 -165 14 -232 113 -246 307 -150 509 251 52 105 177 407 193
470 6 20 14 -53 25 -225 9 -140 22 -338 29 -439 15 -225 8 -592 -13 -706 -45
-236 -140 -406 -274 -492 -69 -44 -118 -61 -222 -79 -140 -23 -148 -50 -26
-89 149 -48 256 -26 367 74 123 110 234 326 298 581 72 287 71 394 -5 1305 -7
94 -17 208 -21 255 -4 47 -10 95 -15 106 -4 13 -34 35 -70 53 -50 25 -74 31
-123 30 -34 0 -72 -4 -86 -8z m88 -171 c3 -39 -96 -277 -228 -545 -158 -322
-257 -417 -316 -303 -34 66 18 279 121 494 65 137 121 222 195 295 70 69 131
100 185 97 38 -3 40 -5 43 -38z"/>
<path d="M13690 2788 c-53 -27 -71 -59 -95 -168 -100 -459 -105 -515 -76 -910
17 -224 63 -288 186 -261 231 52 376 340 378 751 0 204 -31 331 -115 461 -90
139 -176 178 -278 127z m200 -187 c49 -36 63 -106 63 -316 0 -408 -101 -685
-249 -685 -32 0 -33 2 -46 58 -21 91 -18 674 5 771 33 148 83 208 162 196 22
-3 51 -14 65 -24z"/>
<path d="M18085 2796 c-43 -19 -76 -59 -85 -103 -4 -21 -24 -108 -43 -193 -69
-304 -77 -442 -49 -805 18 -224 72 -284 213 -236 191 64 305 259 340 581 14
125 6 329 -16 419 -30 125 -141 298 -216 336 -35 18 -104 19 -144 1z m186
-187 c12 -6 31 -32 42 -57 19 -42 22 -69 25 -239 3 -144 0 -219 -12 -295 -41
-261 -128 -418 -232 -418 -55 0 -59 30 -59 435 0 309 2 358 18 414 39 137 83
187 155 177 24 -3 52 -11 63 -17z"/>
<path d="M11812 2779 c-89 -12 -176 -88 -276 -241 -136 -209 -279 -572 -293
-739 -13 -174 49 -329 134 -329 108 0 278 212 459 571 24 49 48 89 53 89 20 0
52 -188 81 -475 6 -60 15 -127 21 -147 8 -33 14 -38 38 -38 51 0 54 13 48 208
-3 100 -15 233 -26 307 -38 235 -53 430 -46 566 5 101 3 134 -9 162 -23 57
-87 80 -184 66z m38 -164 c16 -19 7 -151 -18 -245 -29 -114 -224 -477 -334
-621 -85 -113 -131 -118 -136 -15 -8 160 269 753 405 865 42 34 64 39 83 16z"/>
<path d="M4999 2755 c-123 -39 -200 -133 -294 -355 -87 -204 -122 -268 -176
-321 -54 -53 -59 -69 -29 -99 16 -16 33 -20 80 -20 l60 0 0 -111 c0 -259 78
-392 239 -406 104 -10 223 44 393 178 158 124 308 308 324 398 6 28 3 38 -16
53 -29 24 -61 23 -93 -2 -14 -11 -66 -78 -117 -149 -151 -214 -281 -325 -409
-350 -111 -22 -180 16 -200 108 -13 61 -3 291 15 358 16 58 -2 45 269 198 164
92 278 169 321 217 33 37 36 44 30 82 -26 158 -234 273 -397 221z m187 -151
c51 -25 58 -69 19 -120 -52 -68 -260 -190 -345 -201 -45 -6 -46 -5 -26 60 28
93 147 251 210 278 30 13 97 5 142 -17z"/>
<path d="M8696 2754 c-130 -40 -202 -128 -300 -367 -66 -159 -123 -263 -171
-309 -27 -26 -45 -52 -45 -65 0 -33 40 -55 94 -52 25 2 49 -1 53 -5 4 -4 11
-71 14 -149 5 -111 11 -154 28 -198 77 -201 262 -222 505 -57 104 70 216 169
287 253 144 168 171 285 66 285 -33 0 -65 -34 -160 -170 -90 -128 -218 -263
-288 -303 -25 -15 -75 -34 -110 -43 -111 -27 -185 7 -210 97 -16 58 0 350 21
394 11 23 50 50 160 112 226 128 346 203 400 253 43 40 50 52 50 83 0 99 -89
198 -214 240 -60 21 -115 21 -180 1z m149 -135 c50 -14 85 -45 85 -76 0 -15
-18 -44 -47 -74 -71 -76 -273 -189 -339 -189 -25 0 -26 2 -21 34 13 82 110
229 189 286 44 32 70 36 133 19z"/>
<path d="M19988 2755 c-129 -35 -199 -122 -312 -387 -71 -167 -104 -227 -157
-283 -27 -29 -49 -61 -49 -72 0 -36 33 -55 89 -52 28 2 53 0 56 -3 3 -3 10
-70 14 -149 10 -165 31 -237 88 -300 69 -77 193 -89 317 -31 191 90 428 303
514 463 40 76 42 121 7 137 -60 28 -77 14 -195 -153 -46 -65 -111 -147 -143
-182 -163 -174 -364 -231 -445 -125 -27 35 -27 36 -27 201 0 173 12 246 44
274 9 8 90 56 181 107 192 107 308 182 368 238 35 32 42 45 42 76 0 73 -42
139 -125 195 -83 57 -172 72 -267 46z m147 -136 c59 -15 89 -48 80 -88 -12
-58 -157 -167 -302 -229 -70 -30 -103 -29 -103 2 0 72 124 258 205 308 35 21
59 22 120 7z"/>
<path d="M23013 2752 c-133 -48 -192 -122 -303 -387 -69 -164 -108 -233 -160
-286 -55 -56 -59 -70 -30 -99 16 -16 33 -20 80 -20 l60 0 0 -111 c0 -259 78
-392 239 -406 104 -10 223 44 393 178 158 124 308 308 324 398 6 28 3 38 -16
53 -29 24 -61 23 -93 -2 -14 -11 -67 -79 -117 -150 -149 -210 -271 -316 -398
-347 -95 -23 -167 0 -198 64 -16 33 -18 59 -16 193 1 101 7 173 17 207 17 58
0 45 270 198 164 92 278 169 321 217 33 37 36 44 30 82 -26 161 -239 277 -403
218z m193 -148 c51 -25 58 -69 19 -120 -52 -68 -260 -190 -345 -201 -45 -6
-46 -5 -26 60 28 93 147 251 210 278 30 13 97 5 142 -17z"/>
<path d="M4145 2700 c-201 -36 -394 -199 -468 -396 -17 -47 -22 -81 -22 -169
0 -96 3 -116 24 -159 48 -98 151 -112 327 -45 129 49 234 62 297 36 68 -29 48
-86 -70 -200 -77 -75 -236 -199 -325 -254 -54 -33 -58 -39 -58 -72 0 -21 5
-42 12 -49 22 -22 92 -14 154 18 69 34 227 162 298 241 67 74 144 193 152 235
9 51 -4 116 -32 160 -40 61 -70 78 -144 82 -55 3 -83 -2 -188 -38 -133 -45
-200 -56 -257 -46 -78 15 -92 64 -51 184 67 198 212 352 332 352 21 0 60 -8
86 -17 47 -16 49 -16 75 3 51 38 68 112 30 127 -30 11 -125 15 -172 7z"/>
<path d="M15230 1043 c-36 -2 -380 -17 -765 -33 -2190 -94 -4140 -184 -5445
-250 -1287 -66 -1764 -110 -1713 -161 17 -17 162 -48 299 -63 147 -17 548 -34
674 -29 234 9 561 26 825 43 2182 142 2796 176 4230 235 1667 69 2544 110
2900 135 178 13 390 39 424 52 23 8 24 10 8 19 -38 22 -169 40 -341 49 -165 9
-942 11 -1096 3z" fill="#e65c2d"/>
</g>
</svg>
