<?xml version="1.0" encoding="utf-8"?>
<!-- Generator: Adobe Illustrator 22.1.0, SVG Export Plug-In . SVG Version: 6.00 Build 0)  -->
<svg version="1.1" id="Camada_1" xmlns="http://www.w3.org/2000/svg" xmlns:xlink="http://www.w3.org/1999/xlink" x="0px" y="0px"
	 viewBox="0 0 288.8 46.5" style="enable-background:new 0 0 288.8 46.5;" xml:space="preserve">
<style type="text/css">
	.st0{fill:#62AD4D;}
	.st1{fill:#6BC946;}
	.st2{fill:#FFFFFF;}
</style>
<title>Prancheta 1</title>
<path class="st0" d="M141.8,27.3v7.2h-20.4V1.9h20.2v7.2h-12.8v5.4h11.6v7.1h-11.6v5.8L141.8,27.3z"/>
<path class="st0" d="M174.7,18.2c0,9.2-6.8,16.3-15.8,16.3h-13V1.9h13C167.9,1.9,174.7,9,174.7,18.2z M167.6,18.2
	c0-5.6-3.5-9.1-8.6-9.1h-5.6v18.2h5.6C164,27.3,167.6,23.8,167.6,18.2z"/>
<path class="st0" d="M178.4,24V2h7.4v21.3c0,2.5,1.2,4.6,5.1,4.6s5.1-2.1,5.1-4.6V1.9h7.4V24c0,7-5.4,11.2-12.5,11.2
	S178.4,30.9,178.4,24z"/>
<path class="st1" d="M230.7,9.1h-8.4v25.4h-7.4V9.1h-8.4V1.9h24.2V9.1z"/>
<path class="st1" d="M254.4,27.3v7.2H234V1.9h20.2v7.2h-12.8v5.4H253v7.1h-11.6v5.8L254.4,27.3z"/>
<path class="st1" d="M257,18.2c-0.2-9.1,7-16.7,16.1-16.9c0.3,0,0.5,0,0.8,0c5.6-0.1,10.9,2.8,13.9,7.5l-6.4,3.7
	c-1.6-2.6-4.5-4.1-7.5-4c-5.8,0-9.5,3.9-9.5,9.7s3.7,9.7,9.5,9.7c3.1,0.1,5.9-1.4,7.5-4l6.4,3.7c-3,4.8-8.3,7.6-13.9,7.5
	c-9.1,0.2-16.7-7-16.9-16.1C257,18.7,257,18.5,257,18.2z"/>
<path class="st2" d="M33.8,20.7c0,7.9-6,14.4-15.7,14.4c-10,0-17.1-7.5-17.1-16.8C0.8,9.2,8,1.7,17.1,1.6c0.2,0,0.5,0,0.7,0
	c5.7-0.1,11.1,2.9,14,7.9l-2.2,1.3C27.3,6.5,22.7,3.9,17.9,4C10.1,3.8,3.6,9.9,3.4,17.7c0,0.2,0,0.5,0,0.7c0,8,5.9,14.4,14.6,14.4
	c7.9,0,12.7-4.9,13.2-11H17.4v-2.3h16.3V20.7z"/>
<path class="st2" d="M39.2,23.7V2.1h2.5v21.6c0,5.3,3.3,9,9.4,9s9.5-3.7,9.5-9V2.1h2.5v21.6c0,6.9-4.8,11.4-11.9,11.4
	S39.2,30.6,39.2,23.7z"/>
<path class="st2" d="M73.1,2.1v32.5h-2.5V2.1H73.1z"/>
<path class="st2" d="M99.9,26.4H83.6l-3.2,8.3h-2.6L90.5,2.1h2.6l12.6,32.5h-2.6L99.9,26.4z M99.1,24L91.8,5.1L84.6,24H99.1z"/>
<path class="st2" d="M287.8,45.2H121.3v-2.5h166.5V45.2z"/>
</svg>
