<?xml version="1.0" encoding="utf-8"?>
<!-- Generator: Adobe Illustrator 23.0.3, SVG Export Plug-In . SVG Version: 6.00 Build 0)  -->
<svg version="1.1" id="Camada_1" xmlns="http://www.w3.org/2000/svg" xmlns:xlink="http://www.w3.org/1999/xlink" x="0px" y="0px"
	 viewBox="0 0 200 200" style="enable-background:new 0 0 200 200;" xml:space="preserve">
<style type="text/css">
	.st0{fill:#85C440;}
</style>
<title>aula_enriquecida_com_tecnologia</title>
<path class="st0" d="M190,43h-53.5V10.8h6.3c2.2,0,4.1-1.8,4.1-4.1c0,0,0,0,0,0h-27.5c0,2.2,1.8,4.1,4,4.1c0,0,0,0,0,0h6.3V43H76.2
	c-5.5,0-10,4.5-10,10v39.9c-3-1.3-6.1-2.7-8.9-4V50c0-4.9-2.9-9.3-7.4-11.2c0.4-2.4,0.4-4.8,0-7.2c-22.3-2.6-35.3,3.1-39.2,6.3
	C7.6,40.5,3.4,43.3,3,48.5c-0.2,2,5.3,33.6,5.8,41c-1.3,1-2.5,3.4-3.8,10.2c-0.9,4.7-1.8,11-2.6,18.7C0.8,132.3,0,146.1,0,148.7
	s2.2,4.5,5.4,4.5c3.3,0,6.2-1.9,7.4-5c0.2-0.5,0.2-1.1,0.3-1.6c0-0.7,0.1-1.6,0.2-2.9c0.1-2.4,0.2-5.7,0.4-9.2c0,0.2,0,0.3,0,0.4
	c-0.5,15.4-1.5,39.8-2,44.3c-0.2,0-0.4,0.1-0.5,0.1c-0.9,0.2-2.8,0.6-2.8,2.5c0,0.2,0,1,0,2c0,2,0.1,5.1,0.1,6.8s2.2,2.6,3.1,2.6
	c1.5,0,2.7,0,4.3,0c2.4,0,5.4-0.1,11.3-0.1c2.5,0,3.5-3.8,3.5-5.8c0-6.4,0.5-15.9,1-24.4c0.4,10.3,0.8,21.6,1.2,26v0.1
	c0.1,1.3,0.3,3.7,2.5,3.7h17.3c0.6,0,1.1-0.2,1.5-0.6c0.9-0.9,1.2-2.6,0.8-9.6c0-0.4,0-0.7,0-0.8c0-1.5-1.4-1.8-2.2-2l-0.2-0.1
	c-0.3-0.1-1-0.2-1.5-0.4v-37.2l-0.2-40.3c3.3,1.4,9.5,4.1,15.6,6.7v21c0,5.5,4.5,10,10,10h31.1c2.6,2.5,13.1,4.4,25.8,4.4
	s23.2-1.9,25.8-4.4H190c5.5,0,10-4.5,10-10V53C200,47.5,195.5,43,190,43z M12.3,53.3c14.4-1,28.5-1.4,33.9-7.1
	c0.5-0.5,0.9-1.1,1.3-1.6c8.6,9.5,7.9,24.2-1.6,32.8c-9.1,8.2-23.1,8-31.8-0.6C14,67.6,12,53.3,12.3,53.3z M65.3,106.3l-0.4-0.2
	l-1.2-0.5l-4-1.7l-0.8-0.3l-2.4-1l-1.1-0.6l-4-1.7l-0.5-0.2l-2.3-1l0.2,43v38.1c0,0,0,0.1,0,0.1c0,0.1,0.1,0.1,0.1,0.2l0.2,0.1
	c0,0,0.1,0,0.1,0.1l0.1,0.1h-8v1.8h11.5c0,0.1,0,0.1,0,0.2s0,0.2,0,0.3s0,0.2,0,0.4s0,0.4,0,0.6c0,0.4,0,0.8,0,1.3
	c0,0.1,0,0.2,0,0.3c0.1,2.6,0,5.4-0.6,5.4H35c-0.5,0-0.6-1.2-0.7-2.2c-0.8-8.6-1.8-45.3-1.8-45.3H31c0,0-2.2,29.5-2.2,43.8
	c0,1.9-1,4-1.7,4c-9.7,0-11.7,0.1-15.6,0.1c-0.1,0-1.3-0.3-1.3-0.9c0-1.4,0-3.6,0-5.5v-0.9c0-0.5,0-0.9,0-1.2H25v-1.8H11.2
	c0.6-0.1,1.1-0.3,1.6-0.5c0.1-0.1,0.3-0.2,0.4-0.3c0.8-0.8,2.3-45.6,2.3-45.6s-1.7-19.8-2.2-24.4c-0.8,1.9-1.7,36.9-2.1,37.1L11,148
	c-0.3,0.6-0.6,1.1-1.1,1.6c-1.5,1.4-3.5,2-5.6,1.7c-0.3-0.1-0.6-0.2-1-0.3c-0.4-0.2-0.7-0.4-1-0.7c-0.1-0.1-0.3-0.3-0.3-0.5
	c-0.2-0.4-0.3-0.8-0.3-1.2c0-5.2,3.3-55.6,8.2-57.8c0.5-0.2,1-0.5,1.5-0.7l0.5-0.2l2.2-1c0.4-0.2,0.8-0.3,1.2-0.5
	c1.4-0.6,2.8-1.1,4.2-1.5c5.5-1.5,13.7-2.3,28-0.4c0.8,0.1,1.6,0.4,2.3,0.7c1.7,0.9,3.8,1.9,6.2,3c3.1,1.4,6.6,3,10.1,4.6l1.8,0.8
	l3.7,1.6l0.7,0.3c3.4,1.5,6.4,2.8,8.5,3.7l0.6,0.3c1.4,0.6,2.3,1.1,2.6,1.2c1.2,0.7,3.5,6.8,2.7,9.8c-0.1,0.2-0.2,0.5-0.3,0.7
	c0,0.1-0.1,0.1-0.1,0.2l-0.2,0.2c-0.6,0.6-1.5,0.7-3,0.2c-2.1-0.8-6.1-2.4-10.7-4.4l-1.8-0.7l-2.7-1.2l-1.8-0.8L65.3,106.3z
	 M198.2,129.6c0,4.5-3.7,8.2-8.2,8.2H76.2c-4.5,0-8.2-3.7-8.2-8.2v-20.3l2.8,1.2v15.3c0.1,5.1,4.2,9.2,9.3,9.1H112v-1.8H80.1
	c-4.1,0.1-7.5-3.2-7.6-7.3v-14.6c4.3,1.8,8.1,3.4,10.1,4.1c0.7,0.3,1.5,0.4,2.2,0.4c1.8,0,3.3-1.2,3.7-2.9
	c0.9-3.4-1.5-10.5-3.5-11.7c-0.6-0.3-3-1.4-8-3.6c-2.7-1.2-5.8-2.5-9-3.9V53c0-4.5,3.7-8.2,8.2-8.2H190c4.5,0,8.2,3.7,8.2,8.2V129.6
	z"/>
<rect x="86.7" y="47.8" class="st0" width="66.8" height="1.8"/>
<path class="st0" d="M192.9,125.8c-0.1,4.1-3.5,7.4-7.6,7.3h-6.6v1.8h6.6c5.1,0.1,9.3-4,9.3-9.1V78.7h-1.8V125.8z"/>
</svg>
