<svg id="Camada_1" data-name="Camada 1" xmlns="http://www.w3.org/2000/svg" viewBox="0 0 200 200"><defs><style>.cls-1{fill:#85c440;}</style></defs><title>aulas_mao_na_massa</title><path class="cls-1" d="M195.74,54.83h-2.9a6.23,6.23,0,0,0-3.18-.86H188.6A4.29,4.29,0,0,1,187,51.64l0-.11a4.32,4.32,0,0,1,1.95-4.92l3.75-2.16a4.27,4.27,0,0,0,1.56-5.82l-4.66-8.06A4.25,4.25,0,0,0,183.81,29a6.34,6.34,0,0,0-4-1.41,6.19,6.19,0,0,0-3.17.86L174,30a4.23,4.23,0,0,1-.26-4.63l2.17-3.77a4.24,4.24,0,0,0-1.56-5.81l-8.06-4.66a4.22,4.22,0,0,0-4.13-.06l-.91-.52a6.37,6.37,0,0,0-8.67,2.33l-2.1,3.63a4.19,4.19,0,0,1-.52-2V10.09a4.26,4.26,0,0,0-4.26-4.25h-2.91A6.35,6.35,0,0,0,139.65,5h-9.31A6.36,6.36,0,0,0,124,11.33v4.6a2,2,0,0,1-.15.78l-2-3.56A4.26,4.26,0,0,0,116,11.58a6.37,6.37,0,0,0-7.16-.57l-8.07,4.66a6.35,6.35,0,0,0-2.32,8.67l2.3,4a2.16,2.16,0,0,1-.24,2.51l-1.64-1a4.21,4.21,0,0,0-4.14-.06l-.89-.52a6.35,6.35,0,0,0-8.67,2.32l-4.65,8.07a6.36,6.36,0,0,0,2.32,8.67l4,2.3a2.21,2.21,0,0,1,1,2.5l0,.07A2.22,2.22,0,0,1,85.69,55H81.35A6.36,6.36,0,0,0,75,61.34v9.31A6.36,6.36,0,0,0,81.35,77H86a2.19,2.19,0,0,1,2.1,1.66l0,.11a2.2,2.2,0,0,1-1,2.54l-3.75,2.17a6.26,6.26,0,0,0-2.81,3.38C75.81,76.19,67,66.37,51.34,66.38c-27.07,0-33.06,29.61-32.18,39.53.17.17.35.33.54.49a8.59,8.59,0,0,0-5.94,8.46c0,4.5,3.07,8.2,7,8.66,0,.1.06.19.09.29l-1.23,28.7s1.3.59,3.55,1.47C7.92,165.34.51,186.43.11,187.61l-.11.33v.35A6.94,6.94,0,0,0,7.11,195H97.92a6.93,6.93,0,0,0,7.1-6.73v-.38l-.14-.35c-.46-1.22-8.63-22.61-23.54-33.75a31,31,0,0,0,2.81-2.48c0-3.48-.59-15.48-1.07-24.6h0a25.93,25.93,0,0,0,1.12-3.32,8.57,8.57,0,0,0,6.2-8.54A8.71,8.71,0,0,0,85,106.57c-.06-.41-.12-.81-.2-1.21a2,2,0,0,0,.53-.52A62.41,62.41,0,0,0,84,97.28l1.69,2.93a6.33,6.33,0,0,0,8.68,2.32l4-2.31a2.22,2.22,0,0,1,2.66.38l0,.06a2.21,2.21,0,0,1,.44,2.72l-2.17,3.76a6.35,6.35,0,0,0,2.33,8.67l8.06,4.66a6.38,6.38,0,0,0,8.68-2.33l.1-.19a4.22,4.22,0,0,0,4.16-2.08l1.37-2.36a2.16,2.16,0,0,1,1,1.79v4.34a6.36,6.36,0,0,0,6.35,6.35h9.31a6.37,6.37,0,0,0,5.58-3.32h.5a4.26,4.26,0,0,0,4.26-4.26v-4.6a1.88,1.88,0,0,1,0-.34,2.1,2.1,0,0,1,.31.41l2.16,3.75a6.37,6.37,0,0,0,8.67,2.33l8.06-4.66a6.56,6.56,0,0,0,1-.71l0,0,4-2.32a4.24,4.24,0,0,0,1.56-5.81l-2.31-4a4.14,4.14,0,0,1-.52-2.62l3.16,1.82a6.27,6.27,0,0,0,3.17.86,6.37,6.37,0,0,0,5.5-3.17l.1-.19h0a4.23,4.23,0,0,0,4.16-2.09L194.76,89a4.27,4.27,0,0,0-1.56-5.83l-4-2.3a4.3,4.3,0,0,1-2-4.82.13.13,0,0,0,0-.06h2.42a6.35,6.35,0,0,0,5.58-3.32h.5A4.26,4.26,0,0,0,200,68.4V59.08A4.26,4.26,0,0,0,195.74,54.83ZM61.93,147.18h-.32l-.56,1.21c-1.87,4.06-5.14,6.48-8.77,6.48-4,0-6.18-.67-9.5-6.78l-.65-1.2-.57.05v-.87a27.25,27.25,0,0,0,10.53,2.52,27.63,27.63,0,0,0,9.84-2.1Zm41,41.11a4.85,4.85,0,0,1-5,4.64H86.33V175.1H84.24v17.83h-61V175.1H21.12v17.83h-14a4.85,4.85,0,0,1-5-4.64s7.7-22.44,23.45-33.4a31.76,31.76,0,0,1,13.93-5.65c.49-.07,1-.12,1.48-.16.21.37.41.74.61,1.08,3.3,5.65,6.08,6.79,10.72,6.79,3.5,0,7.16-1.85,9.65-5.8a16.81,16.81,0,0,0,1-1.89c.35,0,.71,0,1.06,0a28.41,28.41,0,0,1,15.53,5.8C94.57,166,102.93,188.29,102.93,188.29Zm-20-81.43c.07.46.13.93.19,1.4,2.92.29,5.22,3.15,5.22,6.6a8.08,8.08,0,0,1-.11,1.31,3.5,3.5,0,0,1-.13.56,6.74,6.74,0,0,1-.42,1.22c-.07.16-.15.3-.23.45a4.08,4.08,0,0,1-.36.58c-.08.12-.17.23-.25.34a2,2,0,0,1-.22.27c-.12.14-.24.26-.36.38a5.06,5.06,0,0,1-1.07.8l-.28.16a3.15,3.15,0,0,1-.47.2,2,2,0,0,1-.41.15l-.1,0-.44.1-.12,0a4.45,4.45,0,0,1-.5,0H82.5c-.08.4-.18.79-.28,1.19a4.67,4.67,0,0,1-.14.5,12.27,12.27,0,0,1-.35,1.18c-.14.42-.28.82-.45,1.23a2.31,2.31,0,0,1-.1.28c-.15.38-.31.75-.47,1.12s-.46,1-.71,1.43-.4.74-.61,1.09a.5.5,0,0,1-.11.19c-.23.4-.47.78-.72,1.16s-.46.69-.7,1l-.13.18c-.24.32-.48.64-.73.95s-.66.84-1,1.25-.49.56-.77.85-.35.38-.55.57-.39.41-.6.6c-.72.71-1.46,1.38-2.23,2-.26.22-.51.43-.78.62a36.61,36.61,0,0,1-3.58,2.5l-.8.48-.82.46c-.61.34-1.21.66-1.83,1s-1.4.65-2.08.94-1.61.63-2.4.89c-.45.15-.9.3-1.35.42-.21.05-.42.12-.62.16s-.48.12-.7.17a1.53,1.53,0,0,1-.29.07l-1,.2-.22,0c-.37.07-.74.12-1.09.16s-.49.07-.73.08l-.55,0-.94,0c-.3,0-.59,0-.89,0a5.63,5.63,0,0,1-.59-.05c-.27,0-.54-.06-.81-.09-.7-.09-1.43-.24-2.19-.41l-.44-.12c-.44-.11-.88-.24-1.34-.39,0,0,0,0-.06,0-.44-.13-.9-.29-1.35-.46s-.94-.34-1.41-.54l-.12,0-1.33-.59c-.69-.32-1.39-.67-2.09-1.06-.45-.24-.9-.5-1.34-.76L37,141.27c-.21-.12-.41-.26-.61-.39-.38-.25-.76-.53-1.14-.8h0c-.45-.31-.9-.66-1.34-1s-1-.8-1.48-1.23-.78-.69-1.16-1.05-.71-.69-1.05-1a3.07,3.07,0,0,1-.25-.26c-.36-.37-.7-.75-1-1.15a15.81,15.81,0,0,1-1-1.26q-.36-.44-.69-.9l-.09-.13c-.28-.39-.55-.78-.81-1.18a1.4,1.4,0,0,1-.1-.16c-.22-.33-.43-.67-.62-1a.35.35,0,0,1-.07-.12c-.18-.28-.33-.57-.49-.87-.28-.52-.55-1.07-.79-1.61-.17-.36-.33-.73-.47-1.09a.34.34,0,0,0,0-.08,5.59,5.59,0,0,1-.22-.57c-.13-.32-.24-.66-.35-1s-.23-.7-.32-1.06a.29.29,0,0,1,0-.09c-.06-.19-.12-.38-.16-.56-.1-.39-.18-.78-.27-1.16h-.83l-.46,0-.18,0a5,5,0,0,1-1.52-.46,3,3,0,0,1-.47-.25c-.14-.09-.27-.17-.4-.27a.15.15,0,0,1-.07,0,1.37,1.37,0,0,1-.29-.25,1.52,1.52,0,0,1-.33-.3,2.4,2.4,0,0,1-.27-.28.52.52,0,0,1-.1-.11,3.86,3.86,0,0,1-.3-.38l-.05-.07c-.08-.13-.16-.24-.24-.38a.46.46,0,0,1-.09-.17,2,2,0,0,1-.23-.43,1.63,1.63,0,0,1-.17-.38,3,3,0,0,1-.14-.39,4,4,0,0,1-.2-.67c0-.17-.08-.34-.11-.51s0-.37-.07-.56,0-.45,0-.68c0-3.64,2.58-6.62,5.72-6.62h.26a2.72,2.72,0,0,1,0-.3c.15.1.29.18.45.27S23.67,119.5,24,119.66a21.36,21.36,0,0,0,2.25,1c.41.15.12-10.66.53-10.53,9.34,2.88,21.12,1.49,21.12,1.49l3-10.09,3.62,10.24s21.64-2.84,23.86-3.61l.57,7.92.23,3.15,2.8-.75.1-2.69.35-9.16.44-.19C82.86,106.55,82.88,106.7,82.9,106.86Zm102.42-33a4.3,4.3,0,0,0-4.14,3.28l0,.1a4.3,4.3,0,0,0,2,4.82l4,2.31a4.25,4.25,0,0,1,1.56,5.82L184,98.28a4.28,4.28,0,0,1-3.7,2.13,4.33,4.33,0,0,1-2.13-.57l-3.76-2.17a4.13,4.13,0,0,0-2.11-.57,4.35,4.35,0,0,0-3.12,1.33l-.07.07a4.3,4.3,0,0,0-.7,5.17l2.31,4a4.27,4.27,0,0,1-1.56,5.82l-8.07,4.66a4.17,4.17,0,0,1-2.13.56,4.22,4.22,0,0,1-3.68-2.13l-2.17-3.74a4.23,4.23,0,0,0-3.7-2.12,4.11,4.11,0,0,0-1.21.17l-.11,0a4.28,4.28,0,0,0-3.18,4.12v4.6a4.27,4.27,0,0,1-4.27,4.26h-9.31a4.26,4.26,0,0,1-4.26-4.26V115.3a4.29,4.29,0,0,0-3.28-4.15l-.1,0a3.69,3.69,0,0,0-.56-.11,3.31,3.31,0,0,0-.55,0h-.4l-.13,0H122a.59.59,0,0,0-.2,0l-.21,0a3,3,0,0,0-.64.2,3.36,3.36,0,0,0-.77.41,4.1,4.1,0,0,0-1.3,1.38l-2.31,4a4.25,4.25,0,0,1-3.69,2.12,4.18,4.18,0,0,1-2.12-.56L102.71,114a4.26,4.26,0,0,1-1.56-5.81l2.18-3.77a4.08,4.08,0,0,0,.51-1.48,4.31,4.31,0,0,0-1.28-3.75.27.27,0,0,0-.08-.07,4.32,4.32,0,0,0-3-1.26,4.15,4.15,0,0,0-2.11.56l-4,2.31a4.36,4.36,0,0,1-2.13.57,4.25,4.25,0,0,1-3.69-2.13L82.85,91.1a4.22,4.22,0,0,1,1.55-5.82l3.76-2.16A4.17,4.17,0,0,0,90.23,80h0a4.33,4.33,0,0,0-.12-1.82l0-.12A4.3,4.3,0,0,0,86,74.91H81.35a4.26,4.26,0,0,1-4.26-4.26V61.34a4.26,4.26,0,0,1,4.26-4.26h4.34a4.25,4.25,0,0,0,3-1.23,4.34,4.34,0,0,0,1.17-2.05l0-.1a4.21,4.21,0,0,0,.09-.49,4.29,4.29,0,0,0-2.07-4.33l-4-2.31a4.23,4.23,0,0,1-1.55-5.82L87,32.68a4.27,4.27,0,0,1,5.82-1.55l.35.2,3.42,2a4,4,0,0,0,2.09.56,4.42,4.42,0,0,0,3.14-1.32l.07-.07a4.26,4.26,0,0,0,.47-.58,4.46,4.46,0,0,0,.74-1.87,4.17,4.17,0,0,0-.51-2.72l-2.32-4a4.23,4.23,0,0,1,1.57-5.81l8.06-4.66a4.19,4.19,0,0,1,2.12-.57,4.09,4.09,0,0,1,2,.5,4,4,0,0,1,1.72,1.63l2.17,3.75a4.07,4.07,0,0,0,.33.48,5,5,0,0,0,.37.43,4.36,4.36,0,0,0,4.22,1l.1,0a4.39,4.39,0,0,0,2.43-1.72,4.27,4.27,0,0,0,.75-2.4v-4.6a4.27,4.27,0,0,1,4.27-4.26h9.31a4.26,4.26,0,0,1,4.26,4.26v4.34a4.29,4.29,0,0,0,3.28,4.15l.11,0a5.3,5.3,0,0,0,.55.1,2.62,2.62,0,0,0,.55,0l.25,0h.09l.27,0a4.37,4.37,0,0,0,.5-.09,3,3,0,0,0,.4-.12l.15-.08a3.42,3.42,0,0,0,.43-.21l.16-.07a2.88,2.88,0,0,0,.34-.23,3.49,3.49,0,0,0,.42-.36c.13-.14.26-.28.37-.42A1.7,1.7,0,0,0,152,18a.77.77,0,0,0,.12-.17l2.3-4a4.3,4.3,0,0,1,3.7-2.13,4.2,4.2,0,0,1,2.13.57l.35.2L168.3,17a4.26,4.26,0,0,1,1.57,5.81l-2.18,3.77a4.31,4.31,0,0,0,.76,5.23l.08.07a4.38,4.38,0,0,0,3.06,1.26,4.09,4.09,0,0,0,2.1-.56l2-1.15,2-1.16a4.31,4.31,0,0,1,2.13-.57,4.19,4.19,0,0,1,2,.49,4.07,4.07,0,0,1,1.73,1.64l4.66,8.06a4.27,4.27,0,0,1-1.56,5.83l-3.75,2.16a4.29,4.29,0,0,0-2,4.91l0,.11a4.29,4.29,0,0,0,4.12,3.19h4.6a4.25,4.25,0,0,1,4.26,4.25v9.32a4.26,4.26,0,0,1-4.26,4.26Z"/><path class="cls-1" d="M135.51,31.53a35.19,35.19,0,1,0,35.18,35.18A35.23,35.23,0,0,0,135.51,31.53Zm0,68.29A33.11,33.11,0,1,1,168.6,66.71,33.12,33.12,0,0,1,135.51,99.82Z"/><path class="cls-1" d="M135.51,44.75a22,22,0,1,0,22,22A22,22,0,0,0,135.51,44.75Zm0,41.84c-6.57-2.46-12.69-11.44-12.69-19.88,0-9.15,5.72-17.51,14.14-19.82a19.88,19.88,0,0,1-1.45,39.7Z"/><path class="cls-1" d="M193.47,146.11a4.19,4.19,0,0,0-3.2-1.51H189s0,0,0-.06a.43.43,0,0,1,0,0,2.24,2.24,0,0,1-.07-.51l.93-.53a4.1,4.1,0,0,0,1.88-2.39l0,0a2.07,2.07,0,0,0,.75-2.83l-2.27-3.92a2,2,0,0,0-1.54-1,4.14,4.14,0,0,0-5.28-.95l-1.14.65a2.09,2.09,0,0,1,.27-1.24l1.06-1.83a2.07,2.07,0,0,0-.76-2.83l-1.24-.71a3.34,3.34,0,0,0-.67-.5L177,123.61a4.08,4.08,0,0,0-2.07-.57,4.19,4.19,0,0,0-3.61,2.09l-.35.6v-1.39a2.06,2.06,0,0,0-1.81-2.06,4.17,4.17,0,0,0-3.22-1.5H161.4a4.15,4.15,0,0,0-4.15,4.15v.89a2,2,0,0,0-1.54-1,4.2,4.2,0,0,0-3.21-1.52,4.05,4.05,0,0,0-2.07.57l-3.93,2.26A4.15,4.15,0,0,0,145,131.8l1.13,1.95-.06,0-1.84-1a4.14,4.14,0,0,0-5.69,1.52l-2.26,3.92a4.15,4.15,0,0,0,1.52,5.68l1.94,1.13,0,.05-2.12,0a4.17,4.17,0,0,0-4.15,4.15v4.54a4.17,4.17,0,0,0,4.15,4.16h2.25l1.79-.43,0,0-1.76.41-1.8,1.14a4.18,4.18,0,0,0-1.52,5.69l2.26,3.92a4.15,4.15,0,0,0,3.6,2.08,4.2,4.2,0,0,0,2.08-.55l1.95-1.13,0,.06-1,1.84a4.18,4.18,0,0,0,1.52,5.69l3.93,2.26a4.18,4.18,0,0,0,5.68-1.52l.59-1a1.87,1.87,0,0,0,.56-.62l0-.08,0,1.91a4.17,4.17,0,0,0,4.17,4.17h4.52a4.18,4.18,0,0,0,4-3,2,2,0,0,0,1-1.79v-.31l.28.47a4.18,4.18,0,0,0,5.68,1.52l3.92-2.27a4.1,4.1,0,0,0,1.89-2.38l0,0a2,2,0,0,0,.75-2.82l-1-1.77.64.36a4.28,4.28,0,0,0,2.09.56,4.19,4.19,0,0,0,3.6-2.07l.59-1a1.84,1.84,0,0,0,.55-.62l2.27-3.93a2.07,2.07,0,0,0-.75-2.82l-1.27-.73a2.81,2.81,0,0,0-.65-.48l-.5-.3a2,2,0,0,1-.5-.93h1.2a4.15,4.15,0,0,0,4-2.95,2,2,0,0,0,1-1.79v-4.54A2.06,2.06,0,0,0,193.47,146.11Zm-52,11.5-.09.06A.37.37,0,0,1,141.48,157.61Zm48.31,5.7-2.27,3.92a2.08,2.08,0,0,1-1.79,1,2.12,2.12,0,0,1-1-.28l-1.82-1a2,2,0,0,0-1-.27,2.17,2.17,0,0,0-1.52.63.11.11,0,0,1,0,.05,2.07,2.07,0,0,0-.34,2.51l1.12,1.94a2.06,2.06,0,0,1-.76,2.83l-3.92,2.27a2.06,2.06,0,0,1-2.83-.76l-1.05-1.82a2.09,2.09,0,0,0-1.81-1,2,2,0,0,0-.58.09l-.06,0a2.08,2.08,0,0,0-1.54,2v2.23a2.08,2.08,0,0,1-2.08,2.08h-4.52a2.08,2.08,0,0,1-2.08-2.08v-2.1a2.08,2.08,0,0,0-1.6-2l0,0a2.55,2.55,0,0,0-.54-.06l-.27,0a2,2,0,0,0-1.2.57,2.08,2.08,0,0,0-.34.43l-1.12,1.95a2,2,0,0,1-.78.76,1.85,1.85,0,0,1-.75.25,1.18,1.18,0,0,1-.27,0,2.06,2.06,0,0,1-1-.29L148,174.87a2,2,0,0,1-1-1.49,2.12,2.12,0,0,1,.25-1.34l1.07-1.82a1.93,1.93,0,0,0,.24-.71,2.11,2.11,0,0,0-.62-1.84l0,0a2.14,2.14,0,0,0-1.49-.61,2.08,2.08,0,0,0-1,.27l-1.95,1.13a2.09,2.09,0,0,1-2.83-.76l-2.27-3.92a2,2,0,0,1-.25-.73,2.06,2.06,0,0,1,1-2.1l1.82-1.06a2.06,2.06,0,0,0,1-1.51s0,0,0,0a2.17,2.17,0,0,0,0-.84s0-.05,0-.06a2.09,2.09,0,0,0-2-1.55h-2.25a2.07,2.07,0,0,1-2.06-2.07v-4.54a2.07,2.07,0,0,1,2.06-2.06h2.12a2.13,2.13,0,0,0,2-1.6.06.06,0,0,0,0-.05,2,2,0,0,0,.05-.24,2.09,2.09,0,0,0-1-2.1l-1.95-1.12a2.11,2.11,0,0,1-1-1.51,2,2,0,0,1,.25-1.32l2.27-3.93a2.08,2.08,0,0,1,1.79-1,2.23,2.23,0,0,1,1,.28l.16.1,1.66,1a2.13,2.13,0,0,0,.76.25l.26,0a1.87,1.87,0,0,0,.42,0,1.57,1.57,0,0,0,.35-.11,2.1,2.1,0,0,0,.76-.5l0,0a1.94,1.94,0,0,0,.23-.27,1.9,1.9,0,0,0,.35-.93,1.92,1.92,0,0,0-.24-1.3l-1.12-2a1.82,1.82,0,0,1-.25-.73,2,2,0,0,1,1-2.09l3.92-2.27a2,2,0,0,1,1-.28l.27,0a2.09,2.09,0,0,1,.36.07c.1,0,.22.09.32.15l.06,0a1.67,1.67,0,0,1,.24.16,2.31,2.31,0,0,1,.55.61l1.05,1.83a2.08,2.08,0,0,0,1.81,1,2.38,2.38,0,0,0,.58-.08h.05a2,2,0,0,0,1.18-.85,2,2,0,0,0,.38-1.15v-2.25a2.05,2.05,0,0,1,2.06-2.06h4.53a2.06,2.06,0,0,1,2.08,2.06v2.12a2.08,2.08,0,0,0,1.6,2h0a2,2,0,0,0,.53.08,2.07,2.07,0,0,0,1.75-1s0,0,.06-.09l1.12-1.94a2.08,2.08,0,0,1,1.8-1,2,2,0,0,1,1,.28l.17.1,3.75,2.17a2.06,2.06,0,0,1,.76,2.82l-1.06,1.84a2.1,2.1,0,0,0,.38,2.55l0,0a2.18,2.18,0,0,0,1.49.61,2,2,0,0,0,1-.28l1-.55,1-.57a2.16,2.16,0,0,1,1-.28l.27,0a2.21,2.21,0,0,1,.35.08,1.92,1.92,0,0,1,.33.14.21.21,0,0,1,.1.06l.19.12a2.19,2.19,0,0,1,.55.62l2.26,3.92a2.08,2.08,0,0,1-.76,2.84l-1.82,1a2.1,2.1,0,0,0-.95,2.39s0,0,0,0a2.08,2.08,0,0,0,2,1.55h2.25a2.07,2.07,0,0,1,2.06,2.07v4.53a2.07,2.07,0,0,1-2.06,2.07h-2.12a2.1,2.1,0,0,0-2,1.59.35.35,0,0,1,0,.06,2.09,2.09,0,0,0,1,2.34l1.94,1.12A2.09,2.09,0,0,1,189.79,163.31Z"/><path class="cls-1" d="M163.92,133.69a18.19,18.19,0,1,0,18.19,18.18A18.21,18.21,0,0,0,163.92,133.69Zm0,34.28a16.1,16.1,0,1,1,16.1-16.1A16.1,16.1,0,0,1,163.92,168Z"/><path class="cls-1" d="M163.92,140.11a11.76,11.76,0,1,0,11.76,11.76A11.77,11.77,0,0,0,163.92,140.11Zm0,21.44c-3.19-1.2-6.17-5.58-6.17-9.68a9.85,9.85,0,0,1,6.88-9.64,9.67,9.67,0,0,1-.71,19.32Z"/></svg>