<svg id="Camada_1" data-name="Camada 1" xmlns="http://www.w3.org/2000/svg" viewBox="0 0 200 200"><defs><style>.cls-1{fill:#85c440;}</style></defs><title>ensino_baseado_em_projetos</title><path class="cls-1" d="M88,17.74a.36.36,0,0,0,.14,0,86.79,86.79,0,0,1,11-1.38.75.75,0,0,0-.07-1.49,85.86,85.86,0,0,0-11.24,1.4A.75.75,0,0,0,88,17.74Z"/><path class="cls-1" d="M132.08,21a83.75,83.75,0,0,1,10.22,4.41.68.68,0,0,0,.34.08.74.74,0,0,0,.34-1.41,84.49,84.49,0,0,0-10.4-4.49.75.75,0,1,0-.5,1.41Z"/><path class="cls-1" d="M19.75,96.51a.75.75,0,0,0,.74-.71,83.26,83.26,0,0,1,1.28-11,.77.77,0,0,0-.61-.88.76.76,0,0,0-.87.61A87.9,87.9,0,0,0,19,95.72a.76.76,0,0,0,.71.79Z"/><path class="cls-1" d="M23.55,74.44a1,1,0,0,0,.24,0,.74.74,0,0,0,.53-.23H55.59l-.3-2c-.57-3.65-1.41-9.59-1.41-10.93,0-3.22-6.52-7.15-10.18-7.5V32.33a7.29,7.29,0,0,0-2.55-5.45h0a11.91,11.91,0,0,0,.05-4.55c-8.37-1-14.56,0-18.61,1.32-4.71.51-10,2.4-10.29,9.39v.54c0,.2,0,.62,0,1.17,0,2.44.13,6.68.34,7.63A8.08,8.08,0,0,0,13,43.49c.06,4.14.1,8.38.08,10.6a19.83,19.83,0,0,0-9,5.94c-.66.93-.88,2.4-1.19,4.44A28.93,28.93,0,0,1,1.1,71.79L0,74.25H23.25A.67.67,0,0,0,23.55,74.44Zm17-40.87c0,.92-.09,8-.26,8.89-.75,3.66-3.76,6.28-7,7.77a15.08,15.08,0,0,1-6,1.46,15.37,15.37,0,0,1-6.91-2.42c.14-5.3.28-12.27.43-12.28,6.51-.44,11.63-1.61,15.14-3.63a12.57,12.57,0,0,0,3-2.28,7.71,7.71,0,0,0,.94-1.21A8.86,8.86,0,0,1,40.54,33.57ZM23.7,53.66v-.92a11.4,11.4,0,0,0,3.59.7,16.27,16.27,0,0,0,6-1.27V54a17.32,17.32,0,0,0-1.9,2.57,25.49,25.49,0,0,1-1.92,2.69,54.45,54.45,0,0,1-5.62-5.49ZM5.54,61c1-1.4,6-5.52,9.91-5.52,1.41,0,4.67-.54,7.08-.54,1,1.08,5.2,5.64,7,6.44,1.21-.52,2.58-2.79,3.73-4.51a10.38,10.38,0,0,1,1.37-1.78c2,0,7.6.41,8.57.41a3.08,3.08,0,0,1,.51,0c3.17.36,8.43,3.89,8.43,5.74s1.42,11.21,1.42,11.21H2.69C4.72,68,4.56,62.42,5.54,61Z"/><path class="cls-1" d="M21.59,118.84a.52.52,0,0,0,.17,0,.76.76,0,0,0,.57-.89,84.87,84.87,0,0,1-1.66-11,.74.74,0,1,0-1.48.12,82.68,82.68,0,0,0,1.68,11.2A.74.74,0,0,0,21.59,118.84Z"/><path class="cls-1" d="M66.79,24.88a.88.88,0,0,0,.34-.08,82.28,82.28,0,0,1,10.28-4.24.75.75,0,0,0-.48-1.43,86.67,86.67,0,0,0-10.47,4.32.75.75,0,0,0,.33,1.43Z"/><path class="cls-1" d="M110.34,16.43a83.49,83.49,0,0,1,11,1.55h.15a.75.75,0,0,0,.15-1.48,84.37,84.37,0,0,0-11.22-1.57.73.73,0,0,0-.79.69A.74.74,0,0,0,110.34,16.43Z"/><path class="cls-1" d="M48.2,37.36a.74.74,0,0,0,.49-.18,85.46,85.46,0,0,1,8.81-6.81.75.75,0,0,0-.83-1.24,84.73,84.73,0,0,0-9,6.93.74.74,0,0,0-.07,1A.75.75,0,0,0,48.2,37.36Z"/><path class="cls-1" d="M124.14,181.28a84.58,84.58,0,0,1-11,1.91.77.77,0,0,0-.67.83.75.75,0,0,0,.75.67h.08a85.55,85.55,0,0,0,11.15-2,.76.76,0,0,0,.56-.91A.75.75,0,0,0,124.14,181.28Z"/><path class="cls-1" d="M80.13,180.19a82.22,82.22,0,0,1-10.43-3.9.76.76,0,0,0-.62,1.38,86.79,86.79,0,0,0,10.62,4l.21,0a.75.75,0,0,0,.22-1.46Z"/><path class="cls-1" d="M102.06,183.66a85.28,85.28,0,0,1-11.08-1,.75.75,0,1,0-.23,1.48,86.29,86.29,0,0,0,11.27,1h0a.75.75,0,0,0,0-1.49Z"/><path class="cls-1" d="M144.79,173.16a86.17,86.17,0,0,1-10,4.75.75.75,0,0,0,.28,1.44.68.68,0,0,0,.27,0,83.74,83.74,0,0,0,10.23-4.84.74.74,0,0,0,.3-1A.76.76,0,0,0,144.79,173.16Z"/><path class="cls-1" d="M59.88,171.05l-1-.62V160.32c0-.89,0-2.54-7.42-5.63-3.21-1.34-7.34-2.69-9.31-2.69H40.44c3.37-1.77,6.34-4.67,7.14-8.63.25-1.19.31-9.16.31-9.24a10,10,0,0,0-1.51-5.65,10.29,10.29,0,0,0,.41-5.62c-8.36-.9-14.56-.09-18.77,1.36-4.79.55-10.13,2.56-10.13,9.91,0,.07.07,7.51.36,8.8.89,4,4.42,7.17,8,9.07h-2.7c-4.34,0-14.42,5-15.86,7.05-1,1.38-.91,3.65-.72,7.9.06,1.49.13,3,.13,4.58v1.75H58.91v-1.07l.18.11a.69.69,0,0,0,.39.12.76.76,0,0,0,.64-.36A.74.74,0,0,0,59.88,171.05ZM20,142.55c-.13-.56-.22-3.23-.27-5.44,2.71,0,5.24-.08,7.59-.27.54,0,1.07-.08,1.59-.14,8.28-.8,13.94-2.85,16.52-6.42a8.89,8.89,0,0,1,.75,3.85c0,.92-.09,8-.27,8.89-1.24,6-8.59,9.23-13,9.23C29.53,152.25,21.27,148.48,20,142.55ZM29,153.21a12.13,12.13,0,0,0,3.87.79,14.3,14.3,0,0,0,3.59-.49c-.53.62-1.08,1.42-1.72,2.35-.46.67-1.14,1.65-1.69,2.3-.75-.79-1.75-2.08-2.37-2.88s-1.23-1.57-1.68-2.07h0Zm28.14,18.32H8.87c0-5-.7-10.09.28-11.49s10.5-6.29,14.42-6.29h3.35c.81,0,4.41,5.87,6.21,6.67,1.75-.74,4.59-6.67,5.87-6.67h3.18c3.08,0,15,4.62,15,6.57v11.21Z"/><path class="cls-1" d="M189.42,99.69h.09a.76.76,0,0,0,.65-.75,87.63,87.63,0,0,0-.81-11.3.73.73,0,0,0-.84-.63.76.76,0,0,0-.65.84,84.45,84.45,0,0,1,.81,11.1A.76.76,0,0,0,189.42,99.69Z"/><path class="cls-1" d="M187.21,112.23a85.14,85.14,0,0,1-2.67,10.8.75.75,0,0,0,.48,1,.77.77,0,0,0,.3,0,.74.74,0,0,0,.64-.52,84.93,84.93,0,0,0,2.72-11,.76.76,0,0,0-.61-.87A.73.73,0,0,0,187.21,112.23Z"/><path class="cls-1" d="M192.59,54.13c-3.22-1.34-7.34-2.69-9.32-2.69h-1.75c3.38-1.76,6.35-4.66,7.16-8.63.24-1.19.3-9.16.3-9.24a9.8,9.8,0,0,0-1.52-5.64,10.14,10.14,0,0,0,.42-5.63c-8.36-.9-14.57-.09-18.78,1.36-4.79.55-10.11,2.57-10.11,9.91v1.15c-2-1.71-4.13-3.32-6.29-4.83a.74.74,0,0,0-1,.18.75.75,0,0,0,.18,1.05,87.89,87.89,0,0,1,7.2,5.6,54.36,54.36,0,0,0,.3,5.65c.9,4,4.42,7.17,8,9.07h-2.7c-4.34,0-14.42,5-15.85,7.05-1,1.38-.91,3.65-.73,7.9.06,1.49.13,3,.13,4.58v1.75h35.13c.29.82.56,1.65.81,2.48a.75.75,0,0,0,.71.52.9.9,0,0,0,.23,0,.76.76,0,0,0,.49-1c-.21-.68-.43-1.36-.67-2H200v-13C200,58.87,200,57.22,192.59,54.13ZM161.05,42a34.44,34.44,0,0,1-.23-3.77c0-.56,0-1.12,0-1.67h.33c13.15,0,21.95-2.09,25.37-6.83a8.92,8.92,0,0,1,.75,3.85c0,.92-.09,8-.26,8.89-1.24,6-8.6,9.23-13,9.23C170.63,51.69,162.37,47.92,161.05,42ZM174,53.44a14.51,14.51,0,0,0,3.61-.49c-.54.63-1.09,1.43-1.73,2.35-.47.67-1.14,1.65-1.68,2.3-.77-.79-1.76-2.08-2.39-2.88s-1.21-1.56-1.67-2.07A12.08,12.08,0,0,0,174,53.44ZM198.25,71H150c0-5-.7-10.09.28-11.49s10.5-6.29,14.42-6.29H168c.81,0,4.42,5.87,6.21,6.67,1.75-.74,4.59-6.67,5.88-6.67h3.17c3.09,0,15,4.62,15,6.57Z"/><path class="cls-1" d="M196.3,159.22c0-3.22-6.51-7.15-10.18-7.5V130.25a7.29,7.29,0,0,0-2.55-5.45,12,12,0,0,0,.05-4.56c-8.36-1-14.55,0-18.6,1.32-4.71.5-10,2.4-10.28,9.39,0,.18,0,.36,0,.54s0,.62,0,1.17c0,2.44.13,6.68.34,7.63a7.72,7.72,0,0,0,.34,1.16c.05,4.13.1,8.34.08,10.56a19.83,19.83,0,0,0-9,5.94c-.65.93-.88,2.4-1.2,4.44a28.93,28.93,0,0,1-1.82,7.32l-1.1,2.46H198l-.31-2C197.14,166.5,196.3,160.56,196.3,159.22ZM183,131.49c0,.92-.09,8-.27,8.89-.75,3.66-3.76,6.28-7,7.77a14.87,14.87,0,0,1-6,1.46,15.4,15.4,0,0,1-6.91-2.43c.14-5.3.28-12.26.43-12.27,6.49-.45,11.63-1.61,15.13-3.61a12.34,12.34,0,0,0,3-2.3,9.81,9.81,0,0,0,.95-1.2A9,9,0,0,1,183,131.49Zm-16.84,20.09v-.91a12,12,0,0,0,3.59.69,16.4,16.4,0,0,0,5.95-1.26v1.83a17.35,17.35,0,0,0-1.89,2.57,28.36,28.36,0,0,1-1.93,2.69,53.57,53.57,0,0,1-5.61-5.49Zm-21,18.84c2-4.54,1.88-10.08,2.86-11.48s6-5.52,9.9-5.52c1.4,0,4.66-.54,7.07-.54,1,1.08,5.2,5.64,7,6.44,1.2-.52,2.58-2.79,3.72-4.51A11.38,11.38,0,0,1,177,153c2,0,7.6.41,8.57.41a3,3,0,0,1,.51,0c3.18.36,8.43,3.89,8.43,5.74s1.43,11.2,1.43,11.2Z"/><path class="cls-1" d="M129.08,104.23a12.31,12.31,0,0,0,12.29-12.29V77.45a12.31,12.31,0,0,0-12.29-12.3H98.75a12.37,12.37,0,0,0-11.33,7.56H71.81L76,75.86l10.43,7.8v7.25H71.53a12.32,12.32,0,0,0-12.3,12.3V117.7A12.32,12.32,0,0,0,71.53,130h30.33a12.4,12.4,0,0,0,11.34-7.57h15.6l-4.22-3.15-10.42-7.8v-7.25Zm-52-29.77H88.64A10.58,10.58,0,0,1,98.75,66.9h30.33a10.58,10.58,0,0,1,10.54,10.55V91.94a10.57,10.57,0,0,1-10.54,10.54H98.75a10.58,10.58,0,0,1-10.52-9.82c0-.23,0-.48,0-.72V82.79Zm46.46,46.22H112a10.58,10.58,0,0,1-10.1,7.57H71.53A10.58,10.58,0,0,1,61,117.7V103.21A10.58,10.58,0,0,1,71.53,92.66h15a12.31,12.31,0,0,0,12.27,11.57h13.66v8.13Z"/><rect class="cls-1" x="84.95" y="116.36" width="3.66" height="3.64" rx="1.47"/><path class="cls-1" d="M91.54,102.69a4.93,4.93,0,0,0-1.78-.93,8.47,8.47,0,0,0-2.41-.32,8.63,8.63,0,0,0-1.12.07c-.39,0-.77.11-1.14.19A7.16,7.16,0,0,0,84,102a6.1,6.1,0,0,0-.92.35c-1.12.5-.84,3,0,2.62a15.06,15.06,0,0,1,1.8-.61,8.37,8.37,0,0,1,2.06-.26,3.21,3.21,0,0,1,2.08.56,1.77,1.77,0,0,1,.67,1.46,2,2,0,0,1-.14.75,1.9,1.9,0,0,1-.37.59,2.8,2.8,0,0,1-.53.5c-.21.15-.42.31-.65.46s-.66.43-1,.67a5.31,5.31,0,0,0-.92.86,4.87,4.87,0,0,0-.68,1.21,5.06,5.06,0,0,0-.26,1.72c0,.07,0,.17,0,.29s0,.23,0,.31c0,1.06,3,.91,3,0v-.21a2.84,2.84,0,0,1,.24-1.23,2.92,2.92,0,0,1,.62-.88,5.12,5.12,0,0,1,.85-.67c.33-.2.64-.41,1-.63a9.53,9.53,0,0,0,.81-.61,3.92,3.92,0,0,0,.69-.77,3.69,3.69,0,0,0,.47-1,4.42,4.42,0,0,0,.18-1.39,4.37,4.37,0,0,0-.39-1.9A3.85,3.85,0,0,0,91.54,102.69Z"/><path class="cls-1" d="M112.63,94.5a.57.57,0,0,0,.85-.07L127,78c.54-.67-.22-1.66-.85-1.1L113,88.57a.56.56,0,0,1-.61.11L105,85.58c-.68-.28-1.18.76-.61,1.29Z"/></svg>