<svg id="Camada_1" data-name="Camada 1" xmlns="http://www.w3.org/2000/svg" viewBox="0 0 200 200"><defs><style>.cls-1{fill:#85c440;}</style></defs><title>ensino_hibrido</title><path class="cls-1" d="M163,173.44h-.79v-.08c0-.36,0-.71,0-1.07a10.52,10.52,0,0,0-3.11-16.94,91.83,91.83,0,0,0-8.62-19.57c-.31-.53-.63-1.07-.95-1.59h5c5.79,0,9.28-5.14,9.28-8.57V67.39c0-8.87-6.33-11.69-12.88-11.69H139.82a18.58,18.58,0,0,0-3.15-1c-.53-3.29.69-7.3-.9-10.06-1.76-3-6.39-3.87-8.85-6.32s-3.3-7.09-6.32-8.85-7.42-.15-10.83-1.05c-2.6-.71-5-3.1-7.73-4.08a1,1,0,0,0-.74-.39.34.34,0,0,0,0,.15h0V0H99V24.05h0L99,24a1.69,1.69,0,0,0-.77.23c-2.88.83-5.48,3.5-8.26,4.25-3.4.9-7.83-.67-10.81,1.05s-3.88,6.39-6.33,8.85-7.1,3.3-8.84,6.32-.16,7.42-1.07,10.83-4.48,6.33-4.48,9.9S62,72,62.91,75.33a10.3,10.3,0,0,1,.3,2.46,2.86,2.86,0,0,1,0,.77c0,2.67-.45,5.48.76,7.58a6,6,0,0,0,1.39,1.62A37.05,37.05,0,0,0,85,108.66a32.61,32.61,0,0,0-11.48,2.82c-8.32,3.42-17.14,12.28-24.19,24.3a91.57,91.57,0,0,0-8.64,19.65h0a10.51,10.51,0,0,0-3.07,16.71l-.06,1.22v.08H37A2.55,2.55,0,0,0,34.41,176v3.64A2.55,2.55,0,0,0,37,182.16H99V200h2.22V182.16H163a2.55,2.55,0,0,0,2.55-2.54V176A2.55,2.55,0,0,0,163,173.44ZM106.57,93.72A5.52,5.52,0,0,1,101,99.23v-11A5.52,5.52,0,0,1,106.57,93.72Zm-5.33-38V40.47A34.51,34.51,0,0,1,128.55,55.7Zm-56,117.51a8.28,8.28,0,0,1-5.35-2,8.39,8.39,0,0,1-2-2.53,8.14,8.14,0,0,1-.94-3.81,8.29,8.29,0,0,1,2.44-5.86,4.17,4.17,0,0,1,.38-.34,7.87,7.87,0,0,1,2.74-1.61,8.05,8.05,0,0,1,2.74-.48H62.27l.33.1a.65.65,0,0,1,0-.1h1.7a11.67,11.67,0,0,0,2.38,16.59Zm47-1.36a10.54,10.54,0,0,1-1.66.79l-.6.2a10.17,10.17,0,0,1-1.59.32c-.34,0-.69.05-1,.05H73.55a9.45,9.45,0,0,1-8.7-13.11c.13-.28.26-.56.41-.82s.3-.53.46-.78a11.2,11.2,0,0,1,1.16-1.4,4.69,4.69,0,0,1,.52-.48,6.54,6.54,0,0,1,.51-.41h0a5.12,5.12,0,0,1,.56-.39,5.86,5.86,0,0,1,.72-.42l.46-.23h0a5.36,5.36,0,0,1,.62-.25c.19-.07.38-.14.57-.19l.31-.09a7.65,7.65,0,0,1,1.16-.22,5.9,5.9,0,0,1,.59-.06l.61,0H87.31c.26,0,.52,0,.77,0s.52.06.77.1a8.76,8.76,0,0,1,1.62.42.09.09,0,0,1,.07,0,5.18,5.18,0,0,1,.7.29,5.77,5.77,0,0,1,.56.27,9.49,9.49,0,0,1,2.66,2.17c.14.16.27.32.4.5a1.12,1.12,0,0,1,.16.22,4.93,4.93,0,0,1,.4.61,6.37,6.37,0,0,1,.39.73,6.66,6.66,0,0,1,.31.73s0,.08,0,.11c.07.2.14.41.2.61a2.86,2.86,0,0,1,.07.28c.06.19.1.39.14.58,0,0,0,.09,0,.13a8.93,8.93,0,0,1,.14,1.64,9.36,9.36,0,0,1-.74,3.67c-.12.28-.26.56-.4.83s-.3.52-.47.78a10.32,10.32,0,0,1-1.15,1.4,10,10,0,0,1-1.22,1C92.59,171.6,92.4,171.72,92.2,171.85Zm5.71,1.59H93.83a11.66,11.66,0,0,0,4.08-4.84Zm0-14.51a11.67,11.67,0,0,0-10-6.82l-7.19-18.05a2.22,2.22,0,1,0-4.12,1.64l6.53,16.4H73.55a11.59,11.59,0,0,0-7,2.3H63.34c.91-2.65,2.53-6.82,4.18-8.72l-1.69-1.45c-2.06,2.39-3.93,7.5-4.82,10.17H45.22a10.54,10.54,0,0,0-2,.18c6-18.6,18.94-36,31.1-41,4.87-2,8.4-2.67,11.28-2.67,4.87,0,7.87,1.87,12.28,2.28ZM99,109.15l-1.11.33v0l-.63,0c-.56,0-1.13-.09-1.68-.17h-.13c-.5-.06-1-.14-1.52-.23l-.21,0c-.48-.08-.95-.18-1.42-.29a2,2,0,0,1-.26-.06c-.45-.1-.91-.21-1.36-.34l-.29-.08c-.49-.13-1-.29-1.45-.45s-1-.34-1.48-.53l-.28-.11c-.44-.17-.86-.34-1.28-.53s-1-.48-1.56-.74-.82-.42-1.23-.65c-.17-.08-.31-.17-.47-.26l-1-.62c-.43-.27-.84-.53-1.24-.81l-.52-.37-1.09-.8c-.41-.32-.81-.64-1.2-1-.88-.75-1.72-1.53-2.51-2.35-.36-.36-.69-.73-1-1.1s-.73-.83-1.06-1.25-.68-.85-1-1.3-.63-.88-1-1.33c0,0,0,0,0,0-.29-.46-.57-.92-.85-1.38s-.56-1-.81-1.44l-.2-.37h0c.06.13.12.26.19.38-.07-.12-.13-.25-.19-.38h0l0-.1h0a.08.08,0,0,1,0,0l-.06-.13s0-.11-.08-.16a.2.2,0,0,0,0,.08v0a.83.83,0,0,0-.07-.13h0c-.09-.16-.18-.33-.26-.5a2.56,2.56,0,0,1-.11-.24h0l0-.06c-.43-.91-.83-1.85-1.17-2.8,0-.09-.07-.18-.09-.26-.17-.44-.31-.9-.45-1.36a.64.64,0,0,1-.06-.18c-.16-.48-.29-1-.41-1.46a32.59,32.59,0,0,1-.7-3.46c-.09-.56-.16-1.13-.21-1.7s-.1-1.13-.14-1.7v0c0-.59,0-1.17,0-1.76a34.85,34.85,0,0,1,.93-8s0,0,0,0a9.75,9.75,0,0,1,.9,2.35c.5,1.58,1.16,3.75,1.81,5.85l.83,2.7c.14.42.26.83.38,1.21.19.57.36,1.08.51,1.51.1.28.25.7.44.79.5.26.72-.34.73-.36.39-1.17-2-21.65-1.47-22.74a28.28,28.28,0,0,1,2.54-4.31c.4-.56.81-1.1,1.24-1.63.22-.27.44-.53.68-.79a10.27,10.27,0,0,1,.7-.78c.23-.26.48-.5.73-.76l.71-.69c.28-.25.56-.51.85-.75s.53-.47.81-.69l.86-.68c.28-.21.57-.43.87-.63s.6-.42.9-.62.62-.4.94-.59.5-.31.76-.46a29.58,29.58,0,0,1,3.33-1.67l.94-.39.92-.35a6,6,0,0,1,.68-.23c.35-.13.71-.24,1.07-.35a.62.62,0,0,1,.16,0c.33-.1.66-.2,1-.28a.28.28,0,0,1,.13,0l.86-.21.8-.17h0c.34-.08.69-.15,1-.2.11,0,.22,0,.33-.06.3,0,.59-.09.89-.12s.67-.09,1-.12.44,0,.65-.07.63-.06,1-.07l1.15,0H99v68.7ZM124.38,172a2.22,2.22,0,0,1-1.44,2.08l-.25.1a2.21,2.21,0,0,1-.84.17,2.33,2.33,0,0,1-.73-.12H100.73V172h21.1c-.25-1.82-2.74-20.39-2.85-21.12h0c-.33-2.19-.66-4.42-1-6.59-.11-.73-.22-1.45-.32-2.16-.22-1.43-.42-2.82-.62-4.15s-.4-2.61-.58-3.8h0c-.55-3.71-1-6.66-1.22-8.14-.66-4.37-4.48-7.1-7.09-7.1h-7.44v-2.22h7.44c3.83,0,8.48,3.61,9.29,9l.18,1.19c.24,1.63.61,4.06,1,7a3.26,3.26,0,0,1,0,.33h28.16a89.75,89.75,0,0,1,9.64,20.36,10.78,10.78,0,0,0-1.81-.15H139.08c-.76-2.42-2.68-8-5-10.54l-1.64,1.5c1.79,2,3.44,6.52,4.26,9h-1.53a11.64,11.64,0,0,0-8.32-3.51h-5.67c0,.41.16,1.17.3,2.23h5.37a9.49,9.49,0,0,1,7.32,3.5A9.42,9.42,0,0,1,126.9,172Zm35.54-.65a8.21,8.21,0,0,1-5.2,1.85H131.66a11.64,11.64,0,0,0,5.27-16.59h17.79a7.88,7.88,0,0,1,2.58.42,8,8,0,0,1,2.7,1.49,8.28,8.28,0,0,1-.08,12.83Z"/></svg>