<svg id="Camada_1" data-name="Camada 1" xmlns="http://www.w3.org/2000/svg" viewBox="0 0 200 200"><defs><style>.cls-1{fill:#85c440;}</style></defs><title>ensino_personalizado</title><path class="cls-1" d="M77.43,135.94c-1-6.07-13.32-11.07-29.62-12.43.87,2.47-4.88,8.88-9.25,8.88s-10.79-6.25-9-8.84C13.5,125,1.39,129.92.39,135.94h0A4.56,4.56,0,0,0,0,137.79v20.07a4.53,4.53,0,0,0,4.52,4.51h9.35V148.61a1.61,1.61,0,0,1,.69-1.31,1.56,1.56,0,0,1,.92-.3,1.61,1.61,0,0,1,1.46.93,1.58,1.58,0,0,1,.16.68v13.76H62.6V148.61a1.64,1.64,0,0,1,.68-1.32h0c.32-.09.63-.18.94-.29h0a1.62,1.62,0,0,1,1.58,1.61v13.76h7.49a4.53,4.53,0,0,0,4.52-4.51V137.79a4.41,4.41,0,0,0-.4-1.84Z"/><path class="cls-1" d="M38.58,125.47a21.63,21.63,0,0,0,8.91-2l.32,0a.35.35,0,0,0-.06-.14,25.91,25.91,0,0,0,7-4.83,31.86,31.86,0,0,0,8.66-15.28,6.61,6.61,0,0,0,4.78-6.58A6.76,6.76,0,0,0,64,90.27a26.88,26.88,0,0,0-.53-2.73C64.52,80.4,61.5,77.49,62,76.68a19.45,19.45,0,0,0,2.32-6.15c.85-4.47-2.34-9.87-7.65-14.09-10.51,7.72-35.45,5.81-35.45,5.81C17,62.25,12,77.62,12,82.18l2.06,6.54c-.1.45-.18.91-.25,1.37A6.6,6.6,0,0,0,9,96.68c0,3.45,2.35,6.32,5.36,6.68a32.54,32.54,0,0,0,8.35,15.16,24.53,24.53,0,0,0,7,4.93.58.58,0,0,0-.08.1l.23,0A20.76,20.76,0,0,0,38.58,125.47ZM15.67,101.79H15c-2.43,0-4.41-2.3-4.41-5.11s1.94-5.07,4.33-5.11l1.65,5.24c0,4.55.4-15.9,4.62-15.9,0,0,25.44,3,36.33-.36.72-.22,1.6,6.37,2.77,16.34a40.79,40.79,0,0,0,2.17-5.43.49.49,0,0,1,0,.12c2.26.22,4,2.43,4,5.1s-2,5.11-4.42,5.11h-.07c-2,9.4-8.2,17.46-16.13,20.62a19.65,19.65,0,0,1-7.35,1.45,18.12,18.12,0,0,1-4.67-.6,17,17,0,0,1-2.39-.76C23.63,119.39,17.63,111.27,15.67,101.79Z"/><path class="cls-1" d="M102,69.92c-.08-.08-.07,0,0,0Z"/><path class="cls-1" d="M106.86,62.05c-1.07,1-2.89,1.56-5.34,1.78l-.45,0a8.46,8.46,0,0,0-.08,1.44c0,.89,0,2.07-.08,3,0,.08,1.12.44,1.12.52,0,.32,0,.73,0,1a3.91,3.91,0,0,0,1.35.32c1.46,0,3.93-1.07,4.34-3.09.06-.29.09-2.67.09-3A2.37,2.37,0,0,0,106.86,62.05Z"/><path class="cls-1" d="M97.19,82h28.64a9.69,9.69,0,0,0,9.66-9.67V69.18h16.89v-5.1h8.28a7.9,7.9,0,0,0,5.6-2.32,8.21,8.21,0,0,0,1.39-1.86h6.11v5h-6.23a7.92,7.92,0,1,0,0,15.84h8.56a7.92,7.92,0,1,0,0-15.84h-.71V58.29h-7.09a7.83,7.83,0,0,0,.3-2.13,8,8,0,0,0-7.93-7.92H152.1A7.92,7.92,0,0,0,150.77,64v3.6H135.49V60.5a9.69,9.69,0,0,0-9.66-9.66H97.19a9.69,9.69,0,0,0-9.67,9.66V72.31A9.7,9.7,0,0,0,97.19,82Zm81.69-4.58h-8.62a.88.88,0,0,1-.88-.88.89.89,0,0,1,.88-.9h8.62a.9.9,0,0,1,.89.9A.89.89,0,0,1,178.88,77.4Zm0-3.27h-8.62a.88.88,0,0,1-.88-.88.89.89,0,0,1,.88-.9h8.62a.9.9,0,0,1,.89.9A.89.89,0,0,1,178.88,74.13Zm0-5a.9.9,0,0,1,.89.9.88.88,0,0,1-.89.88h-8.62a.87.87,0,0,1-.88-.88.89.89,0,0,1,.88-.9ZM151.21,53.9h8.13a1.13,1.13,0,1,1,0,2.26h-8.13a1.13,1.13,0,1,1,0-2.26Zm-1.14,4.72a1.14,1.14,0,0,1,1.14-1.13h8.13a1.11,1.11,0,0,1,1.07.8,1,1,0,0,1,.06.33,1.14,1.14,0,0,1-1.13,1.13h-8.13a1.08,1.08,0,0,1-.44-.09A1.13,1.13,0,0,1,150.07,58.62ZM119.14,58H128a1.13,1.13,0,1,1,0,2.26h-8.89a1.13,1.13,0,0,1,0-2.26Zm0,5.54H128a1.14,1.14,0,0,1,0,2.27h-8.89a1.14,1.14,0,0,1,0-2.27Zm0,6.25H128a1.14,1.14,0,0,1,0,2.27h-8.89a1.14,1.14,0,0,1,0-2.27ZM96,71.65A6.1,6.1,0,0,1,98.47,70c0-1.72-.09-7.25-.06-7.67A3.31,3.31,0,0,1,100,60c.79-.68,3.42-1.89,7.93-1.34a4,4,0,0,1-.24,2.27,1.93,1.93,0,0,1,1.07,1.53v7.34c1.07.12,2.83,1.3,2.83,1.92s.47,3.75.47,3.75H95C95.67,74,95.62,72.13,96,71.65Z"/><path class="cls-1" d="M192.08,90.58h-8.56a7.94,7.94,0,0,0-5.59,2.33,8.11,8.11,0,0,0-2.12,3.79H159.7v5.74h-7.6a7.89,7.89,0,0,0-5.59,2.33,7.81,7.81,0,0,0-1.91,3.08h-9.11v-6.5a9.69,9.69,0,0,0-9.66-9.66H97.19a9.69,9.69,0,0,0-9.67,9.66v11.81a9.7,9.7,0,0,0,9.67,9.67h28.64a9.69,9.69,0,0,0,9.66-9.67v-3.7h8.74c0,.3,0,.6,0,.9a8,8,0,0,0,7.92,7.93h8.56a7.93,7.93,0,0,0,.65-15.83V98.32H175.6v.19a8,8,0,0,0,7.92,7.92h8.56A8,8,0,0,0,200,98.51,8,8,0,0,0,192.08,90.58Zm-94,10.14c.21-.34.15-1,.5-1.24s.92,0,1.32-.25.6-.75,1-.87.91.28,1.33.22.8-.55,1.23-.55.83.49,1.24.55.94-.33,1.33-.22.66.7,1,.87,1,0,1.33.25.29.9.49,1.24.79.65.79,1.07-.57.7-.79,1.07-.15.8-.38,1.11h0a3.39,3.39,0,0,1,0,.45,5,5,0,1,1-10.09,0,3.39,3.39,0,0,1,0-.45h0c-.23-.31-.2-.82-.38-1.11s-.79-.65-.79-1.07S97.89,101.09,98.11,100.72Zm-2.39,15.21c0-3.45,3.49-6.25,7.79-6.25s7.8,2.8,7.8,6.25Zm31.61-1.57H114.1a1.13,1.13,0,0,1,0-2.26h13.23a1.13,1.13,0,1,1,0,2.26Zm0-6.25H114.1a1.14,1.14,0,0,1,0-2.27h13.23a1.14,1.14,0,1,1,0,2.27Zm0-5.54H114.1a1.14,1.14,0,0,1,0-2.27h13.23a1.14,1.14,0,1,1,0,2.27Zm35.87,7.86H150a.89.89,0,0,1-.88-.89.22.22,0,0,1,0-.08.88.88,0,0,1,.87-.81H163.2a.89.89,0,1,1,0,1.78Zm0-5a.89.89,0,1,1,0,1.77H150a.89.89,0,0,1,0-1.77H163.2Zm31.63-2.69h-5.47a.88.88,0,0,1-.89-.88.9.9,0,0,1,.89-.9h5.47a.9.9,0,0,1,.89.9A.88.88,0,0,1,194.83,102.7Zm0-2.9h-5.47a.9.9,0,0,1-.89-.9.89.89,0,0,1,.89-.88h5.47a.89.89,0,0,1,.89.88A.9.9,0,0,1,194.83,99.8Zm0-2.91H181.3a.89.89,0,0,1,0-1.78h13.53a.89.89,0,0,1,0,1.78Z"/><path class="cls-1" d="M103.51,108.68a4.25,4.25,0,0,0,4.25-4.25,1.28,1.28,0,0,0,0-.19,1.88,1.88,0,0,0-.65.11c-.36.17-.6.76-1,.87s-.91-.27-1.33-.21-.8.54-1.24.54-.82-.5-1.23-.54-.93.32-1.33.21-.66-.7-1-.87a1.88,1.88,0,0,0-.65-.11,1.28,1.28,0,0,0,0,.19A4.26,4.26,0,0,0,103.51,108.68Z"/><path class="cls-1" d="M139.85,148.11v-7.79h2.51a8,8,0,0,0,7.88,7.12h8.56a7.92,7.92,0,1,0,0-15.84h-8.56a7.94,7.94,0,0,0-7.88,7.11h-4.12v8.6h-2.75V142.2a9.69,9.69,0,0,0-9.66-9.66H97.19a9.69,9.69,0,0,0-9.67,9.66V154a9.7,9.7,0,0,0,9.67,9.67h28.64a9.69,9.69,0,0,0,9.66-9.67v-5.09h2.75v9.35h4.12a8,8,0,0,0,7.88,7.12h8.56a7.92,7.92,0,1,0,0-15.84h-8.56a7.94,7.94,0,0,0-7.88,7.11h-2.51v-8.55Zm12.07-4.06h-4.5a.89.89,0,1,1,0-1.78h4.5a.89.89,0,0,1,0,1.78Zm4.71-9.15h4.5a.89.89,0,0,1,0,1.78h-4.5a.89.89,0,0,1,0-1.78Zm0,7.37h4.5a.89.89,0,0,1,0,1.78h-4.5a.89.89,0,0,1,0-1.78Zm-9.21-7.37h4.5a.89.89,0,0,1,0,1.78h-4.5a.89.89,0,1,1,0-1.78Zm0,3.56h4.5a.87.87,0,0,1,.88.88.89.89,0,0,1-.88.9h-4.5a.91.91,0,0,1-.9-.9.9.9,0,0,1,.9-.88Zm-33.32,3h13.23a1.14,1.14,0,1,1,0,2.27H114.1a1.14,1.14,0,0,1,0-2.27ZM104.41,140a21.28,21.28,0,0,1,2.16.12,3.6,3.6,0,0,1,0,1.51,2.55,2.55,0,0,1-.42.86c-1.1,1.52-4,2.18-8.21,2.19,0-.45,0-.84,0-1a2.88,2.88,0,0,1,0-.42c0-.14,0-.26.06-.38a2.24,2.24,0,0,1,.11-.31,2.3,2.3,0,0,1,.15-.32,4.13,4.13,0,0,1,.5-.67,4.72,4.72,0,0,1,1.94-1.11l.77-.21.28,0A13.1,13.1,0,0,1,104.41,140Zm1.93,3.46a1.1,1.1,0,0,1,0,.26c0,.29,0,2.57-.09,2.84-.4,1.93-2.75,2.95-4.15,2.95-1.07,0-3.71-1.2-4.13-3.1a8.85,8.85,0,0,1-.06-.93C102.24,145.46,104.94,144.82,106.34,143.45Zm3.54,12.21H94.45c0-1.61-.23-3.22.09-3.67a10.69,10.69,0,0,1,4.6-2h1.07c.26,0,1.41,1.88,2,2.13.57-.24,1.48-2.13,1.89-2.13h1c1,0,4.79,1.47,4.79,2.1Zm17.45-.15H114.1a1.13,1.13,0,0,1,0-2.26h13.23a1.13,1.13,0,1,1,0,2.26Zm0-6.25H114.1a1.13,1.13,0,0,1,0-2.26h13.23a1.09,1.09,0,0,1,.77.31,1.11,1.11,0,0,1,.37.82,1.13,1.13,0,0,1-.32.79A1.16,1.16,0,0,1,127.33,149.26Zm33.8,11.48h-4.5a.89.89,0,0,1-.89-.9.88.88,0,0,1,.89-.88h4.5a.89.89,0,0,1,.89.88A.9.9,0,0,1,161.13,160.74Zm-13.21-8.32h13.21a.89.89,0,0,1,0,1.78H147.92a.89.89,0,0,1,0-1.78Zm-.89,4.15a.89.89,0,0,1,.89-.88h13.21a.89.89,0,1,1,0,1.78H147.92a.9.9,0,0,1-.88-.81A.22.22,0,0,1,147,156.57Z"/></svg>