<svg id="Camada_1" data-name="Camada 1" xmlns="http://www.w3.org/2000/svg" viewBox="0 0 200 200"><defs><style>.cls-1{fill:#85c440;}</style></defs><title>sala_de_aula_invertida</title><path class="cls-1" d="M169.34,39.58H29.9A11.89,11.89,0,0,0,18,51.46V129A11.89,11.89,0,0,0,29.9,140.89H169.34A11.89,11.89,0,0,0,181.22,129V51.46A11.89,11.89,0,0,0,169.34,39.58ZM179.52,129a10.22,10.22,0,0,1-10.18,10.19H29.9A10.23,10.23,0,0,1,19.71,129V51.46A10.22,10.22,0,0,1,29.9,41.28H169.34a10.21,10.21,0,0,1,10.18,10.18Z"/><path class="cls-1" d="M186.36,145.21V47.05a11.9,11.9,0,0,0-11.89-11.89H24.64A11.9,11.9,0,0,0,12.75,47.05v98.16H0V153a11.9,11.9,0,0,0,11.89,11.89H188.11A11.9,11.9,0,0,0,200,153v-7.74ZM14.45,47.05A10.22,10.22,0,0,1,24.64,36.86H174.47a10.23,10.23,0,0,1,10.19,10.19v98.16H14.45ZM198.3,153a10.22,10.22,0,0,1-10.19,10.19H11.89A10.22,10.22,0,0,1,1.7,153v-6H85.79v.43a2,2,0,0,0,2,2h24a2.45,2.45,0,0,0,1.71-.72,2.39,2.39,0,0,0,.7-1.69H198.3Z"/><path class="cls-1" d="M48.72,151.24H21.52a3.5,3.5,0,0,0-3.5,3.51V155a3.53,3.53,0,0,0,3.5,3.26h27.2A3.56,3.56,0,0,0,51.39,157a3.47,3.47,0,0,0,.79-1.7,3.68,3.68,0,0,0,0-.58A3.51,3.51,0,0,0,48.72,151.24Zm1.6,4.34-.1.18A1.88,1.88,0,0,1,50,156a.43.43,0,0,1-.1.09,1.63,1.63,0,0,1-.64.36l-.12,0-.13,0a1.36,1.36,0,0,1-.29,0H21.29l-.6-.19h0a1.38,1.38,0,0,1-.25-.17l-.05,0-.11-.11a1.78,1.78,0,0,1-.48-.83l0-.13a.08.08,0,0,1,0,0,2.45,2.45,0,0,1,0-.27,1.19,1.19,0,0,1,0-.33.65.65,0,0,1,.05-.2l0-.08v0a2.14,2.14,0,0,1,.1-.22l.07-.11a1.42,1.42,0,0,1,.25-.3.32.32,0,0,1,.1-.1l.2-.14.1-.07h0a1.45,1.45,0,0,1,.22-.09l.11,0,0,0h0a.86.86,0,0,1,.17,0l.14,0H48.72a1.82,1.82,0,0,1,1.81,1.81c0,.1,0,.2,0,.3l-.06.23,0,.05A1.45,1.45,0,0,1,50.32,155.58Z"/><path class="cls-1" d="M184,151.24H156.79a3.51,3.51,0,0,0-3.51,3.51,3.68,3.68,0,0,0,.05.58,3.47,3.47,0,0,0,.79,1.7,3.57,3.57,0,0,0,2.67,1.23H184a3.51,3.51,0,0,0,.63-7A3.21,3.21,0,0,0,184,151.24Zm1.81,3.51a1.82,1.82,0,0,1-1.81,1.81H156.79a1.36,1.36,0,0,1-.29,0l-.13,0-.12,0-.07,0h0a1.21,1.21,0,0,1-.2-.09,1.56,1.56,0,0,1-.35-.24.43.43,0,0,1-.1-.09,1.88,1.88,0,0,1-.22-.26l-.1-.18a1.45,1.45,0,0,1-.11-.25l0-.05-.06-.23c0-.1,0-.2,0-.3a1.82,1.82,0,0,1,1.81-1.81H184A1.82,1.82,0,0,1,185.81,154.75Z"/><path class="cls-1" d="M143.41,50.32H55.83a8.25,8.25,0,0,0-8.24,8.23v66.58a8.25,8.25,0,0,0,8.24,8.23h87.58a8.24,8.24,0,0,0,8.23-8.23V58.55A8.24,8.24,0,0,0,143.41,50.32Zm6.53,74.81a6.55,6.55,0,0,1-6.53,6.54H55.83a6.56,6.56,0,0,1-6.54-6.54V58.55A6.56,6.56,0,0,1,55.83,52h87.58a6.55,6.55,0,0,1,6.53,6.53Z"/><path class="cls-1" d="M62.45,106.82h75.3a3.52,3.52,0,0,0,3.51-3.52V59.63a3.52,3.52,0,0,0-3.51-3.52H62.45a3.52,3.52,0,0,0-3.51,3.52V103.3A3.52,3.52,0,0,0,62.45,106.82ZM60.64,59.63a1.82,1.82,0,0,1,1.81-1.82h75.3a1.83,1.83,0,0,1,1.82,1.82V103.3a1.83,1.83,0,0,1-1.82,1.82H62.45a1.82,1.82,0,0,1-1.81-1.82Z"/><path class="cls-1" d="M57,108.8l-2.49-1.3V127L57,125.69l13.22-6.94,2.86-1.5-2.86-1.51Zm-.79,15.39V110.31l13.22,6.94Z"/><rect class="cls-1" x="74.99" y="109.4" width="1.7" height="15.45"/><rect class="cls-1" x="80.73" y="109.4" width="1.7" height="15.45"/><path class="cls-1" d="M143.25,116.27H118.63v-4.58a2.73,2.73,0,0,0-2.71-2.72h-5.68a2.74,2.74,0,0,0-2.73,2.72v4.58H87.79V118h19.72v5.2a2.74,2.74,0,0,0,2.73,2.72h5.68a2.73,2.73,0,0,0,2.71-2.72V118h24.62Zm-26.31,6.9a1,1,0,0,1-1,1h-5.68a1,1,0,0,1-1-1V111.69a1,1,0,0,1,1-1h5.68a1,1,0,0,1,1,1v11.48Z"/><path class="cls-1" d="M88.2,100.06h39.73a5.65,5.65,0,0,0,5.64-5.64V72.34a5.65,5.65,0,0,0-5.64-5.64h-32A11.22,11.22,0,1,0,82.56,84.39v.66C74.71,86.87,69,92.68,69,99.57H85.9A5.68,5.68,0,0,0,88.2,100.06ZM127.93,68.4a4,4,0,0,1,3.94,3.94V94.42a4,4,0,0,1-3.94,3.94H106.55c-.65-6.63-6.62-12-14.49-13.52A11.2,11.2,0,0,0,97.23,68.4Z"/></svg>