<svg xmlns="http://www.w3.org/2000/svg" viewBox="0 0 284.17 284.17"><defs><style>.cls-1{fill:none;}.cls-2{fill:#fff;}</style></defs><title>Ativo 5</title><g id="Camada_2" data-name="Camada 2"><g id="Camada_1-2" data-name="Camada 1"><rect class="cls-1" width="284.17" height="284.17"/><path class="cls-2" d="M229.59,187.09a22.61,22.61,0,0,0-4.69.49l-14.82-22A22.5,22.5,0,0,0,185,128.33l-25.49-37.8a22.5,22.5,0,1,0-31.33.4l-21,30.45a22.5,22.5,0,0,0-24.68,35.77l-21.32,30.9a22.5,22.5,0,1,0,16,21.54,22.48,22.48,0,0,0-10.44-19l20.29-29.4A22.34,22.34,0,0,0,97.54,165l5.25,22.61a22.51,22.51,0,1,0,6-.48l-5.21-22.41a22.49,22.49,0,0,0,8.86-40.55L133,94.44a22.47,22.47,0,0,0,21.68-.28l25.58,38a22.49,22.49,0,0,0,6,35.45l-7,19.59c-.53,0-1.08-.06-1.62-.06a22.48,22.48,0,1,0,7.55,1.3l6.74-18.8a22.8,22.8,0,0,0,4.71.5,22.32,22.32,0,0,0,8.23-1.57l14.26,21.17a22.51,22.51,0,1,0,10.51-2.6Z"/></g></g></svg>