<svg xmlns="http://www.w3.org/2000/svg" viewBox="0 0 284.17 284.17"><defs><style>.cls-1{fill:none;}.cls-2{fill:#fff;}</style></defs><title>Ativo 3</title><g id="Camada_2" data-name="Camada 2"><g id="Camada_1-2" data-name="Camada 1"><rect class="cls-1" width="284.17" height="284.17"/><path class="cls-2" d="M250.64,137c-13.21-16.9-29.44-31.34-48.15-41.34A133.72,133.72,0,0,0,173,84.19c-2.57-.59-5.15-1.18-7.72-1.73s-5.2-.88-7.82-1.22l-3.93-.4c-1.31-.12-2.62-.32-3.94-.34l-3.95-.16c-1.32-.06-2.63-.12-4-.06a124,124,0,0,0-31.26,4.07A129.72,129.72,0,0,0,81.15,96.09a141,141,0,0,0-25.72,18.36,176.59,176.59,0,0,0-21.57,23.24,6.18,6.18,0,0,0-.27,8.48l.27.31a176.59,176.59,0,0,0,21.57,23.24,141,141,0,0,0,25.72,18.36,129.72,129.72,0,0,0,29.29,11.74,124,124,0,0,0,31.26,4.07c1.32.06,2.63,0,4-.06l3.95-.16c1.32,0,2.63-.22,3.94-.34l3.93-.4c2.62-.34,5.21-.81,7.82-1.22s5.15-1.14,7.72-1.73a133.72,133.72,0,0,0,29.48-11.51c18.71-10,34.94-24.44,48.15-41.34l.24-.41A9.24,9.24,0,0,0,250.64,137Zm-54.71,40a106.41,106.41,0,0,1-26,11.61,103.33,103.33,0,0,1-82.75-11A114.88,114.88,0,0,1,50.7,142.09a114.8,114.8,0,0,1,36.46-35.58,103.33,103.33,0,0,1,82.75-11,106.41,106.41,0,0,1,26,11.61,112.2,112.2,0,0,1,35.52,34.93A112.27,112.27,0,0,1,195.93,177Z"/><circle class="cls-2" cx="141.73" cy="141.81" r="37"/></g></g></svg>