<svg xmlns="http://www.w3.org/2000/svg" viewBox="0 0 284.17 284.17"><defs><style>.cls-1{fill:none;}.cls-2{fill:#fff;}</style></defs><title>Ativo 1</title><g id="Camada_2" data-name="Camada 2"><g id="Camada_1-2" data-name="Camada 1"><rect class="cls-1" width="284.17" height="284.17"/><path class="cls-2" d="M91.39,147.56A35,35,0,1,0,137,166.9,34.76,34.76,0,0,0,91.39,147.56Zm36.12,42.22a25,25,0,1,1,.17-19.14A24.86,24.86,0,0,1,127.51,189.78Z"/><path class="cls-2" d="M171.2,174.09l1.46-.59a14.39,14.39,0,0,0,7.94-18.7l-3.85-9.52a14.39,14.39,0,0,0-18.7-7.94l-1.46.59a4.32,4.32,0,0,1-4.81-1.07c-1.06-1.15-2.17-2.28-3.3-3.35a4.35,4.35,0,0,1-1-4.85l.61-1.45a14.36,14.36,0,0,0-7.6-18.83l-9.46-4A14.36,14.36,0,0,0,112.19,112l-.61,1.45a4.36,4.36,0,0,1-4.18,2.65c-1.57-.07-3.15-.09-4.71,0a4.37,4.37,0,0,1-4.11-2.73L98,111.85a14.38,14.38,0,0,0-18.7-7.94l-9.53,3.85a14.37,14.37,0,0,0-7.93,18.7l.59,1.45a4.34,4.34,0,0,1-1.07,4.82c-1.15,1.05-2.28,2.16-3.36,3.3a4.36,4.36,0,0,1-4.84,1l-1.45-.62A14.39,14.39,0,0,0,32.86,144l-4,9.46a14.37,14.37,0,0,0,7.61,18.83l1.45.62a4.36,4.36,0,0,1,2.65,4.18c-.08,1.56-.09,3.14-.05,4.71a4.33,4.33,0,0,1-2.72,4.11l-1.46.59a14.37,14.37,0,0,0-7.93,18.69l3.85,9.53a14.37,14.37,0,0,0,18.69,7.94l1.46-.59a4.34,4.34,0,0,1,4.82,1.07c1.05,1.15,2.16,2.28,3.3,3.35a4.38,4.38,0,0,1,1,4.85l-.62,1.45a14.35,14.35,0,0,0,7.61,18.83l9.46,4a14.37,14.37,0,0,0,18.83-7.61l.62-1.45A4.31,4.31,0,0,1,101.6,244c1.56.07,3.15.09,4.7,0a4.38,4.38,0,0,1,4.12,2.72l.59,1.46a14.39,14.39,0,0,0,13.31,9,14.39,14.39,0,0,0,5.38-1.05l9.53-3.85a14.39,14.39,0,0,0,7.94-18.7l-.59-1.46a4.32,4.32,0,0,1,1.07-4.81c1.15-1.06,2.28-2.17,3.35-3.3a4.34,4.34,0,0,1,4.85-1l1.45.62A14.37,14.37,0,0,0,176.13,216l4-9.46a14.38,14.38,0,0,0-7.61-18.83l-1.46-.62a4.35,4.35,0,0,1-2.64-4.18c.07-1.56.08-3.15,0-4.71A4.33,4.33,0,0,1,171.2,174.09Zm-3.74-9.27a14.37,14.37,0,0,0-9,13.66c0,1.32,0,2.65,0,4a14.37,14.37,0,0,0,8.73,13.84l1.45.62a4.37,4.37,0,0,1,2.31,5.72l-4,9.46a4.35,4.35,0,0,1-5.71,2.31l-1.46-.62a14.39,14.39,0,0,0-16,3.34c-.9,1-1.86,1.9-2.83,2.79a14.38,14.38,0,0,0-3.6,15.94l.59,1.46a4.34,4.34,0,0,1-2.41,5.68L126,246.84a4.39,4.39,0,0,1-3.34,0,4.3,4.3,0,0,1-2.34-2.38l-.59-1.46a14.4,14.4,0,0,0-13.27-9H106c-1.32,0-2.65,0-4,0a14.39,14.39,0,0,0-13.85,8.73l-.62,1.45a4.34,4.34,0,0,1-2.38,2.34,4.28,4.28,0,0,1-3.33,0l-9.46-4a4.36,4.36,0,0,1-2.31-5.72l.61-1.45a14.4,14.4,0,0,0-3.34-16c-1-.91-1.89-1.86-2.78-2.83a14.38,14.38,0,0,0-15.94-3.59l-1.46.59A4.38,4.38,0,0,1,41.52,211l-3.85-9.53a4.37,4.37,0,0,1,2.41-5.68l1.46-.59a14.4,14.4,0,0,0,9-13.66c0-1.32,0-2.65,0-4a14.42,14.42,0,0,0-8.73-13.85l-1.46-.61a4.37,4.37,0,0,1-2.31-5.72l4-9.46a4.36,4.36,0,0,1,5.72-2.31l1.45.61a14.37,14.37,0,0,0,16-3.34c.91-.95,1.86-1.89,2.83-2.78a14.38,14.38,0,0,0,3.6-15.94l-.59-1.46a4.3,4.3,0,0,1,0-3.34A4.37,4.37,0,0,1,73.51,117L83,113.18a4.3,4.3,0,0,1,3.34,0,4.37,4.37,0,0,1,2.34,2.38l.59,1.46A14.37,14.37,0,0,0,103,126c1.31,0,2.65,0,4,0a14.41,14.41,0,0,0,13.84-8.73l.62-1.45a4.36,4.36,0,0,1,5.72-2.31l9.46,4a4.36,4.36,0,0,1,2.31,5.72l-.62,1.45a14.4,14.4,0,0,0,3.34,16c1,.9,1.9,1.85,2.78,2.83a14.4,14.4,0,0,0,16,3.59l1.46-.59a4.38,4.38,0,0,1,5.68,2.41l3.85,9.53a4.38,4.38,0,0,1-2.41,5.68Z"/><path class="cls-2" d="M198.81,58.81a26.22,26.22,0,1,0,18.53,7.68A26.24,26.24,0,0,0,198.81,58.81Zm0,42.41A16.2,16.2,0,1,1,215,85,16.22,16.22,0,0,1,198.81,101.22Z"/><path class="cls-2" d="M245.2,69.77h-1.11a1.6,1.6,0,0,1-1.5-1c-.4-1.07-.84-2.14-1.31-3.18a1.6,1.6,0,0,1,.33-1.79l.79-.79a11.61,11.61,0,0,0,0-16.42l-5.14-5.14a11.61,11.61,0,0,0-16.42,0l-.8.79a1.59,1.59,0,0,1-1.79.33c-1-.48-2.11-.92-3.17-1.32a1.58,1.58,0,0,1-1-1.49V38.62A11.63,11.63,0,0,0,202.44,27h-7.26a11.63,11.63,0,0,0-11.61,11.61v1.12a1.58,1.58,0,0,1-1,1.49c-1.07.4-2.14.84-3.18,1.32a1.6,1.6,0,0,1-1.79-.33l-.79-.79a11.63,11.63,0,0,0-16.43,0l-5.13,5.14a11.61,11.61,0,0,0,0,16.42l.79.79a1.6,1.6,0,0,1,.33,1.79q-.72,1.58-1.32,3.18a1.58,1.58,0,0,1-1.49,1h-1.12a11.63,11.63,0,0,0-11.61,11.61v7.26a11.63,11.63,0,0,0,11.61,11.62h1.12a1.58,1.58,0,0,1,1.49,1c.4,1.06.84,2.13,1.32,3.17a1.61,1.61,0,0,1-.33,1.8l-.79.78a11.63,11.63,0,0,0,0,16.43l5.14,5.14a11.62,11.62,0,0,0,16.42,0l.79-.79a1.58,1.58,0,0,1,1.79-.33c1,.47,2.11.92,3.18,1.31a1.6,1.6,0,0,1,1,1.5v1.11A11.63,11.63,0,0,0,195.18,143h7.26a11.63,11.63,0,0,0,11.62-11.62v-1.11a1.6,1.6,0,0,1,1-1.5c1.06-.39,2.13-.83,3.17-1.31a1.61,1.61,0,0,1,1.8.33l.78.79a11.64,11.64,0,0,0,16.43,0l5.14-5.14a11.63,11.63,0,0,0,0-16.43l-.79-.78a1.61,1.61,0,0,1-.33-1.8c.47-1,.92-2.1,1.31-3.17a1.6,1.6,0,0,1,1.5-1h1.11a11.63,11.63,0,0,0,11.62-11.62V81.38A11.63,11.63,0,0,0,245.2,69.77Zm1.62,18.87a1.62,1.62,0,0,1-1.62,1.62h-1.11a11.64,11.64,0,0,0-10.87,7.53c-.31.84-.66,1.68-1,2.49a11.65,11.65,0,0,0,2.35,13l.79.78a1.62,1.62,0,0,1,0,2.29l-5.14,5.14a1.61,1.61,0,0,1-2.29,0l-.78-.78a11.63,11.63,0,0,0-13-2.35c-.83.37-1.66.72-2.5,1a11.64,11.64,0,0,0-7.53,10.87v1.11a1.62,1.62,0,0,1-1.62,1.62h-7.26a1.62,1.62,0,0,1-1.61-1.62v-1.11A11.64,11.64,0,0,0,186,119.42c-.83-.31-1.67-.66-2.49-1a11.39,11.39,0,0,0-4.8-1,11.65,11.65,0,0,0-8.23,3.4l-.79.79a1.61,1.61,0,0,1-2.28,0l-5.14-5.14a1.62,1.62,0,0,1,0-2.29l.79-.78a11.66,11.66,0,0,0,2.35-13c-.38-.82-.73-1.66-1-2.49a11.65,11.65,0,0,0-10.87-7.53h-1.12a1.61,1.61,0,0,1-1.61-1.62V81.38a1.61,1.61,0,0,1,1.61-1.61h1.12a11.65,11.65,0,0,0,10.87-7.54c.31-.83.65-1.67,1-2.49a11.65,11.65,0,0,0-2.35-13l-.79-.79a1.62,1.62,0,0,1,0-2.28l5.14-5.14a1.61,1.61,0,0,1,2.28,0l.79.79a11.65,11.65,0,0,0,13,2.35c.82-.37,1.66-.72,2.49-1a11.65,11.65,0,0,0,7.54-10.87V38.62A1.61,1.61,0,0,1,195.18,37h7.26a1.61,1.61,0,0,1,1.62,1.61v1.12a11.65,11.65,0,0,0,7.53,10.87c.84.31,1.68.66,2.49,1a11.63,11.63,0,0,0,13-2.35l.8-.79a1.62,1.62,0,0,1,2.28,0l5.14,5.14a1.6,1.6,0,0,1,.47,1.14,1.58,1.58,0,0,1-.48,1.14l-.78.79a11.63,11.63,0,0,0-2.35,13c.37.82.72,1.65,1,2.49a11.64,11.64,0,0,0,10.87,7.54h1.11a1.62,1.62,0,0,1,1.62,1.61Z"/></g></g></svg>