<svg xmlns="http://www.w3.org/2000/svg" viewBox="0 0 1080.5 1080.5"><defs><style>.cls-1{fill:#ffd800;}.cls-2{fill:#65bf35;}.cls-3{fill:#008bbf;}.cls-4{fill:#ff1c73;}</style></defs><title>Ativo 6</title><g id="Camada_2" data-name="Camada 2"><g id="Camada_1-2" data-name="Camada 1"><path class="cls-1" d="M530.93,334.89s0-13-7-23-14-8-19-2-19,19-44,17-40-14-40-47,7-52,31-56,35,1,51,14,28-1.81,28-17.4l.07.08V0H0V531H211.37c6.37.32,17.93,2,28.13,9.5,15,11,18,30,10,40s-20,22-18,41,20,20,36,20,38-7,35-26-10-24-17-33-9-32,10-42c14.57-7.67,35.73-9.2,44.81-9.5H531V334.88Z"/><path class="cls-2" d="M891.73,549.5h0s-30.23.43-49.23-9.57-17-33-10-42,14-14,17-33-19-26-35-26-34,1-36,20,10,31,18,41,5,29-10,40-33,9.5-33,9.5l.13.07H549.5v210c0,15.59,12,30.4,28,17.4s27-18,51-14,31,23,31,56-15,45-40,47-39-11-44-17-12-8-19,2-7,23-7,23V1080.5h531v-531Z"/><path class="cls-3" d="M615.5,777.94c-19,3-24,10-33,17s-32,9-42-10c-5.82-11.06-8.11-25.92-9-36.42v-199H320.9c-15.59,0-30.4,12-17.4,28s18,27,14,51-23,31-56,31-45-15-47-40,11-39,17-44,8-12-2-19-23-7-23-7H.5v531h531V863.91a51,51,0,0,1,9-23c11-15,30-18,40-10s22,20,41,18,20-20,20-36S634.5,774.94,615.5,777.94Z"/><path class="cls-4" d="M549.5.5V196.68h0s.43,30.23-9.57,49.23-33,17-42,10-14-14-33-17-26,19-26,35,1,34,20,36,31-10,41-18,29-5,40,10,9.5,33,9.5,33l.07-.08V531.5h205s12-.57,22-7.57,8-14,2-19-19-19-17-44,14-40,47-40,52,7,56,31-1,35-14,51,1.19,28.57,16.79,28.57H1080.5V.5Z"/></g></g></svg>