<svg xmlns="http://www.w3.org/2000/svg" viewBox="0 0 231.43 213.97"><defs><style>.cls-1{fill:#fff;}.cls-2{fill:#0b7b7d;}</style></defs><title>Ativo 3</title><g id="Camada_2" data-name="Camada 2"><g id="Camada_1-2" data-name="Camada 1"><rect class="cls-1" width="231.43" height="213.97" rx="16.44"/><path class="cls-2" d="M98.41,142.58A3.59,3.59,0,1,0,94.82,139,3.58,3.58,0,0,0,98.41,142.58Zm0-5.58a2,2,0,1,1-2,2A2,2,0,0,1,98.41,137Z"/><path class="cls-2" d="M99.51,90.66h25.71V62.51H99.51Zm12.94-25.49a5.11,5.11,0,1,1-5.11,5.1A5.1,5.1,0,0,1,112.45,65.17ZM104.77,83a6.05,6.05,0,0,1,6-6h3.26a6.05,6.05,0,0,1,6,6v.45a2.77,2.77,0,0,1-2.77,2.77h-9.82a2.77,2.77,0,0,1-2.77-2.77Z"/><path class="cls-2" d="M189,45.49h-53.8V38.77a15.22,15.22,0,0,0-15.22-15.22H76.48A15.22,15.22,0,0,0,61.26,38.77v90.95A15.22,15.22,0,0,0,76.48,145h43.45a15.22,15.22,0,0,0,14.56-10.78h38.2a.8.8,0,0,0,.82-.79.81.81,0,0,0-.82-.8H134.88a15.85,15.85,0,0,0,.27-2.86v-20.1h47.3a4.67,4.67,0,0,0,4.67-4.66V61.31a4.67,4.67,0,0,0-4.67-4.67h-47.3V47.08H189a.79.79,0,0,0,.79-.79A.79.79,0,0,0,189,45.49ZM133.56,108h-3.08v-4H99.75a1,1,0,0,1-1-1V99.2a1,1,0,0,1,1-1h30.73V58.23h3.08ZM98.21,56.64h0a4.67,4.67,0,0,0-4.67,4.67h0V105a4.67,4.67,0,0,0,4.67,4.66h30.68v10.7a11.48,11.48,0,0,1-11.46,11.47H79a11.48,11.48,0,0,1-11.46-11.47v-76A11.47,11.47,0,0,1,79,32.81h38.45a11.47,11.47,0,0,1,11.46,11.46V56.64Zm28.6,5.07V91.46a.79.79,0,0,1-.79.79H98.71a.79.79,0,0,1-.79-.79V61.71a.79.79,0,0,1,.79-.79H126A.79.79,0,0,1,126.81,61.71Zm6.75-5.07h-3.08V44.27a13,13,0,0,0-13-13.05H79a13,13,0,0,0-13,13.05v76a13.06,13.06,0,0,0,13,13.06h38.45a13.06,13.06,0,0,0,13-13.06v-10.7h3.08v20.1a13.65,13.65,0,0,1-13.63,13.64H76.48a13.65,13.65,0,0,1-13.63-13.64V38.77A13.65,13.65,0,0,1,76.48,25.14h43.45a13.65,13.65,0,0,1,13.63,13.63Zm48.89,1.59a3.08,3.08,0,0,1,3.08,3.08V105a3.08,3.08,0,0,1-3.08,3.07h-47.3v-4h45.41a1.7,1.7,0,0,0,1.69-1.7V99.85a1.7,1.7,0,0,0-1.69-1.7H135.15V91.46h22.24a1.28,1.28,0,0,0,1.28-1.29V86.82a1.28,1.28,0,0,0-1.28-1.29H135.15v-2.4h46A1.11,1.11,0,0,0,182.25,82v-3.7a1.11,1.11,0,0,0-1.11-1.11h-46V75.38h41.92a1.16,1.16,0,0,0,1.16-1.16V70.63a1.16,1.16,0,0,0-1.16-1.17H135.15V67.64h45.9a1.21,1.21,0,0,0,1.2-1.21V62.92a1.21,1.21,0,0,0-1.2-1.21h-45.9V58.23Zm-47.23,44.26V99.74h45.34a.1.1,0,0,1,.1.11v2.53a.1.1,0,0,1-.1.11Zm0-12.62V87.12h21.86v2.75Zm0-8.33V78.8h45.44v2.74Zm0-7.75V71.05h41.42v2.74Zm0-7.74V63.3h45.44v2.75Z"/><path class="cls-2" d="M152,39.77h8.94a.79.79,0,0,0,.79-.79.79.79,0,0,0-.79-.8H152a.79.79,0,0,0-.79.8A.79.79,0,0,0,152,39.77Z"/></g></g></svg>