<svg xmlns="http://www.w3.org/2000/svg" viewBox="0 0 231.43 213.97"><defs><style>.cls-1{fill:#fff;}.cls-2{fill:#7c2558;}</style></defs><title>Ativo 1</title><g id="Camada_2" data-name="Camada 2"><g id="Camada_1-2" data-name="Camada 1"><rect class="cls-1" width="231.43" height="213.97" rx="16.44"/><path class="cls-2" d="M93,152.07H50.14a.8.8,0,0,0,0,1.59H93a.8.8,0,0,0,0-1.59Z"/><path class="cls-2" d="M141.63,138.84a.79.79,0,0,0,.8-.79.8.8,0,0,0-.8-.8h-42V102.52h48.07v-2h-17a.56.56,0,0,1-.56-.56A4.88,4.88,0,0,1,135,95.08h19.72a4.88,4.88,0,0,1,4.89,4.88v2.56h9.68a4.26,4.26,0,0,0,4.26-4.26V36.34a4.26,4.26,0,0,0-4.26-4.26H61.51a4.26,4.26,0,0,0-4.26,4.26V98.26a4.26,4.26,0,0,0,4.26,4.26H75.12L71,117.18a4.44,4.44,0,0,0,3,5.46l3.09.88v21.33a4.63,4.63,0,0,0,4.62,4.62H95a4.63,4.63,0,0,0,4.62-4.62v-6ZM87.68,73.39a9.29,9.29,0,1,1-9.29,9.29A9.3,9.3,0,0,1,87.68,73.39ZM98,144.85a3,3,0,0,1-3,3H89.14V122.75a.79.79,0,0,0-.8-.79.79.79,0,0,0-.79.79v25.12H81.71a3,3,0,0,1-3-3V109a.79.79,0,0,0-.79-.8.8.8,0,0,0-.8.8v12.84l-2.65-.75a2.83,2.83,0,0,1-2-3.5l6.23-22a2.2,2.2,0,0,1,2.16-1.81h16l17.37-17.38A2,2,0,1,1,117,79.2l-19,19Z"/><path class="cls-2" d="M177.38,141.92H133.11a.8.8,0,1,0,0,1.59h44.27a.8.8,0,0,0,0-1.59Z"/><path class="cls-2" d="M152.16,148.57H144a.79.79,0,0,0-.8.79.8.8,0,0,0,.8.8h8.12a.79.79,0,0,0,.79-.8A.79.79,0,0,0,152.16,148.57Z"/></g></g></svg>