<svg xmlns="http://www.w3.org/2000/svg" viewBox="0 0 231.43 213.97"><defs><style>.cls-1{fill:#fff;}.cls-2{fill:#048fd2;}</style></defs><title>Ativo 4</title><g id="Camada_2" data-name="Camada 2"><g id="Camada_1-2" data-name="Camada 1"><rect class="cls-1" width="231.43" height="213.97" rx="16.44"/><path class="cls-2" d="M179.7,89.32H162.64a8.33,8.33,0,0,0-8.32,8.33v43.44a8.32,8.32,0,0,0,8.32,8.32H179.7a8.32,8.32,0,0,0,8.32-8.32V97.65A8.33,8.33,0,0,0,179.7,89.32Zm6.73,51.77a6.74,6.74,0,0,1-6.73,6.73H162.64a6.74,6.74,0,0,1-6.73-6.73V97.65a6.74,6.74,0,0,1,6.73-6.74H179.7a6.74,6.74,0,0,1,6.73,6.74Z"/><path class="cls-2" d="M118.39,108.56V142a7.46,7.46,0,0,0,7.46,7.46h18.77a7.46,7.46,0,0,0,7.47-7.46V108.56a7.46,7.46,0,0,0-7.47-7.46H125.85A7.46,7.46,0,0,0,118.39,108.56Z"/><rect class="cls-2" x="82.46" y="107.59" width="33.7" height="41.82" rx="6.94"/><rect class="cls-2" x="46.52" y="120.18" width="33.7" height="29.23" rx="5.81"/><path class="cls-2" d="M84.87,73a.79.79,0,0,0-.79-.79H35.86a.79.79,0,0,0-.79.79.79.79,0,0,0,.79.8H84.08A.79.79,0,0,0,84.87,73Z"/><path class="cls-2" d="M90,73.78h7.51a.79.79,0,0,0,.79-.8.79.79,0,0,0-.79-.79H90a.79.79,0,0,0-.8.79A.8.8,0,0,0,90,73.78Z"/><path class="cls-2" d="M118.39,25.26h24.66a.8.8,0,0,0,.8-.8.79.79,0,0,0-.8-.79H118.39a.79.79,0,0,0-.8.79A.8.8,0,0,0,118.39,25.26Z"/><path class="cls-2" d="M154.75,24.46a.79.79,0,0,0-.8-.79h-4.5a.79.79,0,0,0-.8.79.8.8,0,0,0,.8.8H154A.8.8,0,0,0,154.75,24.46Z"/><path class="cls-2" d="M132,49.41A9.09,9.09,0,1,0,141,40.33,9.07,9.07,0,0,0,132,49.41Zm16.58,0a7.5,7.5,0,1,1-7.5-7.49A7.51,7.51,0,0,1,148.53,49.41Z"/><path class="cls-2" d="M146.39,62a6.07,6.07,0,0,0-4.47-2.51L135.58,59c-.35,0-.71,0-1.06,0a13.88,13.88,0,0,0-5.28,1L118.7,64.31a3.42,3.42,0,0,0-1.65,1.46,4.92,4.92,0,0,0-2.55,2l-3.06-1.15a2.88,2.88,0,0,0-1-.18,2.82,2.82,0,0,0-2.64,1.83l-3.45,9.22A2.82,2.82,0,0,0,106,81.13l8.42,3.15H74.89a.78.78,0,0,0,0,1.55h43.67l1.79.67a2.88,2.88,0,0,0,1,.18A2.83,2.83,0,0,0,124,84.85l3.45-9.22A2.82,2.82,0,0,0,125.78,72l-5.14-1.92.22-.07,11.66-4.79-2.44,13.31L124.85,95a4.66,4.66,0,0,0,2.62,5.8,4.41,4.41,0,0,0,1.58.29A4.49,4.49,0,0,0,133.33,98l3.21-10.12,7.84,7.85a4.94,4.94,0,0,0,3.45,1.43,4.28,4.28,0,0,0,2.9-1.09,4.48,4.48,0,0,0,.18-6.51l-9.38-9.38,2.21-11.43,4.73,6.58a3.06,3.06,0,0,0,4.64.36,3.17,3.17,0,0,0,.21-4Zm-29.68,5.75s0,.09,0,.14a3.3,3.3,0,0,0,.38.9l-1.07-.4A3.43,3.43,0,0,1,116.71,67.72Zm8.51,5.77a1.27,1.27,0,0,1,.69.64,1.18,1.18,0,0,1,0,.94l-3.45,9.22a1.23,1.23,0,0,1-1.15.8,1.26,1.26,0,0,1-.43-.08l-14.35-5.37a1.25,1.25,0,0,1-.68-.64,1.18,1.18,0,0,1,0-.94l3.45-9.22a1.23,1.23,0,0,1,1.15-.8,1.26,1.26,0,0,1,.43.08Zm26.76,1a1.4,1.4,0,0,1-1,.44,1.45,1.45,0,0,1-1.18-.6L145,67.79l-2.15-3-.7,3.62L140,79.85l-.16.83.6.59,9.38,9.39a2.89,2.89,0,0,1-.11,4.2,2.69,2.69,0,0,1-1.84.68,3.28,3.28,0,0,1-2.32-1l-7.85-7.84-1.85-1.85L135,87.37l-3.21,10.12a2.88,2.88,0,0,1-2.76,2,3,3,0,0,1-1-.19,3.07,3.07,0,0,1-1.66-3.83L131.6,79l0-.1v-.1l2.44-13.32.52-2.86-2.69,1.11-11.65,4.79a1.5,1.5,0,0,1-.55.11,1.48,1.48,0,0,1-1.43-1.15,1.58,1.58,0,0,1,1-1.71l10.55-4.34a12.26,12.26,0,0,1,4.67-.92c.31,0,.63,0,.94,0l6.34.49a4.47,4.47,0,0,1,3.3,1.85L152,72.54A1.57,1.57,0,0,1,152,74.53Z"/></g></g></svg>