<svg xmlns="http://www.w3.org/2000/svg" viewBox="0 0 1132.25 335.51"><defs><style>.cls-1{fill:#cfd0d5;}.cls-2{fill:#9fa7b2;}.cls-3{fill:#414960;}.cls-4{fill:#28263e;}.cls-5{fill:#697a8c;}.cls-6{fill:#f0f0ee;}.cls-7,.cls-8{font-size:20.67px;font-family:MyriadPro-Bold, Myriad Pro;font-weight:700;}.cls-7{fill:#414757;}.cls-8{fill:#fff;}.cls-9{letter-spacing:-0.07em;}.cls-10{letter-spacing:0.01em;}.cls-11{letter-spacing:-0.03em;}.cls-12{letter-spacing:0.01em;}.cls-13{letter-spacing:0em;}.cls-14{letter-spacing:-0.02em;}.cls-15{letter-spacing:-0.02em;}.cls-16{letter-spacing:-0.07em;}.cls-17{letter-spacing:0em;}.cls-18{letter-spacing:-0.03em;}</style></defs><title>Ativo 5</title><g id="Camada_2" data-name="Camada 2"><g id="Camada_1-2" data-name="Camada 1"><path class="cls-1" d="M459.47,254.47a129.52,129.52,0,0,0-23.54,74.68H372.59a192.68,192.68,0,0,1,35-111Z"/><path class="cls-2" d="M527.77,204.7a130.34,130.34,0,0,0-68.3,49.77l-51.89-36.34a193.89,193.89,0,0,1,101.52-74Z"/><path class="cls-3" d="M724.67,218.13l-51.89,36.34a130.34,130.34,0,0,0-68.3-49.77l18.67-60.54A193.89,193.89,0,0,1,724.67,218.13Z"/><path class="cls-4" d="M759.66,329.15H696.32a129.52,129.52,0,0,0-23.54-74.68l51.89-36.34A192.68,192.68,0,0,1,759.66,329.15Z"/><path class="cls-5" d="M623.15,144.16,604.48,204.7a130.8,130.8,0,0,0-76.71,0L509.1,144.16a194.66,194.66,0,0,1,114,0Z"/><path class="cls-6" d="M372.59,328.61l193.53-5.82a6.36,6.36,0,1,1,.39,12.72h-.39l-193.53-5.82a.54.54,0,0,1,0-1.08Z"/><polygon class="cls-1" points="390.3 268.13 293.96 243.59 293.96 203.62 0 203.62 0 245.03 293.16 245.03 389.91 269.67 390.3 268.13"/><polygon class="cls-2" points="458.6 180.56 390.59 123.85 390.59 82.83 96.63 82.83 96.63 124.24 388.58 124.24 457.58 181.78 458.6 180.56"/><polygon class="cls-5" points="713.1 0 419.14 0 419.14 41.41 565.33 41.41 565.33 142.52 566.92 142.52 566.92 41.41 713.1 41.41 713.1 0"/><polygon class="cls-3" points="1035.62 82.83 741.66 82.83 741.66 123.97 679.09 184.13 680.19 185.28 743.67 124.24 1035.62 124.24 1035.62 82.83"/><polygon class="cls-4" points="1132.25 203.62 838.29 203.62 838.29 244.21 749.09 265.69 749.47 267.24 841.69 245.03 1132.25 245.03 1132.25 203.62"/><text class="cls-7" transform="translate(88.38 230.22)">EXPOSICIÓN</text><text class="cls-8" transform="translate(159.7 109.6)"><tspan class="cls-9">F</tspan><tspan x="9.51" y="0">AMILIARI</tspan><tspan class="cls-10" x="94.62" y="0">Z</tspan><tspan class="cls-11" x="106.71" y="0">A</tspan><tspan x="119.76" y="0">CIÓN</tspan></text><text class="cls-8" transform="translate(896.27 230.22)">T<tspan class="cls-12" x="11.33" y="0">R</tspan><tspan x="23.77" y="0">ANSFOR</tspan><tspan class="cls-13" x="100.74" y="0">M</tspan><tspan class="cls-14" x="118.17" y="0">A</tspan><tspan x="131.21" y="0">CIÓN</tspan></text><text class="cls-8" transform="translate(504.44 26.77)">A<tspan class="cls-15" x="13.56" y="0">D</tspan><tspan x="27.62" y="0">AP</tspan><tspan class="cls-16" x="53.19" y="0">T</tspan><tspan class="cls-14" x="63.03" y="0">A</tspan><tspan class="cls-17" x="76.08" y="0">CIÓN</tspan></text><text class="cls-8" transform="translate(824.34 109.6)">INTEG<tspan class="cls-12" x="56.62" y="0">R</tspan><tspan class="cls-18" x="69.07" y="0">A</tspan><tspan class="cls-17" x="82.11" y="0">CIÓN</tspan></text></g></g></svg>