<svg id="Camada_1" data-name="Camada 1" xmlns="http://www.w3.org/2000/svg" viewBox="0 0 97.34 92.01"><defs><style>.cls-1{fill:#fff;}</style></defs><title>icone-cidadania</title><path class="cls-1" d="M96.5,15.59h-40l-.11,0v-4.7A10.92,10.92,0,0,0,45.52,0H10.91A10.93,10.93,0,0,0,0,10.91V81.09A10.93,10.93,0,0,0,10.91,92H45.52a10.93,10.93,0,0,0,10.71-8.84.78.78,0,0,0,.31.07H84.47a.85.85,0,0,0,0-1.69H56.54a.5.5,0,0,0-.13,0c0-.16,0-.32,0-.49V65.19H93.09a3.27,3.27,0,0,0,3.26-3.27V27.67a3.27,3.27,0,0,0-3.26-3.27H56.43V17.25l.11,0h40a.84.84,0,1,0,0-1.68ZM93.09,26.08a1.59,1.59,0,0,1,1.58,1.59V61.92a1.59,1.59,0,0,1-1.58,1.59H56.43v-3H92.05V55.81H56.43V26.08ZM49.59,27.8V51.16H28.11V27.8Zm.95-3.4H28.14a3.28,3.28,0,0,0-3.27,3.27V61.92a3.28,3.28,0,0,0,3.27,3.27h22.4v7.13a9.24,9.24,0,0,1-9.23,9.23H15a9.24,9.24,0,0,1-9.23-9.23V14.92A9.24,9.24,0,0,1,15,5.69H41.31a9.24,9.24,0,0,1,9.23,9.23Zm1.69,35.3h2.46V56.65H52.23V26.08h2.52V55.81h0v4.74h0v3H52.23Zm4.2-2.21H90.37v1.37H56.43ZM52.23,24.4V14.92A10.93,10.93,0,0,0,41.31,4H15A10.93,10.93,0,0,0,4,14.92v57.4A10.93,10.93,0,0,0,15,83.24H41.31A10.93,10.93,0,0,0,52.23,72.32V65.19h2.52v15.9a9.24,9.24,0,0,1-9.23,9.23H10.91a9.24,9.24,0,0,1-9.23-9.23V10.91a9.24,9.24,0,0,1,9.23-9.23H45.52a9.24,9.24,0,0,1,9.23,9.23V24.4Z"/><path class="cls-1" d="M69.25,12h5.86a.85.85,0,0,0,0-1.69H69.25a.85.85,0,1,0,0,1.69Z"/><path class="cls-1" d="M28.13,90.16a3.26,3.26,0,1,0-3.26-3.26A3.27,3.27,0,0,0,28.13,90.16Zm0-4.83a1.57,1.57,0,1,1-1.57,1.57A1.57,1.57,0,0,1,28.13,85.33Z"/><path class="cls-1" d="M92.05,28.27H57.19V33H92.05Zm-1.68,3.06H58.88V30H90.37Z"/><path class="cls-1" d="M89.55,34H57.19v4.74H89.55ZM87.87,37h-29V35.64h29Z"/><path class="cls-1" d="M92.05,39.64H57.19v4.73H92.05Zm-1.68,3H58.88V41.32H90.37Z"/><path class="cls-1" d="M74.34,51.16V46.42H57.19v4.74ZM58.88,48.1H72.65v1.37H58.88Z"/><path class="cls-1" d="M47.9,29.49H29.79v20H47.9Zm-9,2.08a3.49,3.49,0,1,1-3.48,3.48A3.48,3.48,0,0,1,38.85,31.57ZM33,45a5.84,5.84,0,0,1,11.67,0C44.68,48.19,33,48.19,33,45Z"/></svg>