<?xml version="1.0" encoding="utf-8"?>
<!-- Generator: Adobe Illustrator 24.2.1, SVG Export Plug-In . SVG Version: 6.00 Build 0)  -->
<svg version="1.1" id="Camada_1" xmlns="http://www.w3.org/2000/svg" xmlns:xlink="http://www.w3.org/1999/xlink" x="0px" y="0px"
	 viewBox="0 0 512 512" style="enable-background:new 0 0 512 512;" xml:space="preserve">
<style type="text/css">
	.st0{fill:#FEE9AB;}
	.st1{fill:#FFDE55;}
	.st2{fill:#FFD422;}
	.st3{fill:#EBBF00;}
	.st4{fill:#A78966;}
	.st5{fill:#C0AB91;}
	.st6{fill:#806749;}
</style>
<g id="Conception_thinking_brain_ceative_light">
	<path class="st0" d="M444.5,314.5c0-16-5.9-31.5-16.7-43.4c10.5-29.7-1.9-62.7-29.4-78.2c0.4-2.8,0.6-5.6,0.6-8.4
		c0-35.9-29.1-65-65-65c-8.3,0-16.5,1.6-24.1,4.7c20.6,15.1,33.9,38.1,36.6,63.5c0.3,3.3,0.5,6.5,0.5,9.8
		c-0.1,18-5.2,35.6-14.8,50.8c-6,9.6-13.6,18-22.6,24.8c-9.3,7.3-14.7,18.5-14.6,30.4v11c6.2,0,11.5,4.4,12.7,10.4
		c0.2,0.9,0.3,1.7,0.3,2.6c-0.1,7.2-5.8,12.9-13,13c7.2,0,13,5.8,13,13c-0.1,7.2-5.8,12.9-13,13c7.2,0,13,5.8,13,13
		c-0.1,7.2-5.8,12.9-13,13c0,10.4-4.2,20.5-11.6,27.8c22.5,28,63.4,32.4,91.4,9.9c13.5-10.9,22.2-26.7,23.9-44l-2.5-8.8
		C424.7,369.7,444.5,344,444.5,314.5z"/>
	<path class="st1" d="M396.2,377.3l2.5,8.8c-3.4,33.2-31.3,58.4-64.7,58.4c-6.6,0-13.2-1-19.5-3c24.8-7.8,42.5-29.6,45.2-55.4
		l-2.5-8.8c34.7-9.2,55.3-44.7,46.1-79.3c-2.6-10-7.6-19.2-14.5-26.9c10.5-29.7-1.9-62.7-29.4-78.2c0.4-2.8,0.6-5.6,0.6-8.4
		c0-28.4-18.4-53.4-45.4-62c6.3-2,12.8-3,19.4-3c35.9,0,65,29.1,65,65c0,2.8-0.2,5.6-0.6,8.4c27.5,15.5,39.9,48.5,29.4,78.2
		c24,26.6,21.9,67.7-4.7,91.7C415.4,369.7,406.2,374.6,396.2,377.3z"/>
	<path class="st2" d="M347,197.5c-0.1,18-5.2,35.6-14.8,50.8c-6,9.6-13.6,18-22.6,24.8c-9.3,7.3-14.7,18.5-14.6,30.4v11h-78v-11
		c0.1-12-5.4-23.3-14.9-30.6c-8.8-6.8-16.3-15.1-22.2-24.5c-11.5-18.1-16.5-39.4-14.3-60.7c0.9-8.7,3.1-17.3,6.4-25.4
		c6.3-15.2,16.7-28.4,30-38.2h0.1c11.6-8.6,25-14.2,39.3-16.4c49.7-8.1,96.5,25.6,104.6,75.2c0.3,1.6,0.5,3.2,0.7,4.8
		C346.8,190.9,347,194.2,347,197.5z"/>
	<path class="st3" d="M347,197.5c-0.1,18-5.2,35.6-14.8,50.8c-6,9.6-13.6,18-22.6,24.8c-9.3,7.3-14.7,18.5-14.6,30.4v11h-26v-11
		c-0.2-11.8,5.2-23.1,14.6-30.4c9-6.8,16.6-15.3,22.6-24.8c9.6-15.2,14.8-32.8,14.8-50.8c0-3.3-0.2-6.6-0.5-9.8
		c-4.5-41.3-36.3-74.3-77.4-80.3c49.8-7.1,95.9,27.5,103,77.2c0.1,1,0.3,2,0.4,3C346.8,190.9,347,194.2,347,197.5z"/>
	<path class="st4" d="M307.7,324.9c0.2,0.9,0.3,1.7,0.3,2.6c-0.1,7.2-5.8,12.9-13,13h-78c-7.2,0-13-5.8-13-13c0-0.9,0.1-1.7,0.3-2.6
		c0.5-2.5,1.7-4.8,3.6-6.6c2.4-2.5,5.7-3.9,9.2-3.8h78C301.2,314.5,306.5,318.9,307.7,324.9z"/>
	<path class="st5" d="M295,340.5c7.2,0,13,5.8,13,13c-0.1,7.2-5.8,12.9-13,13h-78c-7.2,0-13-5.8-13-13c0.1-7.2,5.8-12.9,13-13H295z"
		/>
	<path class="st4" d="M295,366.5c7.2,0,13,5.8,13,13c-0.1,7.2-5.8,12.9-13,13h-78c-7.2,0-13-5.8-13-13c0.1-7.2,5.8-12.9,13-13H295z"
		/>
	<path class="st5" d="M217,392.5h78c0,21.5-17.5,39-39,39c-10.2,0-20-4-27.3-11.2l-0.2-0.2C221.1,412.8,217,402.8,217,392.5z"/>
	<path class="st6" d="M308,327.5c-0.1,7.2-5.8,12.9-13,13h-26c7.2-0.1,12.9-5.8,13-13c0-0.9-0.1-1.7-0.3-2.6
		c-1.3-6-6.6-10.4-12.7-10.4h26c6.2,0,11.5,4.4,12.7,10.4C307.9,325.8,308,326.6,308,327.5z"/>
	<path class="st4" d="M308,353.5c-0.1,7.2-5.8,12.9-13,13h-26c7.2-0.1,12.9-5.8,13-13c0-7.2-5.8-13-13-13h26
		C302.2,340.5,308,346.3,308,353.5z"/>
	<path class="st6" d="M308,379.5c-0.1,7.2-5.8,12.9-13,13h-26c7.2-0.1,12.9-5.8,13-13c0-7.2-5.8-13-13-13h26
		C302.2,366.5,308,372.3,308,379.5z"/>
	<path class="st4" d="M295,392.5c0,21.5-17.5,39-39,39c-4.4,0-8.8-0.8-13-2.3c15.6-5.5,26-20.2,26-36.7H295z"/>
	<path class="st0" d="M228.4,420.1c-7.4-7.3-11.5-17.2-11.4-27.6c-7.2,0-13-5.8-13-13c0.1-7.2,5.8-12.9,13-13c-7.2,0-13-5.8-13-13
		c0.1-7.2,5.8-12.9,13-13c-7.2,0-13-5.8-13-13c0-0.9,0.1-1.7,0.3-2.6c0.5-2.5,1.7-4.8,3.6-6.6c2.4-2.5,5.7-3.9,9.2-3.8v-11
		c0.1-12-5.4-23.3-14.9-30.6c-8.8-6.8-16.3-15.1-22.2-24.5c-11.5-18.1-16.5-39.4-14.3-60.7c0.9-8.7,3.1-17.3,6.4-25.4
		c6.3-15.2,16.7-28.4,30-38.2c-7.6-3.1-15.7-4.6-23.9-4.6c-35.9,0-65,29.1-65,65c0,2.8,0.2,5.6,0.6,8.4
		c-27.5,15.5-39.9,48.5-29.4,78.2c-24,26.6-21.9,67.7,4.8,91.7c7,6.3,15.3,11,24.2,13.8l-0.2,2.9c0,35.9,29.1,65,65,65
		c19.7,0,38.3-8.9,50.6-24.2L228.4,420.1z"/>
	<path d="M435,269.6c2-6.5,3-13.3,3-20.1c0-24.3-12.4-46.8-32.8-59.9c0.1-1.7,0.3-3.4,0.3-5.1c0-39.5-32-71.5-71.5-71.5
		c-7.9,0-15.7,1.3-23.1,4c-20.7-14-46-19.7-70.7-15.7c-14.1,2.2-27.5,7.6-39.3,15.7c-7.4-2.6-15.1-3.9-22.9-3.9
		c-39.5,0-71.5,32-71.5,71.5c0,1.8,0.2,3.4,0.3,5.1C86.4,202.7,74,225.2,74,249.5c0,6.8,1,13.6,3,20.1c-10.4,12.7-16,28.5-16,44.9
		c0,29.5,18.1,55.9,45.6,66.6c0.8,39.4,33.4,70.7,72.9,69.9c18.8-0.4,36.8-8.2,49.9-21.8c15.9,11.7,37.5,11.7,53.4,0
		c27.4,28.4,72.6,29.1,101,1.7c13.5-13.1,21.4-31,21.8-49.9c27.4-10.7,45.5-37.1,45.6-66.6C451,298.2,445.4,282.3,435,269.6z
		 M334,126c31.7,0.1,57.6,25.3,58.4,57c-13-5-27.1-6.2-40.7-3.4c-3.8-20.1-13.8-38.5-28.6-52.5C326.7,126.3,330.4,126,334,126z
		 M353.2,192.6c12.7-2.9,26.1-1.5,38,4c-5.1,23.7-24.2,41.9-48.1,45.7c6.8-13.9,10.4-29.2,10.4-44.7
		C353.5,195.9,353.3,194.2,353.2,192.6z M242.3,114.1c46.1-7.5,89.6,23.8,97.1,69.9c0.7,4.5,1.1,9,1.1,13.5
		c-0.1,27.6-13,53.6-34.8,70.5c-11,8.5-17.3,21.7-17.2,35.6v4.5h-65v-4.5c0-14-6.4-27.2-17.5-35.8c-31.2-24.3-42.6-66.2-28-103
		C189.2,137.8,213.5,118.6,242.3,114.1z M295,360h-78c-3.6,0-6.5-2.9-6.5-6.5s2.9-6.5,6.5-6.5h78c3.6,0,6.5,2.9,6.5,6.5
		S298.6,360,295,360z M301.5,379.5c0,3.6-2.9,6.5-6.5,6.5h-78c-3.6,0-6.5-2.9-6.5-6.5s2.9-6.5,6.5-6.5h78
		C298.6,373,301.5,375.9,301.5,379.5z M295,334h-78c-3.6,0-6.5-2.9-6.5-6.5s2.9-6.5,6.5-6.5h78c3.6,0,6.5,2.9,6.5,6.5
		S298.6,334,295,334z M178,126c3.5,0,7,0.3,10.5,1c-9.7,9.2-17.4,20.4-22.5,32.8c-2.6,6.4-4.5,13-5.7,19.8
		c-13.6-2.8-27.7-1.6-40.7,3.4C120.4,151.3,146.3,126.1,178,126z M168.8,242.2c-23.9-3.8-43-22-48-45.7c11.8-5.4,25.1-6.8,37.8-4
		C157.7,209.7,161.3,226.8,168.8,242.2z M74,314.5c0-10.9,3-21.5,8.8-30.7c12.5,23,36.6,37.2,62.7,37.2v-13
		c-32.3,0-58.5-26.1-58.5-58.4c0-17.9,8.2-34.8,22.2-45.9c8.5,30.5,36.1,51.8,67.7,52.3c5.9,8.4,13,15.9,21.2,22.1
		c7.8,6.1,12.4,15.5,12.3,25.5v5.7c-3,1.1-5.8,2.9-7.9,5.3H191c0,32.3-26.2,58.5-58.5,58.5S74,346.8,74,314.5z M178,438
		c-30.2,0-55.5-23.1-58.2-53.2c4.2,0.8,8.5,1.1,12.7,1.2c30.7-0.1,57.9-19.7,67.7-48.8c0.6,1.2,1.4,2.3,2.3,3.3
		c-6.8,7.3-6.8,18.7,0,26c-7.2,7.9-6.7,20.1,1.2,27.3c2,1.9,4.4,3.3,7.1,4.1c1,8.1,4.2,15.8,9.2,22.3C209,431.6,193.8,438,178,438z
		 M256,425c-15.4,0-28.7-10.9-31.8-26h63.7C284.7,414.1,271.4,425,256,425z M334,438c-15.8,0-31-6.4-42-17.8
		c5-6.5,8.1-14.2,9.2-22.3c10.1-3.3,15.7-14.2,12.4-24.3c-0.9-2.6-2.3-5-4.1-7.1c6.8-7.3,6.8-18.7,0-26c0.9-1,1.7-2.1,2.3-3.3
		c9.8,29.1,37,48.7,67.7,48.8c4.3,0,8.5-0.4,12.7-1.2C389.5,414.9,364.2,438,334,438z M379.5,373c-32.3-0.1-58.4-26.2-58.5-58.5
		h-11.6c-2.2-2.4-4.9-4.2-7.9-5.3v-5.7c-0.2-9.8,4.3-19.1,12-25.2c8.3-6.3,15.5-13.9,21.4-22.4c31.7-0.4,59.4-21.7,67.9-52.3
		c25.3,20,29.6,56.8,9.6,82.1c-11.1,14-28,22.2-45.9,22.2v13c26.1,0,50.2-14.3,62.7-37.2c17,27.4,8.6,63.5-18.9,80.5
		C401.1,370,390.4,373,379.5,373z"/>
	<rect x="249.5" y="61" width="13" height="26"/>
	<rect x="304.8" y="84" transform="matrix(0.4999 -0.8661 0.8661 0.4999 80.4834 320.4734)" width="26" height="13"/>
	<rect x="187.8" y="77.5" transform="matrix(0.866 -0.5 0.5 0.866 -19.2494 109.2651)" width="13" height="26"/>
</g>
</svg>
