<svg id="Camada_1" data-name="Camada 1" xmlns="http://www.w3.org/2000/svg" viewBox="0 0 98.48 81.79"><defs><style>.cls-1{fill:#fff;}</style></defs><title>icone-desenvolvimento</title><path class="cls-1" d="M31.68,31.85a.69.69,0,0,0-.69-.69H.69a.69.69,0,1,0,0,1.38H31A.69.69,0,0,0,31.68,31.85Z"/><path class="cls-1" d="M35.25,32.54H39.7a.69.69,0,0,0,0-1.38H35.25a.69.69,0,0,0,0,1.38Z"/><path class="cls-1" d="M53.7,1.38H69.45a.69.69,0,0,0,0-1.38H53.7a.69.69,0,1,0,0,1.38Z"/><path class="cls-1" d="M73.58,1.38H75.9A.69.69,0,0,0,75.9,0H73.58a.69.69,0,1,0,0,1.38Z"/><path class="cls-1" d="M69,34.51l1.11-3.42,1.45,2.26a2.63,2.63,0,0,0,1.69,1.18,2.66,2.66,0,0,0,2-.36,2.71,2.71,0,0,0,.82-3.73l-4.71-7.86a2.7,2.7,0,0,0-.47-.68,6.53,6.53,0,1,0-6.11-1L54.74,25a2.6,2.6,0,0,0-1,.75,3.19,3.19,0,0,0-3.43,1.73L48.43,27a2.36,2.36,0,0,0-2.9,1.65l-1.77,6.5a2.35,2.35,0,0,0,1.65,2.89l5.06,1.39H25.62a.69.69,0,1,0,0,1.38H55.91a.68.68,0,0,0,.54-.28A2.35,2.35,0,0,0,57.82,39l1.77-6.5a2.33,2.33,0,0,0-.22-1.79,2.37,2.37,0,0,0-1.43-1.11h-.06L61.71,28,60.12,34.3c-.11.34-2.8,8.49-3.6,11.33a4.21,4.21,0,0,0,.37,3.22,3.6,3.6,0,0,0,.6.75h-.17a4.21,4.21,0,0,0-4.2,4.2V76.89a4.21,4.21,0,0,0,4.2,4.21H70.06a4.21,4.21,0,0,0,4.2-4.21V53.8a4.21,4.21,0,0,0-4.2-4.2H62.9a3.93,3.93,0,0,0,1.19-2l1.83-5.57a64.08,64.08,0,0,0,4.2,5.25,3.27,3.27,0,0,0,3.65.47,4.06,4.06,0,0,0,2.17-2.73,3.17,3.17,0,0,0-.64-2.73C73.74,40.42,70,35.75,69,34.51ZM53.07,27.79a2.09,2.09,0,0,0,.09.51l-.79-.22A1.23,1.23,0,0,1,53.07,27.79Zm5.1,3.61a1,1,0,0,1,.09.74l-1.77,6.49a1,1,0,0,1-1.2.69l-9.52-2.6a1,1,0,0,1-.68-1.2L46.86,29a1,1,0,0,1,1-.73,1.09,1.09,0,0,1,.25,0l3.13.85h0l6.39,1.75A1,1,0,0,1,58.17,31.4ZM74.59,44.76a2.65,2.65,0,0,1-1.43,1.77A1.84,1.84,0,0,1,71,46.2c-.48-.42-3.76-4.68-4.5-5.77l.71-2.18-1.31-.43L65,40.58h0l-2.19,6.67a2.68,2.68,0,0,1-3.24,2,2.23,2.23,0,0,1-1.44-1.06A2.83,2.83,0,0,1,57.85,46c.79-2.8,3.56-11.19,3.6-11.32l2.26-8.95-7.46,3a1.31,1.31,0,0,1-.6.08l-.14,0-.29-.12a1.33,1.33,0,0,1-.69-.71,1.27,1.27,0,0,1-.08-.7l0-.22.11-.2a1.31,1.31,0,0,1,.66-.6l11.35-4.6,1.63-.56-1.57-.72a5.15,5.15,0,1,1,2.39.45l0,1.38a2.72,2.72,0,0,1,1,.73l4.84,8.17v0a1.3,1.3,0,0,1-.4,1.82,1.28,1.28,0,0,1-1,.18,1.29,1.29,0,0,1-.83-.57l-3-4.72-2.12,6.55-.1.37.23.29c.25.31,4.76,6,6.53,8.1A1.79,1.79,0,0,1,74.59,44.76Z"/><rect class="cls-1" x="7.49" y="62.63" width="21.14" height="18.84" rx="4.2"/><rect class="cls-1" x="30.07" y="54.78" width="21.14" height="26.68" rx="4.2"/><path class="cls-1" d="M92.57,42.05H82c-3.25,0-5.9,2.91-5.9,6.49V75.29c0,3.58,2.65,6.5,5.9,6.5H92.57c3.26,0,5.91-2.92,5.91-6.5V48.54C98.48,45,95.83,42.05,92.57,42.05Zm4.65,33.24a4.91,4.91,0,0,1-4.65,5.12H82a4.91,4.91,0,0,1-4.65-5.12V48.54A4.9,4.9,0,0,1,82,43.43H92.57a4.9,4.9,0,0,1,4.65,5.11Z"/></svg>