<svg id="Camada_1" data-name="Camada 1" xmlns="http://www.w3.org/2000/svg" viewBox="0 0 68 68"><defs><style>.cls-1{fill:none;stroke:#fff;stroke-miterlimit:10;}.cls-2{fill:#fff;}</style></defs><circle class="cls-1" cx="34" cy="34" r="33.1"/><polygon class="cls-2" points="39.9 50.9 27.7 52.5 27.7 54 39.9 52.4 39.9 50.9"/><path class="cls-2" d="M33.8,20.5A14.19,14.19,0,0,0,19.6,34.7h0c0,5.7,5.5,8.2,8.2,12.8.1.2,0,.4,0,.5v2.6L40,49V48c0-.2-.1-.4,0-.5,2.6-4.6,8.2-7.2,8.2-12.8A14.36,14.36,0,0,0,33.8,20.5Z"/><path class="cls-2" d="M28,55.9a4.64,4.64,0,0,0,1.2,2.3c.2.2.8,0,1,.1A5,5,0,0,0,34,59.8h0a5.52,5.52,0,0,0,3.9-1.6c.2-.2.7.1.9-.2a6.4,6.4,0,0,0,1.3-3.7h0Z"/><rect class="cls-2" x="32.8" y="8.2" width="2.5" height="6.6"/><rect class="cls-2" x="13.05" y="19.44" width="2.5" height="6.6" transform="translate(-12.54 23.76) rotate(-60)"/><rect class="cls-2" x="50.3" y="21.68" width="6.6" height="2.5" transform="translate(-4.28 29.87) rotate(-30)"/></svg>