<svg id="Camada_1" data-name="Camada 1" xmlns="http://www.w3.org/2000/svg" viewBox="0 0 68 68"><defs><style>.cls-1{fill:none;stroke:#fff;stroke-miterlimit:10;}.cls-2{fill:#fff;}</style></defs><circle class="cls-1" cx="34" cy="34" r="33"/><path class="cls-2" d="M30.9,14.4h7a.94.94,0,0,0,1-1c0-.9-.8-.9-1.7-.9H35.3c-.3,0,1-1.6.1-1.6H32.5c-1,0,.3,1.6,0,1.6H30a1,1,0,0,0-1,.9C29.2,14.4,29.9,14.4,30.9,14.4Z"/><path class="cls-2" d="M48.4,16H19.6a3,3,0,0,0-3,3V42.5a3,3,0,0,0,3,3H48.4a3,3,0,0,0,3-3V19a3,3,0,0,0-3-3ZM44.1,31.2,43.6,29l-6.9,6.3-6.9-4.2-8.1,6.1L20.1,35l9.5-7.2,6.7,4.1L41.7,27l-2.1-.7,8.2-3Z"/><path class="cls-2" d="M44.9,48.4a1.11,1.11,0,0,1,1,1.2,1.17,1.17,0,0,1-1,1H37.2l2,2,2.6,2.6a1.21,1.21,0,0,1,0,1.6,1.22,1.22,0,0,1-1.6,0l-5.4-5.4-.8-.8-.8.8-5.4,5.4a1.13,1.13,0,0,1-1.6-1.6h0l2.6-2.6,2-2H23.1a1.11,1.11,0,0,1-1-1.2,1.17,1.17,0,0,1,1-1H44.9"/></svg>