<?xml version="1.0" encoding="utf-8"?>
<!-- Generator: Adobe Illustrator 22.1.0, SVG Export Plug-In . SVG Version: 6.00 Build 0)  -->
<svg version="1.1" id="Modo_de_isolamento" xmlns="http://www.w3.org/2000/svg" xmlns:xlink="http://www.w3.org/1999/xlink" x="0px"
	 y="0px" viewBox="0 0 472.8 455.6" style="enable-background:new 0 0 472.8 455.6;" xml:space="preserve">
<style type="text/css">
	.st0{fill:#111E3C;}
</style>
<g id="Camada_1">
	<g>
		<g>
			<path class="st0" d="M281.6,200.7c4.3,17.3,13.9,31.1,27.8,39.4c8.6,5.1,18.2,7.6,27.8,7.6c9.6,0,19.2-2.5,27.8-7.6
				c13.9-8.3,23.5-22,27.8-39.4c22.1-8.3,33.6-25,31-45.2c-3.8-28.9-37.1-60.8-81.4-64.4c-1.6-0.1-8.4-0.1-10,0
				c-25.6,2.1-50.1,14-66.1,32.5c-11.6,13.3-17.1,28.1-15.7,41.7C251.5,174.8,256.9,191.5,281.6,200.7L281.6,200.7z M356.8,226.3
				c-12.1,7.2-27.2,7.2-39.3,0c-15.2-9-23.4-27.8-22.5-51.4c0.1-3.2,0.6-6.2,1.2-8.9c11.1,4.6,24.1,7.4,37.7,8.1c1,0,5.3,0.1,6.2,0
				c12.6-0.6,24.7-3,35.2-7c1-0.4,1.9-0.7,2.8-1.1c0.7,2.7,1.1,5.7,1.2,8.9C380.3,198.5,372,217.2,356.8,226.3L356.8,226.3z
				 M278.3,134.1c14.1-16.2,36.1-26.4,58.9-27.3c37.9,1.5,67.7,27.9,70.7,50.8c1.6,11.8-4.6,19.4-12.5,24.2c0.1-2.5,0.1-5,0-7.5
				c-0.3-8.1-2.1-15.7-5.3-22.4c0-0.1-0.1-0.1-0.1-0.2c-4.4-9.1-11.2-16.6-20.3-22.2c-3.8-2.3-8.7-1.1-11,2.6
				c-2.3,3.8-1.1,8.7,2.6,11c3.2,2,6.7,4.8,9.8,8.5c-9.9,3.9-21.6,6.3-33.9,6.6c-12.3-0.3-24-2.6-33.9-6.6c3.1-3.8,6.6-6.5,9.8-8.5
				c3.8-2.3,4.9-7.2,2.6-11c-2.3-3.8-7.2-4.9-11-2.6c-9.1,5.6-16,13.2-20.3,22.3c0,0,0,0,0,0c-3.2,6.7-5,14.3-5.4,22.4
				c-0.1,2.6-0.1,5.1,0,7.5c-6.4-3.9-11.8-9.7-12.6-18.1C265.5,154.6,269.8,143.8,278.3,134.1L278.3,134.1z M342,418.9
				c0,4.4-3.6,8-8,8h-78.6c-2.4,0-4.6-0.9-6.1-2.7c-1.5-1.8-2.2-4.1-1.7-6.4L266.4,316c4.4-24,22.8-42.3,49.1-49
				c14.1-3.6,29.6-3.6,43.7,0.1c15.2,3.9,28,11.8,36.7,22.6c2.8,3.4,2.3,8.5-1.2,11.2c-3.4,2.8-8.5,2.2-11.3-1.2
				c-13.3-16.4-39.7-23.5-64.1-17.3c-20.4,5.2-34,18.4-37.4,36.4L265,410.9h69C338.4,410.9,342,414.5,342,418.9L342,418.9z
				 M376.2,455.6H465c4.4,0,7.7-3.3,7.7-7.7V340.7c0-4.4-3.3-8.3-7.7-8.3h-5.9v-12.5c0-4.4-3.6-8-8-8c-4.4,0-8,3.6-8,8v12.5h-67
				c-4.4,0-8.2,3.8-8.2,8.3v107.2C368,452.3,371.8,455.6,376.2,455.6L376.2,455.6z M384,348.4h72.8v91.2H384V348.4z M444,410.9
				c0,4.4-4,8.1-8,8.1v-0.2h-30.7c-4.4,0-7.8-3.5-7.8-7.9c0-4.4,3.4-7.9,8.2-7.9v-0.2h30.4C440.4,402.8,444,406.5,444,410.9
				L444,410.9z M406.4,387.6c0-4.4,3.6-8,8-8h12.4c4.4,0,8,3.6,8,8s-3.6,8-8,8h-12.4C410,395.6,406.4,392.1,406.4,387.6L406.4,387.6
				z M406.4,387.6"/>
		</g>
	</g>
</g>
<path class="st0" d="M252.4,257H24.3C10.9,257,0,246.1,0,232.7V24.3C0,10.9,10.9,0,24.3,0h303.8c13.4,0,24.3,10.9,24.3,24.3V58
	c0,4.4-3.6,8-8,8s-8-3.6-8-8V24.3c0-4.6-3.7-8.3-8.3-8.3H24.3c-4.6,0-8.3,3.7-8.3,8.3v208.4c0,4.6,3.7,8.3,8.3,8.3h228.1
	c4.4,0,8,3.6,8,8S256.9,257,252.4,257z"/>
</svg>
