<svg id="Camada_1" data-name="Camada 1" xmlns="http://www.w3.org/2000/svg" viewBox="0 0 376 376"><defs><style>.cls-1{fill:#111e3c;}</style></defs><title>escola</title><path class="cls-1" d="M370,192H288V149.2a4.87,4.87,0,0,0,0-.66.77.77,0,0,0,0-.15c0-.17-.05-.33-.08-.49a1.21,1.21,0,0,1-.05-.18c0-.15-.08-.29-.13-.44a1.34,1.34,0,0,0-.07-.18c-.05-.14-.11-.28-.17-.42a1.42,1.42,0,0,1-.08-.18l-.22-.38-.1-.18-.27-.37a1.71,1.71,0,0,0-.11-.14,4.81,4.81,0,0,0-.42-.48l-.05,0c-.14-.13-.28-.26-.43-.38l0,0L194,71.9V12h52.4V34.4H212a6,6,0,0,0,0,12h40.4a6,6,0,0,0,6-6V6a6,6,0,0,0-6-6H188a6,6,0,0,0-6,6V71.9L90.28,144.5s0,0,0,0a5.3,5.3,0,0,0-.43.38l0,0a6.14,6.14,0,0,0-.42.47l-.11.15-.27.37-.1.18c-.08.12-.15.25-.22.38a1.42,1.42,0,0,1-.08.18c-.06.14-.12.28-.17.42a1.34,1.34,0,0,0-.07.18c0,.14-.09.29-.13.44a1.21,1.21,0,0,1,0,.18c0,.16,0,.32-.08.49a.77.77,0,0,0,0,.15c0,.22,0,.44,0,.66V192H6a6,6,0,0,0-6,6V370a6,6,0,0,0,6,6H370a6,6,0,0,0,6-6V198a6,6,0,0,0-6-6Zm-6,12v20H288V204ZM88,204v20H12V204Zm148,61.33V340H194V265.33ZM182,340H140V265.33h42Zm-42,12h96v12H140Zm108,12V259.33a6,6,0,0,0-6-6H134a6,6,0,0,0-6,6V364H12V236H88V346a6,6,0,0,0,12,0V155.2H210a6,6,0,0,0,0-12H111.25L188,82.45l76.75,60.75H234a6,6,0,0,0,0,12h42V346a6,6,0,0,0,12,0V236h76V364Zm0,0"/><path class="cls-1" d="M35.33,253.33a6,6,0,0,0-6,6v24a6,6,0,0,0,12,0v-24a6,6,0,0,0-6-6Zm0,0"/><path class="cls-1" d="M64.67,253.33a6,6,0,0,0-6,6v24a6,6,0,0,0,12,0v-24a6,6,0,0,0-6-6Zm0,0"/><path class="cls-1" d="M340.67,253.33a6,6,0,0,0-6,6v24a6,6,0,0,0,12,0v-24a6,6,0,0,0-6-6Zm0,0"/><path class="cls-1" d="M311.33,253.33a6,6,0,0,0-6,6v24a6,6,0,0,0,12,0v-24a6,6,0,0,0-6-6Zm0,0"/><path class="cls-1" d="M188,175.2a29.07,29.07,0,1,0,29.07,29.07A29.1,29.1,0,0,0,188,175.2Zm0,46.13a17.07,17.07,0,1,1,17.07-17.06A17.08,17.08,0,0,1,188,221.33Zm0,0"/></svg>