<?xml version="1.0" encoding="utf-8"?>
<!-- Generator: Adobe Illustrator 23.0.2, SVG Export Plug-In . SVG Version: 6.00 Build 0)  -->
<svg version="1.1" id="Camada_1" xmlns="http://www.w3.org/2000/svg" xmlns:xlink="http://www.w3.org/1999/xlink" x="0px" y="0px"
	 viewBox="0 0 305.9 185" style="enable-background:new 0 0 305.9 185;" xml:space="preserve">
<style type="text/css">
	.st0{opacity:0.38;fill:#969797;}
	.st1{fill:#969797;}
	.st2{fill:#FFFFFF;}
	.st3{fill:#DEDDDD;}
	.st4{fill:#EBECEA;}
	.st5{fill:#B8B8B6;}
	.st6{fill:#30211E;}
	.st7{fill:#997057;}
	.st8{fill:#D1B991;}
	.st9{fill:#4B4945;}
	.st10{fill:#65AE39;}
	.st11{fill:#A04C3B;}
	.st12{fill:#5D9332;}
	.st13{fill:#B17C74;}
	.st14{fill:#332A35;}
	.st15{opacity:0.38;fill:#997057;}
	.st16{fill:#875E5A;}
	.st17{fill:#392824;}
	.st18{clip-path:url(#SVGID_2_);fill:#30211E;}
	.st19{opacity:0.38;clip-path:url(#SVGID_2_);fill:#969797;}
	.st20{clip-path:url(#SVGID_2_);fill:#735A4E;}
	.st21{opacity:0.4;clip-path:url(#SVGID_2_);fill:#1A120E;}
	.st22{clip-path:url(#SVGID_2_);fill:#B08E7D;}
	.st23{opacity:0.52;clip-path:url(#SVGID_2_);fill:#735A4E;}
	.st24{clip-path:url(#SVGID_2_);fill:#9F7F6F;}
	.st25{clip-path:url(#SVGID_2_);fill:#886C5C;}
	.st26{opacity:0.53;clip-path:url(#SVGID_2_);fill:#666666;}
	.st27{clip-path:url(#SVGID_2_);fill:#BCBBBC;}
	.st28{clip-path:url(#SVGID_2_);fill:#997057;}
	.st29{clip-path:url(#SVGID_2_);fill:#5B1244;}
	.st30{opacity:0.42;clip-path:url(#SVGID_2_);fill:#400931;}
	.st31{clip-path:url(#SVGID_2_);fill:#7A1557;}
	.st32{clip-path:url(#SVGID_2_);fill:#332A35;}
	.st33{clip-path:url(#SVGID_2_);fill:#C7C2B5;}
	.st34{clip-path:url(#SVGID_2_);fill:#42B4C0;}
	.st35{clip-path:url(#SVGID_2_);fill:#797878;}
	.st36{opacity:0.28;clip-path:url(#SVGID_2_);fill:#797878;}
	.st37{clip-path:url(#SVGID_2_);fill:#1F140F;}
	.st38{clip-path:url(#SVGID_2_);fill:#9B9C9C;}
	.st39{clip-path:url(#SVGID_2_);}
	.st40{fill:#9B9C9C;}
	.st41{opacity:0.38;clip-path:url(#SVGID_2_);fill:#997057;}
	.st42{clip-path:url(#SVGID_2_);fill:#B2DBDC;}
	.st43{clip-path:url(#SVGID_2_);fill:#91AFAE;}
	.st44{clip-path:url(#SVGID_2_);fill:#BE4D4B;}
	.st45{clip-path:url(#SVGID_2_);fill:#603B28;}
	.st46{fill:#603B28;}
	.st47{opacity:0.2;fill:#30211E;}
</style>
<title>espelho</title>
<g>
	<ellipse class="st0" cx="206" cy="165.1" rx="99.9" ry="13"/>
	<g>
		<polygon class="st1" points="259.3,157.3 232.6,154 235.2,60 		"/>
		<polygon class="st2" points="118.1,163.7 224.3,176.7 231.9,0 126.1,5.9 		"/>
		<polygon class="st3" points="133.4,13.5 225.7,11 218.1,169.1 126.1,158.7 		"/>
		<polygon class="st4" points="225.7,11 225.8,8.8 129.8,12.2 133.4,13.5 		"/>
		<polygon class="st4" points="218.1,170.5 122.5,159.7 126.1,158.7 218.1,169.1 		"/>
		<polygon class="st5" points="122.5,159.7 126.1,158.7 133.4,13.5 129.8,12.2 		"/>
		<polygon class="st4" points="231.9,0 237.9,2.9 231.2,173.4 224.3,176.7 		"/>
		<polygon class="st5" points="236.5,55.2 264,154.8 259.3,157.3 236.2,63.9 		"/>
	</g>
	<circle class="st6" cx="43.2" cy="59.3" r="3.9"/>
	<ellipse class="st6" cx="56.2" cy="38.1" rx="11" ry="8.8"/>
	<path class="st7" d="M138.5,66.8c0,0-7.6-0.4-8.6,0c-1,0.4-5.2,1.4-5.6,1.5c-0.4,0.1-8.8,1.3-9.3,1.3c-0.3,0-1.3,1.6,1,1.6
		c2.6-0.1,6.8-0.5,7.2-0.4c-0.2,0.7-0.3,1.7-0.3,2.4c0,0.3,0.6,0.7,0.7,0.6c0,0.5,1,0.9,1.3,0.7c0.3,0.4,1,0.6,2,0.2
		c0.9,0.2,1,0.9,1.8,0.8c0.7-0.1,2.9-0.2,4-1.7c1.1-1.5,5.9-2,6-2.1S138.5,66.8,138.5,66.8z"/>
	<path class="st8" d="M19.9,161.9l-1.3,2.4c0,0,0.6,3.9,2.9,4.6s5.1,0.5,5.4-0.4c0.2-0.9,0.4-5.1-3.4-5.7
		C19.6,162.1,19.9,161.9,19.9,161.9z"/>
	<path class="st9" d="M27.8,100.6c0,0-1.7,2.5-2.1,5.2c-0.5,2.7,0.5,5,0.6,5.6c0.1,0.6-0.1,18.2-0.3,19.7c-0.1,1.5-0.9,5.6-2.2,8.7
		c-1.2,3.1-2,6.2-2.3,11.7c-0.2,2.5-1.9,10.9-2,11.1c-0.2,0.8,3.6,3.7,4.9,0.9c1.3-2.8,2.2-12.2,4.2-16.8s2.5-6.2,3.2-7.5
		c0.8-1.3,1.6-2.2,1.5-5c0-2.8,5.9-18.9,9.7-20.4c1,1,4.9,8.3,5,10.8c0.2,2.5,1.2,6.7,2.3,8.1c0.2,2.3-0.5,5.8,0.7,8.1
		c1.2,2.3,3.5,5.1,3.9,6.2c0.5,1.1,0.2,2,1.1,2.1c0.9,0,2.8,0.1,2.7-1.3c-0.1-1.5-3.8-12.1-3.3-13.9c0.4-1.8,0.5-1.1,0.1-3
		s0.4-9.8,0.6-12.3s-0.4-9.9-1.7-14.5C50.1,104.9,27.8,100.6,27.8,100.6z"/>
	<path class="st7" d="M43.2,62.2c0.2,0,1.8-0.6,3.5-0.5c1.6,0.1,4.4,2.5,5.6,2.8c1.2,0.3,11,1.5,13.3,2c2.3,0.5,2,0.8,3.2,0.7
		c1.1-0.1,12.7,1.6,15.2,2s8.5-0.3,9.7-0.4c1.2-0.1,2.4-0.3,3.4,0.3c1,0.3,1.4,0.5,2.7,0.6c1.2,0.1,8.1,0.8,8.6,0.8
		c0.3,0,1.2,1.7-0.4,1.8s-7.6,0.5-7.6,0.5s0.4,1.4,0.2,1.9c-0.2,0.6-1.4,1.1-1.6,1.7s-0.5,1.2-1.3,1.2s-1.1,0-1.2,0.3
		c-0.1,0.4-1,0-1.1-0.3s0-0.9,0.1-1c0.1-0.1-3.3,0.7-4.3,0.3c-1-0.4-2.7-0.9-4.9-2.9c-1-0.1-19.9,0.4-20.9-0.3
		c-1-0.7-2.4-1.1-2.4-1.1S51.5,72.1,51.4,72S43.2,62.2,43.2,62.2z"/>
	<path class="st7" d="M36.5,74.6c0,0,12.1-0.2,12.3-2.1c0.4-5.2-5.5-10.1-6.1-10.6S41,60.6,41,60.6l0.3-2.7c0,0,2.6,1.6,6.8,1.9
		c4.1,0.3,8.8,0.8,9.2-7.2c0-0.3-0.1-3.6-0.1-4.1c0-0.3,0.6-0.4,0.5-0.8c-0.1-0.7-0.7-1.7-0.7-2.6c-0.1-2.8-0.3-5.7,1.9-9.4
		c-0.5-1-28.3-1.7-29.3-0.7c-1,1-5.6,8.2-5.2,9s9.2,11.4,9.4,11.6S36.5,74.6,36.5,74.6z"/>
	<path class="st10" d="M24.4,74c0,0,1.1,2.8,3.9,7.6s2.8,11-1.8,19.8c0,1.4-0.4,1.2,1.8,1.8s14.5,2.4,16.9,2.6
		c2.4,0.2,10.2-0.5,10.4-1.7c0.2-1.2-1.6-1.4-1.6-2.3c0-0.9,0-1.6-1.6-7.1c-1.6-5.5-1.5-3.1-0.6-5.6c0.9-2.5,4.7-11.5,3-13.5
		c-1.7-2-6.7-10.2-7.9-11.3c-1-0.9-2.5-2.2-3.4-2.6c-0.2-0.1-1.3-0.5-1.4-0.5c-0.7,0.5,4.4,4,4.8,6.8c0.5,2.9-0.4,5.4-2.8,4.4
		C40.6,71,33.8,61.8,31.8,60.9c-1.3-0.6-1.2,1,1.1,4.6c1.7,2.6,1.6,13.4-1,14.9C29.4,81.8,26.9,77.9,24.4,74z"/>
	<path class="st0" d="M20.3,158.9c-11.9,1.8-20.3,4.8-20.3,8c0,3.3,5.9,5,17,7.2c0.2-2.4,0.3-2.8,0.9-5.5c0.1-0.3-1.3-2.2-0.5-4.7
		c0.3-0.9,1.7-1.4,2.4-1.9C19.9,161.2,20.1,160.1,20.3,158.9z"/>
	<path class="st0" d="M78,158.9c-0.3,0,0.5,2.2-3.2,2.2c-4.8,0-8.5-1.7-14.1-3.6c-0.7-0.2-0.8-0.2-1.6-0.2c-0.7,0-1.7,0.7-2.4,0.7
		c-0.5,0-0.8-0.8-1.3-0.8c-1.8,0-3.7-0.1-5.6-0.1c-8.2,0-17,0.5-23.8,1.2c0,0.3-0.8,3.7-0.9,4.1c1.8,1.4,3,2.3,3.5,3.2
		c0.5,0.7,0.6,4.4,2,5c2,0.2,1.3,5.4,3.4,5.6c5,0.3,10.3,0.5,15.8,0.5c27.4,0,49.7-4.4,49.7-9.8C99.3,163.6,90.9,160.7,78,158.9z"/>
	<path class="st11" d="M48.3,54.1c0.3,0.2,0.5,0.4,0.8,0.5c0.3,0.2,0.8-0.2,1.2-0.1c0.7,0,1.7-0.8,2.4-0.7c0.7,0.1,1,0.7,1.7,0.8
		c0.2,0,0.9-0.6,1-0.5c0.6,0,0.9,0.6,1.2,0.8c-0.1,0.2-0.2,0.4-0.3,0.5c-0.4,0.4-1.1,1.4-2,1.2c-0.8,0-1.2-0.2-2-0.3
		c-0.7-0.1-1.2-0.7-2-0.9c-0.3-0.1-1.1-0.2-1.4-0.4C48.7,54.7,48.5,54.4,48.3,54.1z"/>
	<path class="st12" d="M42.3,84.8c0.3-0.9,0.9-1.7,1.6-2.4c0.7-0.7,1.5-1.2,2.4-1.7c0.9-0.5,1.8-0.8,2.7-1.1
		c0.5-0.1,0.9-0.2,1.4-0.3c0.5-0.1,1-0.1,1.4-0.1c-0.4,0.2-0.9,0.4-1.3,0.6c-0.4,0.2-0.9,0.4-1.3,0.6c-0.8,0.4-1.7,0.8-2.5,1.2
		c-0.8,0.4-1.6,0.9-2.3,1.4C43.6,83.5,42.9,84.1,42.3,84.8z"/>
	<path class="st12" d="M54.1,102.8c-0.8,0.6-1.7,1-2.7,1.4c-1,0.3-2,0.5-3,0.7c-1,0.1-2,0.1-3,0c-1-0.1-2-0.4-2.9-0.9
		c1,0,2,0.1,2.9,0.1c1,0,1.9-0.1,2.9-0.2C50.3,103.6,52.2,103.2,54.1,102.8z"/>
	<path class="st13" d="M19.7,162c-0.3,0-2.2,0.4-2.7,2.5c-0.4,1.6,0.6,3.2,0.6,4c0,0.8-1,4.7-0.7,6c0.3,1.3,0.6,1.7,1.7,2.7
		c1.2,0.9,10.2,8.1,12.9,7.8s4.9-0.5,5-1.6c0.1-1.1,0.6-4.6-0.7-5.6c-1.3-1-4.1-6.1-4.7-6.8s-1.2-1.1-1.3-1.5s-0.8-3-1.3-4.2
		c-0.6-1.3-3.2-3-3.5-3c-0.1,0.4-0.2,0.7-0.2,0.7s1.4,1.1,1,2.4c-0.5,1.8-1.5,1.9-3.3,1.4c-1.7-0.5-2.6-1.6-2.8-2.2
		C19.3,163.8,19.7,162,19.7,162z"/>
	<path class="st2" d="M20.3,173.5c2.4,1.3,4.7,2.7,7,4.2c1.1,0.8,2.3,1.6,3.1,2.9c0.8,1.3,0.8,2.8,0.6,4.1c-0.1-1.4-0.5-2.7-1.2-3.7
		c-0.8-1-1.9-1.7-3-2.5c-1.1-0.8-2.3-1.5-3.3-2.3C22.3,175.4,21.3,174.5,20.3,173.5z"/>
	<path class="st8" d="M58.8,148.1c0.8,1.7,4.9,2.7,4.9,2.7s-1.1,0.8-1.5,1c-0.4,0.1-2-0.4-2.9-0.9c-0.8-0.6-2.7-0.6-2.7-0.6
		l-0.9-2.4"/>
	<path class="st13" d="M56,149.9c0,0-1.2-0.2-1.5,0.5c-0.3,0.7,0.7,1.2,0.8,2.3c0,1.1-0.4,2.4-0.4,3.4c-0.1,0.9,1.5,2.1,2.2,1.9
		s2.9-1.1,4.3-0.3s10.6,3.8,13.8,3.3s2.7-0.7,2.7-0.7s1.4-4.6-1.7-5.3c-3.2-0.7-4-0.4-4.7-0.7c-0.7-0.3-5.5-3.3-6.1-3.6
		s-3.7-1.9-5.6-2L56,149.9z"/>
	<path class="st2" d="M63.2,153.1c1,0,2,0.3,2.9,0.5c1,0.2,1.9,0.5,2.9,0.8c0.9,0.3,1.9,0.7,2.8,1c0.5,0.2,0.9,0.4,1.4,0.6l0.7,0.3
		l0.3,0.2l0.2,0.1c0.1,0,0.2,0.1,0.3,0.2l0,0c0.2,0.3,0.2,0.4,0.3,0.6c0,0.2,0.1,0.3,0.1,0.5c0,0.3,0.1,0.7,0,1
		c0,0.6-0.1,1.3-0.2,1.9c-0.1-0.6-0.1-1.3-0.3-1.9c-0.1-0.3-0.1-0.6-0.2-0.9c0-0.1-0.1-0.3-0.1-0.4c0-0.1-0.2-0.3-0.1-0.2l0,0
		c0,0,0,0,0,0l-0.2-0.1l-0.3-0.1l-0.7-0.3l-1.4-0.5l-2.7-1.1l-2.7-1.1C65.1,153.9,64.2,153.5,63.2,153.1z"/>
	<path class="st14" d="M49.8,42.1c0,1.4-0.5,2.6-1,2.6s-1-0.4-1-1.8s0.5-3.4,1-3.4S49.8,40.6,49.8,42.1z"/>
	<path class="st15" d="M95.6,76.6c0,0,2.2-1.3,2.3-1.8c0.1-0.5-0.5-1.1-0.9-1.5c-0.4,0.3-1.5,0.5-2,0.2c0,0.5-0.7,0.4-0.7,0.4
		s2.1,0.1,2.4,0c0.4-0.1,1,0.6,0.9,0.7C97.6,74.6,95.9,76.2,95.6,76.6z"/>
	<path class="st15" d="M108.8,71.8c0,0-2.8,0.3-4.8,0.3c-2,0.1-5.7,0.2-5.7,0.2l0.8,0.5c0,0,7.9-0.5,8.8-0.5S108.8,71.8,108.8,71.8z
		"/>
	<path class="st15" d="M128,75.2c0,0-2.2-1.3-2.3-1.8s0.5-1.1,0.9-1.5c0.4,0.3,1.5,0.5,2,0.2c0,0.5,0.7,0.4,0.7,0.4s-2.1,0.1-2.4,0
		s-1,0.6-0.9,0.7C126,73.2,127.7,74.8,128,75.2z"/>
	<path class="st15" d="M114.7,70.7c0,0,3.4,0,5.7-0.1s6.8-0.4,6.8-0.4l-0.9,0.5c0,0-9.5,0.3-10.6,0.4
		C114.7,71.2,114.7,70.7,114.7,70.7z"/>
	<path class="st15" d="M86.5,73.3c0,0-13.4,0.5-16.1,0.3c-3.4-0.2-5.6-1.3-5.6-1.3S51.5,69.4,51,68.8c-0.5-0.6-1.6-1.1-1.6-1.1
		l2.8,4.3c0,0,10.9,0.5,11,0.6s2,1,2.6,1.2c2.2,0.7,20.5,0.2,20.5,0.2S86.3,73.4,86.5,73.3z"/>
	<path class="st16" d="M36.7,182.5c0,0-5.1,1-5.8,0.6c-0.2-0.1-11.5-7-12.7-8.2s-1.1-2.1-1.1-2.1l-0.2-0.1c0,0-0.7,1.9,0.5,3.3
		c1.4,1.7,10.9,8.3,11.6,8.5c0.7,0.2,2.1,0.6,3.1,0.5s4.4-0.5,4.5-1S36.9,182.3,36.7,182.5z"/>
	<path class="st16" d="M78,159.3c-0.5,0.7-2.7,1-3.2,1c-0.5,0-10.9-1.9-12-2.3c-1.1-0.4-4.3-1.4-5.6-1.1c-1.3,0.3-2.3-0.3-2.4-0.5
		s-0.2-0.1-0.2,0s0.1,1.8,0.6,1.9c0.5,0.1,1.9,0.2,2.3,0.1s2.5-0.4,3.2-0.1c0.7,0.3,12.3,3.1,13.4,3.1c1.1,0,3.6-0.6,3.8-1
		c0.1-0.3,0.2-1.3,0.1-1.3C78,159.2,78,159.3,78,159.3z"/>
	<path class="st15" d="M123.8,71c0,0-0.6,2.4-0.5,2.5c0,0.1,0.4,0.2,0.4,0.2L123.8,71z"/>
	<path class="st15" d="M125.2,71.5c0,0-0.6,2.4-0.6,2.5s0.3,0.4,0.3,0.4L125.2,71.5z"/>
	<path class="st15" d="M180.7,54.7c0,0,2.7-1.9,3.4-3.5c-0.3,3.5-2.9,5.2-3.4,5.7C180.8,55.2,180.7,54.7,180.7,54.7z"/>
	<path class="st15" d="M41.4,57.9c0,0-2.6-1.7-3.3-2.4c1.1,2.7,3,5.1,3,5.1L41.4,57.9z"/>
	<g>
		<circle class="st6" cx="31.8" cy="58.4" r="3.9"/>
		<circle class="st6" cx="26.9" cy="61.2" r="3.9"/>
		<path class="st6" d="M60.2,39.8c0.4-1.7,4.2-5.5,3.7-3.9c-0.5,1.9,1.8,3.3,1.4,5c-0.4,1.7-1.9,2.8-3.3,2.5
			C60.6,43.2,59.8,41.5,60.2,39.8z"/>
		<circle class="st6" cx="65" cy="35.1" r="3.9"/>
		<circle class="st6" cx="66.4" cy="28.4" r="3.9"/>
		<path class="st6" d="M39,60c0.2,2.1-1.1,8.6-1.9,6.6c-1.2-3.2-5-3.8-5.2-5.9c-0.2-2.1,1.4-4,3.5-4.2S38.8,57.8,39,60z"/>
		<circle class="st6" cx="18" cy="47.7" r="3.9"/>
		<circle class="st6" cx="19.4" cy="41.5" r="3.9"/>
		<path class="st6" d="M41,34.8c0.6,2.1,0.1,10.4-2,11c-2.1,0.6-1.8-8.2-5.6-8.9c-0.6-2.1,0.6-4.2,2.7-4.8
			C38.3,31.5,40.4,32.7,41,34.8z"/>
		<ellipse class="st6" cx="59.3" cy="27.5" rx="6.6" ry="4.8"/>
		<circle class="st6" cx="63.8" cy="22.8" r="3.9"/>
		<circle class="st6" cx="60.9" cy="17.9" r="3.9"/>
		<circle class="st6" cx="52" cy="32.1" r="3.9"/>
		<circle class="st6" cx="46.1" cy="31.6" r="3.9"/>
		<circle class="st6" cx="41.3" cy="34.5" r="3.9"/>
		<path class="st6" d="M58.2,35.7c0.1,1.4-0.9,2.7-2.3,2.8c-1.4,0.1-2.7-0.9-2.8-2.3s1-4.9,2.4-5C57,31,58.1,34.3,58.2,35.7z"/>
		<path class="st6" d="M58.1,37.6c0.1,1.1-1.8,0.8-1.7,2.1c0,1.1-2-0.7-2.1-1.7c-0.1-1.1,0.7-2,1.7-2.1S58,36.6,58.1,37.6z"/>
		<circle class="st6" cx="33.2" cy="29.1" r="3.9"/>
		
			<ellipse transform="matrix(0.9958 -9.159561e-02 9.159561e-02 0.9958 -2.0043 4.0018)" class="st6" cx="42.6" cy="23.8" rx="11.7" ry="9.3"/>
		
			<ellipse transform="matrix(0.9958 -9.159561e-02 9.159561e-02 0.9958 -1.3765 3.5575)" class="st6" cx="38.1" cy="16.8" rx="11" ry="8.8"/>
		
			<ellipse transform="matrix(0.9958 -9.159561e-02 9.159561e-02 0.9958 -1.4131 4.5162)" class="st6" cx="48.5" cy="17.7" rx="11" ry="8.8"/>
		
			<ellipse transform="matrix(0.9958 -9.159561e-02 9.159561e-02 0.9958 -1.8908 2.3264)" class="st6" cx="24.4" cy="21.8" rx="8.3" ry="8.6"/>
		
			<ellipse transform="matrix(0.9958 -9.159561e-02 9.159561e-02 0.9958 -2.79 1.5517)" class="st6" cx="15.5" cy="31.2" rx="8.3" ry="8.6"/>
		
			<ellipse transform="matrix(0.9958 -9.159561e-02 9.159561e-02 0.9958 -1.5426 3.5805)" class="st17" cx="38.2" cy="18.6" rx="9.9" ry="8"/>
		
			<ellipse transform="matrix(0.9958 -9.159561e-02 9.159561e-02 0.9958 -1.5836 4.545)" class="st17" cx="48.7" cy="19.5" rx="11" ry="8.8"/>
		
			<ellipse transform="matrix(0.9958 -9.159561e-02 9.159561e-02 0.9958 -2.1384 2.4105)" class="st17" cx="25.2" cy="24.5" rx="7.6" ry="7.9"/>
		
			<ellipse transform="matrix(0.9958 -9.159561e-02 9.159561e-02 0.9958 -2.8745 1.8647)" class="st17" cx="18.9" cy="32.2" rx="8.3" ry="8.6"/>
		<circle class="st6" cx="57.7" cy="23" r="3.9"/>
		<circle class="st6" cx="39" cy="19.2" r="7.7"/>
		<circle class="st6" cx="48.7" cy="21.2" r="9.7"/>
		<circle class="st6" cx="27.2" cy="26.7" r="8.3"/>
		<circle class="st6" cx="19.4" cy="33.8" r="7.7"/>
		<ellipse class="st6" cx="31.8" cy="35" rx="6.2" ry="5.2"/>
		<circle class="st6" cx="27.1" cy="39.8" r="3.9"/>
		<circle class="st6" cx="25" cy="43.5" r="4.7"/>
		<circle class="st6" cx="33.6" cy="53.7" r="3.9"/>
		<circle class="st6" cx="30.4" cy="50.1" r="3.9"/>
		<circle class="st6" cx="29.1" cy="46.6" r="3.9"/>
		<circle class="st6" cx="24.4" cy="53.2" r="7.1"/>
		<path class="st6" d="M20.7,49.4c0.9-1.3,1.4-3,1.3-4.7c-0.4-3.9-4.9-7.8-8.8-7.4c-3.9,0.4-5.6,4.8-5.3,8.7c0.3,3,1.9,4.2,4.7,5
			c-0.9,1.3-1.4,3.1-1.2,4.8c0.4,3.9,5,7.3,8.9,7c3.9-0.4,5.9-3.3,5.6-7.2C25.6,52.6,23.5,50.2,20.7,49.4z"/>
		<path class="st17" d="M64.3,36c-0.1-0.9,1-2.2,0.3-4.3s-1.3-2-2.6-2c0.5-1.6,0.3-4.2-2.3-4.8c-2.6-0.6-4.5,0.9-3.6,1.2
			S61,27,61,28.8s2.1,1.8,2.3,2.8C63.5,32.6,64.3,36,64.3,36z"/>
		<path class="st17" d="M55.8,37.1c0.3,0.8-0.5-1.9-0.2-2c0.3-0.1,2.6-0.2,2.7-1.4c0.1-1.2,0-2.7-0.3-3s-1.1-1-0.7-0.1
			c0.3,0.9,0.3,2.1-0.1,2.5c-0.4,0.4-1.2,0.4-1.7,0.9C55,34.6,54.5,34.1,55.8,37.1z"/>
		<path class="st17" d="M23.2,40.6c0.1,0.3,3.4,2.3,4,3.6s-0.4,2,0.3,3.3c0.7,1.3,1.4,0.2,1.9,1.7c0.5,1.6-0.4,1.9,0.2,2.5
			c0.6,0.5,2.5-0.1,2.9,1.5c0.4,1.6-0.7,2.8,0.7,3.1c1.4,0.3,2.3,0.5,2.7,2c0.4,1.5,0.6,2.9,0,1.8c-0.6-1.2-2.8-3.5-3.9-3.2
			c-1.1,0.2-1.9,0.5-1.6-0.9s0.8-2.8-0.7-3.1c-1.5-0.3-2.3,0.3-2.4-1.2s0.5-1.7-0.2-2.5c-0.8-0.9-2.1-0.2-1.8-2.1
			c0.3-1.8,1.2-1.7-0.2-3C23.7,42.7,23.3,41.6,23.2,40.6"/>
		<path class="st17" d="M13.4,39.8c0.2-0.5-5.3,5.1-1.2,9.6c1.5,0.9,1.5,0.9,1.5,0.9s-1.2,0.5-0.4,4c0.8,3.4,1.8,6.4,6,6.5
			c4.2,0.2,1-4.3-0.4-4.9c-1.4-0.6-2.2-2.1-2.4-4.2c-0.2-2-1.4-3.3-1.8-3.5S10.7,45.9,13.4,39.8z"/>
		<path class="st17" d="M46.6,24c-0.2-0.6-5.9-2-6.9-0.5c-1,1.5-2.1,0.7-3.2,0.8c-1.1,0.1-4.5,0.5-4.9,2c-0.4,1.5,0.3,2.8-0.9,3
			s-2.1-0.3-2.2,1.2c-0.1,1.5,0.1,4.3,0.8,3c0.7-1.3-0.1-2.3,1.4-2.5c1.5-0.2,1.7-0.2,2.1-1.1c0.4-0.9-2.7-2.2,1-2.9
			c3.7-0.8,4,1.4,5.9-0.5s0.7-3,3.4-2.9C45.9,23.6,46,24,46,24L46.6,24z"/>
	</g>
	<g>
		<defs>
			<polygon id="SVGID_1_" points="133.4,13.5 225.7,11 218.1,169.1 126.1,158.7 			"/>
		</defs>
		<clipPath id="SVGID_2_">
			<use xlink:href="#SVGID_1_"  style="overflow:visible;"/>
		</clipPath>
		<circle class="st18" cx="163.2" cy="33.1" r="2.6"/>
		<circle class="st18" cx="180.4" cy="55.5" r="2.6"/>
		<circle class="st18" cx="177.6" cy="57" r="2.6"/>
		<circle class="st18" cx="199.9" cy="60.8" r="2.6"/>
		<circle class="st18" cx="202.8" cy="56.7" r="3.7"/>
		<circle class="st18" cx="197.2" cy="56.5" r="4.2"/>
		<ellipse class="st19" cx="175.2" cy="166.2" rx="35.2" ry="7.4"/>
		<polygon class="st20" points="128.9,104.6 182.8,102.9 183.5,129.2 127.4,133.9 		"/>
		<polygon class="st21" points="183.5,129.2 126.9,144 127.4,133.9 		"/>
		<polygon class="st22" points="219.1,149.1 183.5,129.2 182.5,102.3 221.4,101 		"/>
		<polygon class="st23" points="183.5,129.2 221.4,101 181.9,101.1 		"/>
		<polygon class="st24" points="128.8,106.6 129,101.1 221.5,98.3 221.4,101.3 		"/>
		<polygon class="st25" points="129.8,86 191,85.8 221.5,98.3 129,101.1 		"/>
		<polygon class="st26" points="161.1,99.4 140.3,99.4 131.6,88.3 161.1,89 		"/>
		<path class="st27" d="M142.3,99.5c0,0,24.9,0,25.5-0.7C168.5,98.1,161,87,161,87l-1.9-13.7h-22.9l1.5,16L142.3,99.5z"/>
		<path class="st28" d="M195.5,162.2c0,0-1,4-1,5.6c0,1.6,0.9,2.2,1.4,2.2c0.5,0,2.5,0.9,3.6-1s2.8-4.5,2.8-4.5l-0.3-2.4
			L195.5,162.2z"/>
		<path class="st29" d="M166.9,103c0,0-1.8,7.8-1.3,12.9s0.4,6.9,0.1,8c-0.3,1.1-0.2,3.4,0,4.9c0.2,1.6-1.3,7.8-1.4,8
			c0,0.2-3.2,10.2-3.4,11.2c-0.1,1-1.2,1.7-1,1.7c0.2,0,6,0.2,6,0.1c0,0,3.7-9.4,4.4-10.7c0.6-1.3,1.2-8.7,1.2-9.3
			c0-0.6,0.4-6.4,1.6-8.5c1.1-2.1,4.5-9.3,4.5-9.3s4.6,8.5,6.5,10.8s3.9,13.9,4.4,14.7c0.5,0.8,1.9,1.1,2.4,3.9s0.2,2.9,2,8.4
			c1.8,5.5,2.6,10,2.2,12.6c0.2,0.9,5.1,2.1,7-0.5c-0.3-1.6-0.9-3.4-1-7.5c-0.1-4.2-1.1-12.3-2.3-15.5c-1.2-3.2-2.3-14.9-2.2-18.1
			c0.1-3.1,0.1-7.9,0.8-11.6s-1.9-8.8-3.2-9.5C192.9,99.1,168.6,105.5,166.9,103z"/>
		<path class="st30" d="M177.1,106.2c2.4-0.1,5.6,0.1,7.8,0.2c2.2,0.2,2.1,1.2,3.2,1.9s2.9,1.2,3.6,0.6s1.6-2,2.4-1.2
			c0.8,0.8,1.9,1.1,2.4,0.5c0.5-0.6,1-2,0.9-2.5c-0.1-0.6-1.1-5.7-3.1-6.1c-2-0.4-25.3,1.7-25.3,1.7S170.2,106.6,177.1,106.2z"/>
		<path class="st28" d="M162.7,23.8c0,0-1.9,4.1,0.2,8.5s2.7,4.5,1.8,11.5c-0.1,0.7-0.9,2-1,2.6c-0.1,0.6,0.6,0.6,0.6,1.1
			c-0.3,4.4,0.5,6.8,4.9,8.6c5.6,2.3,11.2-1,11.5-1.2c0,1.6-0.2,2.2-0.2,2.2s-3.9,3.7-4.9,5.1s-3.6,5,2.5,2.7
			c6.1-2.3,12.7-9.4,12.7-9.4s-1.1-2.9-0.2-3.9c0.9-1,1.8-0.8,1.4-1.8c-0.4-1.1-0.4-4.7-0.1-5.8c0.3-1.2,0-0.5,2.1-2.6
			s1.7-6.4,0.5-7.8c-1.2-1.4-8-3.6-8-3.6l-6.9-5.4c0,0-6.9-3.8-9.9-2.6C166.7,23,162.7,23.8,162.7,23.8z"/>
		<path class="st31" d="M178.2,58.2c0,0-3.5,0-4.4,0.6c-0.9,0.6-6.9,1.9-7.6,2s-8.2,1.7-8.5,1.9c-0.3,0.3-3.5-0.2-11,2.3
			c-1.3,0-8.8,1.3-8.8,1.3l0.2,6.8c0,0,4.4-2.6,6.5-2.7c2.1-0.1,11.4-1.2,13.1-2c1.3,0.1,9.9,0.2,11.1,0c-1.1,1.5-1.8,1.8-2.8,4.1
			c-1.7,3.9,1.7,8.5,2.4,10.9c0.7,2.3,1.6,6.2,0.4,9.3c-1.2,3.2-2.2,6.1-2,7.7c0.2,1.5-0.2,1.2-0.4,1.5c-0.2,0.3-0.8,0.6,0,1.4
			c0.8,0.8,3.7,1.7,3.8,1.5c0.1-0.2,1.4-1.9,1.3-1.7c0,0,0.5,0.8,0.8,1.3c0.3,0.5,1.7,1,3.2,0.6c1.5-0.4,5.1-0.7,6.7-0.5
			c1.5,0.2,6-1.1,6.4-1.5c0.4-0.3,2.8-1.4,2.8-1.4s6.9,0.5,5.8-1.1c-1.2-1.8-2.2-6.6-2.2-6.6s-1.9-2.6-2.3-4.1
			c-0.4-1.5-2.1-10,0.5-13.2s4.2-4.7,4.2-4.7s5.3,3.6,6.7,5s5.1,4.7,5.1,4.7s-1.2,0.5-2.3,1.2c-1.1,0.7-6.6,5.5-7.6,5.9
			s-3.6,2.2-3.6,2.2s3.6,5.5,3.8,5s1.2-1.8,2.1-2.3c0.9-0.5,12-5.7,13.1-7.2s2.7-2.5,3-2.7c0.3-0.1,0.2-3.1-0.7-3.5
			s-8.4-7.5-9.2-8.9s-3.9-5.9-4.8-7.3c-0.9-1.4-3.1-6.2-5.2-6.3c-2.1-0.1-4-0.7-4-0.8c0-0.1-0.7-1.3-0.6-1.8s0.4-1.1,0.1-1.1
			s-5.6,1.6-5.6,1.6s-5.2,1.7-6,3.1c-0.8,1.4-4,5.4-4,5.4s-2.6,2.1-3.6-0.1c-0.1-0.1,2-3.4,2-3.4L178.2,58.2z"/>
		<path class="st29" d="M173.4,82.3c0,0-0.6-16.9,1.3-19.5c2-2.6,3.3-4.3,3.3-4.3s-7.4,5-7.6,6c-0.1,1,2.2,1.8,2,3
			c-0.2,1.2-2.4,4-2,5c0.4,1.1,1.8,1.4,1.9,3.3C172.5,77.7,173.4,82.3,173.4,82.3"/>
		<path class="st29" d="M169.2,100.4c0.8-0.4,1.6-0.8,2.6-0.9c0.9-0.1,1.9-0.1,2.8,0.2c1.7,0.5,3.3,0.7,5.1,0.9
			c-0.9,0.3-1.8,0.4-2.7,0.4c-0.9,0-1.8-0.1-2.7-0.4c-0.8-0.2-1.6-0.3-2.5-0.4C170.9,100.2,170.1,100.3,169.2,100.4z"/>
		<path class="st29" d="M171.6,83.3c0.8-0.2,3.8,0,4.6,0c1.7,0,3.8-0.2,5.5,0c-1.6,0.5-4.8,0.3-6.5,0.3
			C173.5,83.6,173.3,83.7,171.6,83.3z"/>
		
			<ellipse transform="matrix(0.9984 -5.675411e-02 5.675411e-02 0.9984 -1.9964 9.8629)" class="st32" cx="172.6" cy="40.1" rx="1.1" ry="2.6"/>
		<path class="st33" d="M191.7,92.4c0,0-3-2.9-4.3-2.8c-1.2,0.2-6.5,3.4-6.3,4.2c0.1,0.8,6.3,4.8,6.8,5.3"/>
		<path class="st34" d="M191.2,93.1c0,0-2.4-2.3-3.3-2.2c-0.9,0.1-5.1,2.6-5,3.3c0.1,0.7,5.3,3.9,5.7,4.4"/>
		<path class="st35" d="M182.3,93.4c0-0.1,0.1-0.2,0.2-0.3c0.2-0.1,0.4,0,0.4,0.1c0,0.1-0.1,0.2-0.2,0.3
			C182.5,93.6,182.3,93.5,182.3,93.4z"/>
		<path class="st35" d="M182.9,92.9c0-0.1,0.1-0.2,0.2-0.3c0.2-0.1,0.4,0,0.4,0.1c0,0.1-0.1,0.2-0.2,0.3
			C183.2,93.1,183,93,182.9,92.9z"/>
		<path class="st36" d="M186.5,90.7c0-0.1,0.1-0.2,0.2-0.3c0.2-0.1,0.4,0,0.4,0.1c0,0.1-0.1,0.2-0.2,0.3
			C186.7,90.8,186.6,90.8,186.5,90.7z"/>
		<path class="st37" d="M160.6,149.1c0,0-4.6,3.3-5.9,4.5c-1.3,1.2-1.3,1.3-0.4,1.8c0.9,0.5,9.4-3.7,10.1-4.1
			c0.6-0.4,1.1-1.2,1.1-1.2s0.7-0.9,1.2-0.6c0.5,0.3,0.5,1.8,0.9,2.4c0.4,0.6,1.2,3,0.2,4.7s-1.2,1.4-1.2,2.4
			c0.1,1.1-0.2,1.2-0.5,1.3c-0.3,0-1.1-3-2.1-3.1c-0.9-0.1-2,0.7-3.1,1.8c-1.1,1.1-3.3,3.7-8.4,3.7s-8,0.6-8.7-0.4s0.6-2.8,1-3.1
			c0.4-0.3,8.9-5.4,8.9-5.4L160.6,149.1z"/>
		<path class="st37" d="M201.9,162.4c0,0,0,1.5-0.4,2c-0.4,0.6-2.7,3.3-3.4,4.6c-0.7,1.2-2.5,0.8-3,0c-0.4-0.8,0-5.9,0-5.9
			s-2.4,4.6-2.1,6.4c0.2,1.8,7.6,1.5,7.6,1.5s1.6-0.6,1.6-1.7s0.2-2.5,0.7-3C203.3,165.8,203.7,163.3,201.9,162.4z"/>
		<path class="st38" d="M136.3,73.6c0.4,2.6,0.6,5.2,0.9,7.9c0.2,2.6,0.4,5.2,0.5,7.9l0-0.2c0.8,1.7,1.6,3.4,2.4,5.1
			c0.4,0.9,0.8,1.7,1.1,2.6c0.4,0.9,0.7,1.7,1.1,2.6c-0.5-0.8-1-1.6-1.5-2.4c-0.5-0.8-0.9-1.7-1.4-2.5c-0.9-1.7-1.8-3.3-2.7-5l0-0.1
			l0-0.1c-0.2-2.6-0.3-5.3-0.4-7.9C136.3,78.9,136.2,76.2,136.3,73.6"/>
		<path class="st38" d="M164.2,94.4l-4.3-7.2l-0.1-0.2l-0.3,0c-3.3,0.1-6.5,0.2-9.8,0.4c-2.5,0.1-5.1,0.2-7.6,0.4l0,0l-0.1,0
			c-0.7,0-1.4,0.1-2.1,0.1c0.6,0,1.2,0,1.8,0l-0.1,0l0.4,0.9l-1.7,0l0,0.1c-0.1-0.3-0.3-0.6-0.4-0.9c0.1,0.4,0.3,0.8,0.4,1.3l0,0.1
			l0,0c0.7,2,1.3,4,2.1,6.1l0.1,0.2l0.2,0c3.5,0,7-0.1,10.5-0.2l10.5-0.3l0.8,0L164.2,94.4z M143.7,91.8l2.4-0.1l0.7,1.6l-2.5,0.1
			L143.7,91.8z M144.2,93.4l-1.8,0c-0.2-0.5-0.4-1.1-0.7-1.6l1.8,0L144.2,93.4z M157.5,91l-1.9,0l-0.7-2l1.7,0L157.5,91z M157,89
			l1.7,0l1,2l-1.9,0L157,89z M157.7,91.5l0.8,1.6l-2.2,0l-0.6-1.6L157.7,91.5z M158,91.4l2,0l0.8,1.6l-2.1,0L158,91.4z M160.2,91.4
			l1,0l0-0.3l1.1,1.9l-1.4,0L160.2,91.4z M160,90.9l-0.9-2l0.9,0l1.1,2L160,90.9z M158.9,88.4l-0.3-0.6c0.2,0,0.5,0,0.7,0l0.3,0.6
			L158.9,88.4z M158.4,88.5l-1.6,0l-0.3-0.6c0.5,0,1.1,0,1.6,0L158.4,88.5z M156.3,88.5l-1.7,0l-0.3-0.7c0.5,0,1.1,0,1.6,0
			L156.3,88.5z M154.2,88.6l-2,0l-0.3-0.7c0.6,0,1.3,0,1.9,0L154.2,88.6z M154.4,89l0.9,2l-2.1,0l-0.8-2L154.4,89z M152.9,91.1l-2,0
			l-0.7-2l1.9,0L152.9,91.1z M150.6,91.1l-1.9,0l-0.7-2l1.7,0L150.6,91.1z M147.8,88.7l-0.3-0.8c0.5,0,1.1,0,1.6,0l0.4,0.8
			L147.8,88.7z M147.3,88.7l-2.1,0l-0.3-0.9c0.7,0,1.4,0,2.1,0L147.3,88.7z M147.5,89.2l0.8,2l-2.2,0l-0.7-2L147.5,89.2z
			 M148.6,91.7l0.7,1.6l-2.3,0.1l-0.6-1.6L148.6,91.7z M145.9,91.2l-2.3,0.1l-0.7-2l2.2,0L145.9,91.2z M147.1,93.8l0.4,1
			c-0.9,0-1.7,0.1-2.6,0.1l-0.4-1L147.1,93.8z M147.1,93.8l2.3-0.1l0.4,0.9c-0.8,0-1.5,0.1-2.3,0.1L147.1,93.8z M149.5,93.8l2.2,0
			l0.4,0.9c-0.8,0-1.5,0.1-2.3,0.1L149.5,93.8z M149.4,93.3l-0.6-1.6l2,0l0.7,1.6L149.4,93.3z M151,91.6l2.1,0l0.7,1.6l-2.2,0
			L151,91.6z M153.4,91.5l2.1,0l0.7,1.6l-2.2,0.1L153.4,91.5z M156.4,93.6l0.4,0.8l-2.3,0.1l-0.3-0.8L156.4,93.6z M156.5,93.6l2.2,0
			l0.4,0.8l-2.3,0.1L156.5,93.6z M158.8,93.5l2.2,0l0.4,0.7l-2.3,0.1L158.8,93.5z M161.1,93.5l1.4,0l0.4,0.7l-1.5,0.1L161.1,93.5z
			 M149.8,87.9c0.5,0,1.1,0,1.6,0l0.3,0.7l-1.8,0l-0.3-0.8C149.7,87.9,149.8,87.9,149.8,87.9z M142.2,87.8c0.7,0,1.4,0,2.1,0
			l0.4,0.9l-2.2,0L142.2,87.8z M142.4,89.3l0.9,2l-1.8,0c-0.3-0.7-0.6-1.3-0.9-2L142.4,89.3z M142.6,93.9l1.8,0l0.5,1
			c-0.6,0-1.2,0.1-1.8,0.1C142.9,94.6,142.7,94.3,142.6,93.9z M153.3,94.5c-0.4,0-0.8,0-1.1,0l-0.3-0.9l2.2-0.1l0.4,0.8L153.3,94.5z
			"/>
		<g class="st39">
			<path class="st40" d="M151.9,98.5l-1.3-2.7l5.9-0.2l1.8,2.5L151.9,98.5z M151.4,96.3l0.8,1.7l5.1-0.3l-1.1-1.5L151.4,96.3z"/>
		</g>
		<line class="st20" x1="183.5" y1="128.7" x2="171.6" y2="129.8"/>
		<path class="st29" d="M174.4,63.9c0,0-1.4,12.3-0.6,16.4c1.2-5.7,3.9-15.4,4.6-16.4C177.6,65,174.7,66,174.4,63.9z"/>
		<path class="st31" d="M174.1,81.3c0,0-1.4-15.9,1.2-18.6c1.4-1.4,4.7-4.9,5.3-5.6c0.1-0.3,0.1-0.6,0.1-0.6s-9.3,6.4-9.5,7.4
			c-0.1,1,2.2,1.8,2,3c-0.2,1.2-2.4,4-2,5c0.4,1.1,1.8,1.4,1.9,3.3s0.5,6.3,0.5,6.3L174.1,81.3z"/>
		<path class="st29" d="M174.4,81.4c0,0,0.2-0.3,0.5-0.8c1.6-2.4,6.3-9.6,6.6-10.2c0.3-0.7-1.5-1.5-1.6-2.1
			c-0.1-0.6,2.7-1.5,3.5-2.6c0.8-1.1-1.3-4.3-0.6-5.8c0.7-1.5,6.6-3.7,6.6-3.7s-5.2,3.6-5.4,4.1c-0.2,0.5,1,5.2,0.6,6.1
			c-0.4,0.9-1.7,1.9-1.9,2c-0.2,0.1,1.1,1.5,0.2,2.8s-8.4,10.2-8.4,10.2"/>
		<path class="st29" d="M138.2,71.7c0,0,4.7-1.7,5.5-1.8c0.8-0.1,4.9-0.6,7.9-1c2.9-0.4,7.3-1.9,7.8-2.1s7.2-0.2,8.6-0.6
			c1.6-0.4,3.3-1.6,3.3-1.6s-1.9,3.6-2.3,4c-0.3,0.4-10.4,0-11.3,0c-0.8,0.3-8.8,1.9-13.4,2c-1.3,0.3-6.3,2.6-6.3,2.6L138.2,71.7z"
			/>
		<path class="st29" d="M210.9,81.7c0,0-14.2-11.4-14.4-11.6c-0.2-0.3-1.1-0.5-2.1-0.4c-1.2,0.1-2.9,1.8-3.6,3.8
			c-0.4,1.2-0.5,3.2-0.5,3.2s2.9-5.9,5.1-5.5c0.7,0.1,1,1.9,1,1.9l0.8-0.7l12.1,9.6L210.9,81.7z"/>
		<path class="st28" d="M196.5,91.1l-2.4,0.9c0,0-5.6-0.4-5.8-0.4c-0.2,0-1.4,0.8-1.6,1.3c-0.2,0.5-1.1,3.7-1.2,4.5
			c-0.1,0.8-0.2,1.4,0.2,1.5c0.4,0.1,0.9,2.3,1.3,2.5s1.3-0.1,1.5,0.4c0.2,0.4,0.6,1.4,1.1,1.2s1.3-0.5,1.3-0.5l1.6,0.4l0.4-0.2
			l-0.7-2.4c0,0,1.1-0.1,1.3-1c0.4-0.1,1.9,0.5,2.2-0.4c0.2-0.9,0.7-2.1,2.2-2.5c1.4-0.4,1.7-1.3,1.7-1.3L196.5,91.1z"/>
		<polygon class="st41" points="188.5,101.5 187.7,98.6 187.3,101.5 		"/>
		<polygon class="st41" points="191,102.5 190.1,99.6 190.4,102.7 		"/>
		<polygon class="st41" points="186.4,100.1 186.8,96.8 186,99.3 		"/>
		<path class="st29" d="M173.5,83.4c0,0-0.3,5.1-0.4,8s-1.9,7.9-1.9,9.5c0.1,1.6,0.4,2.4,0.4,2.4s-1.6-1.5,0.1-7.1
			C172.8,92.6,173.5,83.4,173.5,83.4z"/>
		<path class="st28" d="M161.2,148.9c0,0-5.9,3.5-8.1,5.7c-0.5,1.4,1,2.1,3.6,1.1c2.7-1,9.2-3.9,9.3-4.5c0.1-0.6,0-2.6,0-2.6
			L161.2,148.9z"/>
		<polygon class="st42" points="159.9,86.2 139.7,86.7 137.8,74.6 158.5,74.2 		"/>
		<polygon class="st43" points="159.9,86.3 159.5,86.3 158.2,74.5 137.9,74.9 137.8,74.6 158.5,74.2 		"/>
		<path class="st44" d="M175.6,50.4c-0.4,0.2-1.3,1.7-3.6,1.5c-0.8,0-1.8-0.8-2.6-0.7c-0.8,0.1-1.1,0.7-1.9,0.9
			c-0.2,0-1-0.6-1.1-0.6c-0.7,0-1.4,0.3-1.7,0.5c0,0.2,0,0.5,0.1,0.6c0.2,0.2,1,0.7,1.2,0.8c-0.2,1,0.6,1.5,1.5,1.7
			c1.3,0.2,1.8,0,2.5-0.3C174.1,53.2,175.4,50.8,175.6,50.4z"/>
		<g class="st39">
			<path class="st6" d="M189.7,52.5c0,2.2,2.1,2.5,4.2,2.5c2.2,0,3.5-0.2,3.6-2.3c0-2.2-1.7-3.9-3.8-4S189.7,50.4,189.7,52.5z"/>
			<circle class="st6" cx="161" cy="27.8" r="3.9"/>
			<path class="st6" d="M186.4,53c0,2.2,1.7,8.5,2.4,6.4c1-3.3,4.7-4.1,4.8-6.3c0-2.2-1.7-3.9-3.8-4C187.6,49.1,186.5,50.8,186.4,53
				z"/>
			<circle class="st6" cx="206.6" cy="40.9" r="3.9"/>
			<circle class="st6" cx="204.8" cy="34.9" r="3.9"/>
			<path class="st6" d="M184.1,32.5c-1.1,5.7,2.1,8.1,3.2,8.4c-0.2-1.4-0.5-5.6,2-6.5c0.4-1.7-0.3-4.4-1.8-4.7
				S184.4,30.8,184.1,32.5z"/>
			<circle class="st6" cx="164.1" cy="27" r="3.9"/>
			<circle class="st6" cx="158.5" cy="22.7" r="3.9"/>
			<circle class="st6" cx="161" cy="17.2" r="3.9"/>
			<circle class="st6" cx="165.2" cy="13.5" r="3.9"/>
			<circle class="st6" cx="171.6" cy="27.8" r="3.9"/>
			<circle class="st6" cx="177.5" cy="26.9" r="3.9"/>
			<circle class="st6" cx="182.4" cy="29.5" r="3.9"/>
			<path class="st6" d="M165.6,31.8c0,1.4,1.1,2.6,2.5,2.6c1.4,0,2.6-1.1,2.6-2.5c0-1.4-1.4-4.8-2.8-4.8
				C166.6,27.1,165.7,30.4,165.6,31.8z"/>
			<path class="st6" d="M165.9,33.7c0,1.1,1.8,0.7,1.9,2c0,1.1,1.9-0.8,2-1.9s-0.8-1.9-1.9-2S165.9,32.7,165.9,33.7z"/>
			<circle class="st6" cx="190.2" cy="23.5" r="3.9"/>
			
				<ellipse transform="matrix(2.202121e-02 -0.9998 0.9998 2.202121e-02 157.5412 198.8354)" class="st6" cx="180.4" cy="18.9" rx="9.3" ry="11.7"/>
			
				<ellipse transform="matrix(0.1908 -0.9816 0.9816 0.1908 139.6539 196.1326)" class="st6" cx="188.8" cy="13.4" rx="8.8" ry="11"/>
			
				<ellipse transform="matrix(0.1908 -0.9816 0.9816 0.1908 131.7847 182.8375)" class="st6" cx="176.8" cy="11.5" rx="8.8" ry="11"/>
			
				<ellipse transform="matrix(0.1908 -0.9816 0.9816 0.1908 144.1671 213.6121)" class="st6" cx="201.7" cy="19.4" rx="8.6" ry="8.3"/>
			
				<ellipse transform="matrix(2.202121e-02 -0.9998 0.9998 2.202121e-02 175.7083 232.233)" class="st6" cx="206.6" cy="26.3" rx="8.6" ry="8.3"/>
			
				<ellipse transform="matrix(0.1908 -0.9816 0.9816 0.1908 137.377 194.5442)" class="st17" cx="186.7" cy="13.9" rx="8" ry="9.9"/>
			
				<ellipse transform="matrix(0.1908 -0.9816 0.9816 0.1908 131.0466 185.2338)" class="st17" cx="177.9" cy="13.1" rx="8.8" ry="11"/>
			
				<ellipse transform="matrix(0.1908 -0.9816 0.9816 0.1908 139.927 212.8127)" class="st17" cx="199" cy="21.5" rx="7.9" ry="7.6"/>
			
				<ellipse transform="matrix(2.202121e-02 -0.9998 0.9998 2.202121e-02 171.1286 227.9549)" class="st17" cx="202.1" cy="26.5" rx="8.6" ry="8.3"/>
			<circle class="st6" cx="165.8" cy="22.4" r="4.7"/>
			<circle class="st6" cx="187.3" cy="15" r="7.7"/>
			<circle class="st6" cx="174.4" cy="17.1" r="10.7"/>
			<circle class="st6" cx="192.3" cy="22.7" r="9.3"/>
			<circle class="st6" cx="202.1" cy="27.9" r="7.7"/>
			<circle class="st6" cx="190.9" cy="30.6" r="3.9"/>
			<circle class="st6" cx="197" cy="33.7" r="3.9"/>
			<circle class="st6" cx="199.3" cy="37.3" r="4.7"/>
			<circle class="st6" cx="191.4" cy="48.1" r="3.9"/>
			<circle class="st6" cx="194.4" cy="44.2" r="3.9"/>
			<circle class="st6" cx="195.5" cy="40.7" r="3.9"/>
			<circle class="st6" cx="200.6" cy="46.9" r="7.1"/>
			<path class="st6" d="M203,41.7c-1-1.3-1.6-2.9-1.6-4.6c0.1-3.9,4.4-8.1,8.3-8c3.9,0.1,5.9,4.4,5.9,8.3c-0.1,3-1.6,4.3-4.3,5.3
				c1,1.3,1.6,3,1.6,4.7c-0.1,3.9-4.5,7.7-8.4,7.6c-3.9-0.1-6.1-2.9-6.1-6.8C198.4,45.2,200.4,42.6,203,41.7z"/>
			<path class="st17" d="M159.2,25.9c0-0.9-1.1-2.1-0.6-4.3c0.5-2.1,1.1-2.1,2.4-2.1c-0.6-1.6-0.6-4.1,2-5c2.5-0.8,4.6,0.6,3.7,1
				s-4.8,1.3-4.7,3s-2,1.9-2.1,3C159.8,22.6,159.2,25.9,159.2,25.9z"/>
			<path class="st17" d="M168.2,33.1c-0.3,0.8,0.4-1.9,0-2c-0.3-0.1-2.6,0-2.7-1.2s-0.2-2.7,0.1-3c0.3-0.3,1-1.1,0.7-0.1
				s-0.2,2.1,0.3,2.5c0.4,0.3,1.2,0.3,1.7,0.8S169.3,29.9,168.2,33.1z"/>
			<path class="st17" d="M200.9,34.3c0,0.3-3.2,2.6-3.7,3.9c-0.5,1.3,0.6,2-0.1,3.3c-0.6,1.3-1.4,0.3-1.8,1.9
				c-0.4,1.6,0.5,1.9-0.1,2.5s-2.5,0.1-2.8,1.7s0.9,2.7-0.5,3.1s-2.3,0.6-2.5,2.2c-0.3,1.5-0.4,3,0.1,1.7c0.5-1.2,2.6-3.6,3.6-3.5
				c1.1,0.1,1.9,0.4,1.6-1c-0.4-1.5-1-2.8,0.5-3.1c1.5-0.4,2.4,0.1,2.3-1.3s-0.7-1.6,0.1-2.5c0.7-0.9,2.1-0.4,1.7-2.2
				c-0.4-1.8-1.3-1.6,0-3S200.9,35.3,200.9,34.3"/>
			<path class="st17" d="M209.4,31.9c-0.2-0.5,5.7,4.7,1.9,9.5c-1.4,1-1.4,1-1.4,1s1.2,0.5,0.7,3.9s-1.3,6.5-5.5,6.9
				c-4.2,0.5-1.3-4.2,0.1-4.9c1.4-0.7,2.1-2.3,2.1-4.3c0-2,1.1-3.4,1.6-3.6C209.2,40.1,212.4,37.8,209.4,31.9z"/>
			<path class="st17" d="M176.4,19.4c0.2-0.6,5.7-2.4,6.9-0.9s2.2,0.6,3.3,0.6c1.1,0,4.5,0.1,5,1.7s-0.1,2.9,1.1,2.9
				c1.1,0,2-0.4,2.2,1.1s0.2,4.3-0.6,3c-0.7-1.3,0-2.4-1.6-2.4c-1.5-0.1-1.7-0.1-2.1-1c-0.4-0.9,2.5-2.4-1.2-2.9
				c-3.7-0.5-3.9,1.6-6-0.1c-2-1.8-0.9-3-3.6-2.7c-2.8,0.3-2.8,0.7-2.8,0.7L176.4,19.4z"/>
		</g>
		<path class="st28" d="M189.5,44.3c0,0.1,0.1,1.6,1.2,1.6c1.1,0,1.6-0.6,1.5-2.4c0.1-0.4,2.2-1.9,2.6-3.3c0.3-1.4,1-5.1-1.7-6.4
			s-5.2,1.9-5.2,1.9s-0.5,1.5-0.4,2.4S189.5,44.3,189.5,44.3z"/>
		<path class="st45" d="M187.6,39.6c-0.4-1-0.5-2.2-0.3-3.4c0.2-0.6,0.5-1.1,0.9-1.5c0.4-0.4,0.8-0.8,1.4-1.1c1-0.6,2.4-0.7,3.6-0.2
			c1.2,0.5,2,1.6,2.3,2.8c0.5,2.4-0.5,4.9-2.2,6.4c-0.2,0.2-0.4,0.4-0.6,0.6c-0.1,0.1-0.2,0.2-0.2,0.3c0,0.1-0.1,0.2-0.1,0.3
			c-0.1,0.5,0,1.1-0.3,1.7c-0.2,0.3-0.5,0.5-0.8,0.6c-0.3,0.1-0.6,0.1-0.9,0c-0.6-0.2-0.8-0.9-0.9-1.4c0.2,0.5,0.5,1,1,1.1
			c0.5,0.1,1.1-0.1,1.2-0.5c0.2-0.4,0.1-1,0.1-1.6c0-0.1,0-0.3,0.1-0.5c0.1-0.2,0.2-0.3,0.3-0.4c0.2-0.2,0.4-0.4,0.6-0.6
			c1.4-1.5,2.2-3.7,1.8-5.6c-0.2-1-0.8-1.8-1.7-2.2c-0.9-0.4-1.9-0.4-2.8,0c-0.9,0.4-1.8,1.2-2.2,2.1
			C187.4,37.4,187.5,38.5,187.6,39.6z"/>
		<path class="st45" d="M192.5,36.5c-0.9-0.1-1.6,0.3-2.2,0.9c-0.3,0.3-0.6,0.5-0.7,0.8c-0.2,0.3-0.3,0.7-0.3,1c0,0.3,0,0.7,0.2,1
			c0.1,0.1,0.2,0.3,0.3,0.4c0.1,0.1,0.4,0.3,0.5,0.5c0.2,0.2,0.3,0.4,0.4,0.7c0,0.1,0,0.3,0,0.4c0,0.1-0.1,0.2-0.1,0.2l-0.1,0.1
			c-0.2,0.4-0.5,0.8-0.9,1c0.2-0.4,0.3-0.8,0.4-1.2l0.1-0.2c0-0.1,0,0,0-0.1c0-0.1,0-0.1-0.1-0.2c-0.1-0.1-0.2-0.3-0.3-0.4
			c-0.1-0.1-0.2-0.1-0.5-0.3c-0.2-0.2-0.4-0.4-0.5-0.6c-0.3-0.4-0.4-1-0.4-1.5c0-0.5,0.2-1,0.5-1.4c0.3-0.5,0.7-0.8,1.1-1
			C190.7,36.2,191.8,36,192.5,36.5z"/>
	</g>
	<path class="st7" d="M35.4,44.4l1.3-1.1c0,0,0.1-1.4,0-2.7c-0.1-1.3,0-3-0.1-3.2c-0.1-0.2-1.5-2.1-2-2.3c-0.4-0.2-1.3-0.7-1.6-0.4
		c-0.4,0.2-2.7,1.6-2.9,2.4c-0.3,0.8-1.8,2.6-0.4,4.5c1.4,2,2.5,2.7,2.7,3.1c0.2,0.4,0.3,1.8,0.7,1.8c0.4,0,2,0,2.4-1.4
		C35.8,43.7,35.4,44.4,35.4,44.4z"/>
	<path class="st46" d="M32,40.6c0.3-0.5,0.7-0.8,1.3-1c0.3-0.1,0.6-0.1,0.9,0c0.3,0.1,0.6,0.3,0.8,0.5c0.4,0.4,0.7,0.8,0.9,1.3
		c0.1,0.2,0.2,0.5,0.2,0.8c0,0.3,0.1,0.6-0.1,0.8c-0.1-0.2-0.2-0.4-0.4-0.6l-0.5-0.5c-0.3-0.4-0.6-0.7-0.9-1c-0.2-0.3-0.5-0.4-1-0.4
		C33,40.4,32.5,40.4,32,40.6z"/>
	<path class="st46" d="M37.2,43.4c-0.3-1.2-0.4-2.4-0.6-3.6L36.4,38l0-0.5c0,0,0-0.2,0-0.1c0,0.1,0,0.1,0,0l-0.1-0.2
		c-0.2-0.2-0.3-0.5-0.5-0.7c-0.7-0.8-1.7-1.6-2.6-1.4c-0.4,0.1-0.8,0.4-1.3,0.8c-0.4,0.4-0.8,0.8-1.2,1.2c-0.7,0.9-1.1,1.9-1,2.9
		c0.1,1,0.8,2,1.6,2.8c0.4,0.4,0.9,0.8,1.3,1.3c0.1,0.2,0.2,0.3,0.2,0.5c0,0.2,0,0.3,0,0.5c0,0.3,0.1,0.6,0.1,0.8
		c0.1,0.2,0.2,0.2,0.5,0.3c0.3,0,0.6,0,0.8-0.1c0.5-0.2,0.8-0.7,1-1.3c0,0.6-0.3,1.3-0.9,1.6c-0.3,0.2-0.6,0.2-0.9,0.3
		c-0.2,0-0.3,0-0.5,0c-0.2-0.1-0.4-0.3-0.5-0.4c-0.2-0.3-0.2-0.7-0.2-1c0-0.1,0-0.3-0.1-0.4c0-0.1-0.1-0.2-0.1-0.3
		c-0.3-0.4-0.8-0.7-1.3-1.1c-1-0.8-1.8-1.9-2.1-3.3c-0.2-1.4,0.4-2.7,1.2-3.8c0.4-0.5,0.9-1,1.4-1.4c0.3-0.2,0.5-0.4,0.8-0.6
		c0.3-0.2,0.7-0.3,1-0.4c0.8-0.1,1.5,0.2,2.1,0.5c0.6,0.4,1,0.9,1.4,1.4c0.2,0.3,0.4,0.5,0.5,0.8l0.1,0.2c0,0,0,0.1,0.1,0.2
		c0,0.1,0,0.1,0,0.1l0,0.4l0.1,1.8C37.2,41,37.2,42.2,37.2,43.4z"/>
	<path class="st47" d="M30.4,99c0,0-2,1.3-2.3,2.3c-0.3,1-0.3,1.3-0.5,1.9c-0.1,0.6-0.8,1.8-0.9,3.2c-0.1,1.4-0.3,2.5,0.3,3.2
		c0.6,0.7,0.5,1.8,1.5,2.2s4.4-3.2,5.1-3.7s2.6-0.4,3.3-1.4c0.7-1,1.3-1.6,1.3-1.8c0.1-0.3,0-0.6,0.1-0.8c0.2-0.3,0.5-0.1,0.7-0.8
		s0.5-1.1-0.1-1.4S30.4,99,30.4,99z"/>
	<path class="st7" d="M31,62.1c-0.3-0.2-5.5-4.5-10,4C20.3,67.3,11.3,79,9.2,81.3s-2.5,2.6-3.1,3.5C5.6,85.7,5,87.5,7.6,89
		c3.4,2.1,13.4,5.6,16.6,6.6s5.7,1.9,5.7,2.4s0.3,2.5,1.7,3.4c0.6,0.4,0,0.7,0.6,1.1c0.9,0.8,0.7,0.6,0.6,0.6c-0.2,0-0.9-0.9-1.1-1
		c-0.4-0.3-1,0.2-0.6,1c0.4,0.7,1,1.5,1.8,1.5c0.8,0.1,3,0.4,3.2,0.2c0.2-0.2,0.5-0.9,0.6-0.9c0.1,0,1.3,0.2,1.4-0.6
		c0.1-0.8,0.8-0.4,0.9-1.1c0.1-0.7,0.5-0.5,0.5-1.3s-1.3-3.7-1.3-4c0-0.3-1.5-2.3-2.5-2.3s-4,0.6-5.1,0.3c-1-0.3-5.5-1.7-12.7-7.6
		c-2.4-2-3.5-2.3-5.3-2.4c0.7-0.9,9.8-10.4,11.5-11c0.8,0.7-0.2,0.7,2.6,4.2c1.3,1.9,2.4,3.3,2.4,3.3s3.7,0.7,4.6-4.2
		S34.8,65.5,31,62.1z"/>
	<path class="st15" d="M34.3,103c0,0-0.9,0.5-1.9-0.3c-0.6-0.4-0.4-0.7-0.4-0.9c0-0.2-0.1-0.3-0.3-0.4c-1-0.6-1.8-2-1.7-3.2
		c0.1-0.7-1.3-1.1-1.8-1.3C12,91.6,8.1,89.4,7.4,88.9c-1.3-1-1.7-1.7-1.7-2.6c0.5,0.5,0.8,1.6,2.1,2.4c1.5,1,7.7,3.2,8.5,3.6
		c0.7,0.4,13.6,5.1,13.6,5.1s1.1,0.4,1.1,1.1c0,0.8,0.2,1.9,0.8,2.3c0.6,0.4,0.7,0.4,0.8,0.9c0.1,0.6,0.5,1.1,1,1.2
		C33.9,103.1,34.3,103,34.3,103z"/>
	<path class="st15" d="M24.4,74c0,0,3.1-2.3,4.6-3.5c1,0.4,1.4,10.5,0.8,9C26.9,72.5,24.4,74,24.4,74z"/>
</g>
</svg>
