<?xml version="1.0" encoding="utf-8"?>
<!-- Generator: Adobe Illustrator 24.2.1, SVG Export Plug-In . SVG Version: 6.00 Build 0)  -->
<svg version="1.1" id="Capa_1" xmlns="http://www.w3.org/2000/svg" xmlns:xlink="http://www.w3.org/1999/xlink" x="0px" y="0px"
	 viewBox="0 0 512 512" style="enable-background:new 0 0 512 512;" xml:space="preserve">
<style type="text/css">
	.st0{fill:#F24976;}
	.st1{fill:#445EA0;}
	.st2{fill:#2E4C89;}
	.st3{fill:#293D7C;}
	.st4{fill:#1A2B63;}
	.st5{fill:#FFFFFF;}
	.st6{fill:#D9EAFC;}
	.st7{fill:#FF9518;}
	.st8{fill:#5DC1D8;}
	.st9{fill:#28A5A5;}
	.st10{fill:#FFAF10;}
	.st11{fill:#DB722C;}
	.st12{fill:#69CDFF;}
	.st13{fill:#37C47A;}
</style>
<circle class="st0" cx="256" cy="256" r="186.6"/>
<rect x="221.9" y="353.3" class="st1" width="68.2" height="33.8"/>
<rect x="221.9" y="353.3" class="st2" width="15.1" height="33.8"/>
<path class="st3" d="M323.9,406.7c0,1.9-1.5,3.4-3.4,3.4h-129c-1.9,0-3.4-1.5-3.4-3.4v-16.9c0-1.9,1.5-3.4,3.4-3.4h129
	c1.9,0,3.4,1.5,3.4,3.4L323.9,406.7L323.9,406.7z"/>
<path class="st4" d="M203.2,406.7v-16.9c0-1.9,1.5-3.4,3.4-3.4h-15.1c-1.9,0-3.4,1.5-3.4,3.4v16.9c0,1.9,1.5,3.4,3.4,3.4h15.1
	C204.8,410,203.2,408.5,203.2,406.7z"/>
<path class="st3" d="M446.6,93.7H65.4c-2.4,0-4.4,2-4.4,4.4v251.6c0,2.4,2,4.4,4.4,4.4h262.4v-13.2c0-1.3,1.1-2.4,2.4-2.4h10.3
	c2.1,0,4.3-1.6,5-3.5l1.9-4.7c0.9-1.8,0.5-4.5-1-6l-7.2-7.2c-0.5-0.5-0.7-1.1-0.7-1.7c0-0.6,0.3-1.3,0.7-1.7l13.1-13
	c0.5-0.5,1.1-0.7,1.7-0.7c0.7,0,1.3,0.3,1.7,0.7l7.2,7.2c0.9,0.9,2.4,1.5,3.8,1.5c0.8,0,1.5-0.2,2.2-0.5l4.7-1.9
	c1.9-0.7,3.5-2.8,3.5-4.9v-10.1c0-1.3,1.1-2.4,2.4-2.4h18.6c1.3,0,2.4,1.1,2.4,2.4v10.1c0,2.1,1.6,4.3,3.5,5l4.7,1.9
	c0.6,0.3,1.3,0.5,2.1,0.5c1.5,0,2.9-0.6,3.8-1.5l7.2-7.2c0.5-0.5,1.1-0.7,1.7-0.7c0.7,0,1.3,0.3,1.7,0.7l13.1,13
	c0.5,0.5,0.7,1.1,0.7,1.7c0,0.6-0.3,1.3-0.7,1.7l-7.2,7.2c-1.5,1.5-1.9,4.1-1,6l1.9,4.7c0.7,1.9,2.9,3.5,5,3.5h10.3
	c1.3,0,2.4,1.1,2.4,2.4v11.3c0.5-0.7,0.8-1.6,0.8-2.5V98.1C451,95.6,449,93.7,446.6,93.7z"/>
<path class="st5" d="M80.4,309.9c0,1.5,1.2,2.7,2.7,2.7h257.2l12-11.9c0.5-0.5,1.1-0.7,1.7-0.7c0.7,0,1.3,0.3,1.7,0.7l7.2,7.2
	c0.9,0.9,2.4,1.5,3.8,1.5c0.8,0,1.5-0.2,2.2-0.5l4.7-1.9c1.9-0.7,3.5-2.8,3.5-4.9v-10.1c0-1.3,1.1-2.4,2.4-2.4h18.6
	c1.3,0,2.4,1.1,2.4,2.4v10.1c0,2.1,1.6,4.3,3.5,5l4.7,1.9c0.6,0.3,1.3,0.5,2.1,0.5c1.5,0,2.9-0.6,3.8-1.5l7.2-7.2
	c0.5-0.5,1.1-0.7,1.7-0.7c0.7,0,1.3,0.3,1.7,0.7l5.9,5.8V137.1H80.4V309.9z"/>
<path class="st6" d="M95.5,309.9V137.1H80.4v172.7c0,1.5,1.2,2.7,2.7,2.7h15.1C96.7,312.5,95.5,311.3,95.5,309.9z"/>
<g>
	<path class="st7" d="M251.1,254.1c-7-7-17.1-8.8-25.8-5.4l-29.1-29.1l-5.9,5.9c-0.2,0.2-0.2,0.4-0.2,0.6c0.2,1.7-0.3,3.4-1.3,4.8
		c-0.2,0.3-0.2,0.6,0,0.9c1.6,2.6,1.4,5.7-0.4,7.7l23.1,23.1c-3.3,8.6-1.5,18.8,5.4,25.8c6,6,14.5,8.4,22.8,6.4
		c0.2-0.1,0.4-0.2,0.6-0.3c0.1-0.1,0.3-0.3,0.3-0.5c0.1-0.4,0-0.9-0.3-1.2l-14.9-14.9l15.1-15.1l14.9,14.9c0.3,0.3,0.8,0.4,1.2,0.3
		c0.2-0.1,0.4-0.2,0.5-0.3c0.2-0.2,0.3-0.4,0.3-0.6C259.5,268.7,257.2,260.1,251.1,254.1z"/>
	<path class="st7" d="M174.4,219.9c1.3,0,2.6,0.4,3.8,1.1c0.1,0.1,0.3,0.1,0.4,0.1c0.2,0,0.3-0.1,0.5-0.2c1.2-0.9,2.6-1.4,4.1-1.4
		c0.2,0,0.5,0,0.7,0c0,0,0.1,0,0.1,0c0.2,0,0.4-0.1,0.5-0.2l5.9-5.9l-29.1-29.1c3.3-8.6,1.5-18.8-5.4-25.8c-6-6-14.5-8.4-22.8-6.4
		c-0.2,0.1-0.4,0.2-0.6,0.3c-0.1,0.1-0.3,0.3-0.3,0.5c-0.1,0.4,0,0.9,0.3,1.2l14.9,14.9l-15.1,15.1l-14.9-14.9
		c-0.3-0.3-0.8-0.4-1.2-0.3c-0.2,0.1-0.4,0.2-0.5,0.3c-0.2,0.2-0.3,0.4-0.3,0.6c-2,8.2,0.4,16.8,6.4,22.8c7,7,17.1,8.8,25.8,5.4
		l23.1,23.1C171.5,220.5,172.9,219.9,174.4,219.9z"/>
</g>
<circle class="st1" cx="256" cy="333.2" r="11.9"/>
<path class="st8" d="M428.9,116.2H83.1c-1.5,0-2.7,1.2-2.7,2.7v19h351.2v-19C431.6,117.4,430.4,116.2,428.9,116.2z"/>
<path class="st9" d="M98.2,116.2H83.1c-1.5,0-2.7,1.2-2.7,2.7v19h15.1v-19C95.5,117.4,96.7,116.2,98.2,116.2z"/>
<path class="st7" d="M376.5,408.4c0,1.8,1.4,3.2,3.2,3.2h18.6c1.8,0,3.2-1.4,3.2-3.2v-10.1c0-1.8,1.4-3.7,3-4.2l4.8-2
	c1.6-0.8,3.9-0.4,5.1,0.9l7.2,7.2c1.2,1.2,3.3,1.2,4.5,0l13.1-13c1.3-1.2,1.3-3.3,0-4.5l-7.2-7.2c-1.3-1.2-1.6-3.5-0.9-5.1l2-4.7
	c0.6-1.7,2.5-3,4.3-3h10.3c1.8,0,3.2-1.4,3.2-3.2v-18.4c0-1.8-1.4-3.2-3.2-3.2h-10.3c-1.8,0-3.7-1.4-4.3-3l-2-4.7
	c-0.8-1.6-0.4-3.9,0.9-5.1l7.2-7.2c1.3-1.2,1.3-3.3,0-4.5l-13.1-13c-1.2-1.2-3.3-1.2-4.5,0l-7.2,7.2c-1.2,1.2-3.6,1.6-5.2,0.9
	l-4.8-2c-1.7-0.6-3-2.5-3-4.2v-10.1c0-1.8-1.4-3.2-3.2-3.2h-18.6c-1.8,0-3.2,1.4-3.2,3.2v10.1c0,1.8-1.4,3.7-3,4.2l-4.8,2
	c-1.6,0.8-3.9,0.4-5.2-0.9l-7.2-7.2c-1.3-1.2-3.3-1.2-4.5,0l-13.1,13c-1.2,1.2-1.2,3.3,0,4.5l7.2,7.2c1.3,1.2,1.6,3.5,0.9,5.1
	l-2,4.7c-0.6,1.7-2.5,3-4.3,3h-10.3c-1.8,0-3.2,1.4-3.2,3.2v18.4c0,1.8,1.4,3.2,3.2,3.2h10.3c1.8,0,3.7,1.4,4.3,3l2,4.7
	c0.8,1.6,0.4,3.9-0.9,5.1l-7.3,7.2c-1.2,1.2-1.2,3.3,0,4.5l13.1,13c1.2,1.2,3.3,1.2,4.5,0l7.2-7.2c1.2-1.2,3.6-1.6,5.2-0.9l4.8,2
	c1.7,0.6,3,2.5,3,4.2V408.4L376.5,408.4z"/>
<path class="st10" d="M389,379.7c-16.5,0-29.8-13.3-29.8-29.6c0-16.4,13.4-29.6,29.8-29.6c16.5,0,29.8,13.3,29.8,29.6
	C418.8,366.4,405.5,379.7,389,379.7z"/>
<path class="st7" d="M368.3,350.1c0-14.8,11-27.1,25.3-29.3c-1.5-0.2-3-0.3-4.5-0.3c-16.5,0-29.8,13.3-29.8,29.6
	c0,16.3,13.4,29.6,29.8,29.6c1.5,0,3.1-0.1,4.5-0.3C379.2,377.1,368.3,364.9,368.3,350.1z"/>
<path class="st11" d="M389,384.5c-19.1,0-34.6-15.4-34.6-34.4c0-19,15.5-34.4,34.6-34.4c19.1,0,34.6,15.4,34.6,34.4
	C423.7,369,408.1,384.5,389,384.5z M389,325.3c-13.8,0-25,11.1-25,24.8c0,13.7,11.2,24.8,25,24.8c13.8,0,25-11.1,25-24.8
	C414,336.4,402.8,325.3,389,325.3z"/>
<path class="st10" d="M389,362.6c-7,0-12.6-5.6-12.6-12.5c0-6.9,5.6-12.5,12.6-12.5c7,0,12.6,5.6,12.6,12.5
	C401.6,357,396,362.6,389,362.6z"/>
<path class="st7" d="M385.5,350.1c0-5.3,3.4-9.9,8.1-11.7c-1.4-0.5-2.9-0.8-4.5-0.8c-7,0-12.6,5.6-12.6,12.5
	c0,6.9,5.6,12.5,12.6,12.5c1.6,0,3.1-0.3,4.5-0.8C388.8,359.9,385.5,355.4,385.5,350.1z"/>
<path class="st11" d="M389,367.4c-9.6,0-17.4-7.8-17.4-17.3c0-9.5,7.8-17.3,17.4-17.3c9.6,0,17.4,7.8,17.4,17.3
	C406.4,359.6,398.6,367.4,389,367.4z M389,342.3c-4.3,0-7.8,3.5-7.8,7.7c0,4.3,3.5,7.7,7.8,7.7c4.3,0,7.8-3.5,7.8-7.7
	C396.8,345.8,393.3,342.3,389,342.3z"/>
<g>
	<path class="st1" d="M168,233.6l8.2,8.2c0.7,0.7,1.2,1.5,1.5,2.3l3.6-3.6c-0.8-0.4-1.6-0.9-2.3-1.6l-8.2-8.2
		c-0.7-0.7-1.2-1.5-1.6-2.3l-3.6,3.6C166.5,232.4,167.3,232.9,168,233.6z"/>
	<path class="st1" d="M253.5,160.6l-4.3-4.3c-0.5-0.5-1.4-0.6-2-0.3l-9.5,4.7c-0.6,0.3-1.3,1-1.6,1.6l-4.2,8.7l-48,48
		c-2.1-0.2-4.3,0.4-5.9,2c0.5,0.3,1.1,0.7,1.5,1.2l8.2,8.2c0.5,0.5,0.9,1,1.2,1.5c1.5-1.6,2.2-3.8,2-5.9l48-48l8.7-4.2
		c0.6-0.3,1.3-1,1.6-1.6l4.7-9.5C254.1,162,254,161.1,253.5,160.6z"/>
</g>
<path class="st3" d="M188.8,240.1c-2.7,2.7-7.3,2.5-10.3-0.5l-8.2-8.2c-3-3-3.2-7.6-0.5-10.3c2.7-2.7,7.3-2.5,10.3,0.5l8.2,8.2
	C191.3,232.8,191.5,237.4,188.8,240.1z"/>
<g>
	<path class="st12" d="M388.9,173.7H288.4c-3.2,0-5.7-2.6-5.7-5.7c0-3.2,2.6-5.7,5.7-5.7h100.4c3.2,0,5.7,2.6,5.7,5.7
		C394.6,171.2,392,173.7,388.9,173.7z"/>
	<path class="st12" d="M388.9,192.4H288.4c-3.2,0-5.7-2.6-5.7-5.7c0-3.2,2.6-5.7,5.7-5.7h100.4c3.2,0,5.7,2.6,5.7,5.7
		C394.6,189.8,392,192.4,388.9,192.4z"/>
	<path class="st12" d="M388.9,211H288.4c-3.2,0-5.7-2.6-5.7-5.7c0-3.2,2.6-5.7,5.7-5.7h100.4c3.2,0,5.7,2.6,5.7,5.7
		C394.6,208.5,392,211,388.9,211z"/>
</g>
<g>
	<path class="st13" d="M388.9,242.3H288.4c-3.2,0-5.7-2.6-5.7-5.7c0-3.2,2.6-5.7,5.7-5.7h100.4c3.2,0,5.7,2.6,5.7,5.7
		C394.6,239.7,392,242.3,388.9,242.3z"/>
	<path class="st13" d="M388.9,260.9H288.4c-3.2,0-5.7-2.6-5.7-5.7c0-3.2,2.6-5.7,5.7-5.7h100.4c3.2,0,5.7,2.6,5.7,5.7
		C394.6,258.4,392,260.9,388.9,260.9z"/>
	<path class="st13" d="M338.3,279.6h-49.9c-3.2,0-5.7-2.6-5.7-5.7s2.6-5.7,5.7-5.7h49.9c3.2,0,5.7,2.6,5.7,5.7
		S341.5,279.6,338.3,279.6z"/>
</g>
<path class="st3" d="M141.4,287.4c-3,3-7.8,3-10.8,0l-8.2-8.2c-3-3-3-7.8,0-10.8l35.3-35.3c3-3,7.8-3,10.8,0l8.2,8.2
	c3,3,3,7.8,0,10.8L141.4,287.4z"/>
<g>
	<path class="st4" d="M135.2,279.2c-3-3-3-7.8,0-10.8l34.3-34.3l-1-1c-3-3-7.8-3-10.8,0l-35.3,35.3c-3,3-3,7.8,0,10.8l8.2,8.2
		c3,3,7.8,3,10.8,0l1-1L135.2,279.2z"/>
	<path class="st4" d="M174.7,226c2.7-2.7,7.3-2.5,10.3,0.5l-5-5c-3-3-7.6-3.2-10.3-0.5s-2.5,7.3,0.5,10.3l4.9,4.9
		C172.2,233.3,172,228.7,174.7,226z"/>
</g>
</svg>
