<svg xmlns="http://www.w3.org/2000/svg" xmlns:xlink="http://www.w3.org/1999/xlink" viewBox="0 0 248.53 207.48"><defs><style>.cls-1{isolation:isolate;}.cls-2{fill:#c8b890;}.cls-3{fill:#222642;}.cls-4,.cls-5{fill:#e5d3a3;}.cls-21,.cls-22,.cls-27,.cls-5{mix-blend-mode:multiply;}.cls-6,.cls-7,.cls-8{opacity:0.5;}.cls-6{fill:url(#Gradiente_sem_nome_21);}.cls-7{fill:url(#Gradiente_sem_nome_18);}.cls-8{fill:url(#Gradiente_sem_nome_18-2);}.cls-9{fill:#c9b93b;}.cls-10{fill:#f1b0a8;}.cls-11{fill:#d29995;}.cls-12{fill:#b68683;}.cls-13{fill:#96ab84;}.cls-14{fill:#b6d5a2;}.cls-15{fill:#4c6f78;}.cls-16{fill:#5a8492;}.cls-17{fill:#aaabab;}.cls-18,.cls-22{fill:#d3d3d3;}.cls-19{fill:#fff;opacity:0.34;}.cls-20{fill:#edd751;}.cls-21{fill:#0d0707;opacity:0.15;}.cls-23{fill:#877157;}.cls-24{fill:#61ae45;}.cls-25{fill:#42722d;}.cls-26{fill:#a6944a;}.cls-28{fill:#e7d164;}.cls-29{fill:#b6a151;}.cls-30{fill:#65ae39;opacity:0.28;}.cls-31{fill:#007399;}.cls-32{fill:#00617b;}.cls-33{fill:#6b5f52;}.cls-34{fill:#b1a380;}.cls-35{fill:#958539;}.cls-36{fill:#7f7032;}</style><linearGradient id="Gradiente_sem_nome_21" x1="21.3" y1="175.07" x2="106.88" y2="131.5" gradientUnits="userSpaceOnUse"><stop offset="0" stop-color="#edd751" stop-opacity="0"/><stop offset="0.09" stop-color="#edd751" stop-opacity="0.02"/><stop offset="0.21" stop-color="#edd751" stop-opacity="0.09"/><stop offset="0.35" stop-color="#edd751" stop-opacity="0.21"/><stop offset="0.5" stop-color="#edd751" stop-opacity="0.37"/><stop offset="0.66" stop-color="#edd751" stop-opacity="0.57"/><stop offset="0.82" stop-color="#edd751" stop-opacity="0.82"/><stop offset="0.93" stop-color="#edd751"/></linearGradient><linearGradient id="Gradiente_sem_nome_18" x1="47.21" y1="135.28" x2="111.2" y2="102.71" gradientUnits="userSpaceOnUse"><stop offset="0" stop-color="#edd751" stop-opacity="0"/><stop offset="0.93" stop-color="#dc753f"/></linearGradient><linearGradient id="Gradiente_sem_nome_18-2" x1="59.32" y1="181.52" x2="130.03" y2="145.53" xlink:href="#Gradiente_sem_nome_18"/></defs><title>foguete</title><g class="cls-1"><g id="Camada_1" data-name="Camada 1"><path class="cls-2" d="M163.75,35.32S186,47.81,186.27,47.89s4.19.11,4.19.11.65,1.4.32,1.42-11.18,0-11.18,0L162,36.09Z"/><path class="cls-3" d="M158.63,31.13l8.2,5.82A13.54,13.54,0,0,0,165.46,38c-.72-.52-7.25-6.24-7.25-6.24Z"/><path class="cls-4" d="M157.82,32.81s1.67-3.58,3.51-4.69c.67.93,3.73,3.6,6.2,3a5.3,5.3,0,0,1,2.56-.22c.44.25,1.51-.58,1.77-1.06.16,0,1.09.67,1.48.23s1.21-1.55,1.89-1.48a10.8,10.8,0,0,0,1.93.27c.35-.11.68-.5,1-1.66.54-2.16.6-3.46.76-3.8s4.18-5.42,3.41-6.73-11.52.89-12.47.43a39.48,39.48,0,0,0-4.19-1.34s-4,6.61-5.35,7.27-9.61,4.43-9.61,4.43Z"/><path class="cls-5" d="M182.4,17.28c0,1.12-2.2,4.26-3.51,6.13-1.64.41-5.31-1-6.57-1.51s-5.21-.66-6.19-.89a28.41,28.41,0,0,1-4.76,3.55c-1.44.87-8.81,3.58-10,2.59s1.22-2.86,1.22-2.86l9.92-8.52s4.47-2.44,4.82-2.44,13.52,1.23,13.52,1.23Z"/><polygon class="cls-6" points="95.65 110.84 0 165.1 19.9 202.16 120.55 147.43 95.65 110.84"/><polygon class="cls-7" points="90.25 88.06 28.72 122.8 48.62 159.87 123.99 119.67 90.25 88.06"/><polygon class="cls-8" points="123.01 122.71 40.26 170.42 60.16 207.49 133.96 165.1 123.01 122.71"/><path class="cls-9" d="M120.55,145.71c-5.29,4.42-19.46,9-24.56,10.72a61.33,61.33,0,0,1-33.82,1.42l-.71-.16c-1.1-.23-3.15-.66-2.64-3.17,5.81-25.53,38-42.64,42.67-43.68C116.3,121.8,120.55,145.71,120.55,145.71Z"/><path class="cls-10" d="M98.83,108.81s32.07-32.33,35.91-34,27.34-24.38,58-25.84,39.07,2.28,40.58,3.88,7.48,12.34-17.26,45.46-67.31,40-67.31,40L122,148.31s-17.39-13.46-18.81-19S99.33,119.06,98.83,108.81Z"/><path class="cls-11" d="M98.83,108.81s78.12,23,117.24-10.51c-24.74,33.11-67.31,40-67.31,40L122,148.31s-17.39-13.46-18.81-19S99.33,119.06,98.83,108.81Z"/><path class="cls-12" d="M110.59,98.3c-3.93,3-10.13,8-12.35,9.83,0,0-.39,16.4,4.65,23.72S121,148.24,122,148.31s16.17-6.64,16.94-6.72C126.91,136.25,111.77,108.14,110.59,98.3Z"/><path class="cls-11" d="M109.36,99.21c-3.94,3-10.13,8-12.36,9.83,0,0,2.51,15.49,7.54,22.81S122.12,147,123.12,147s13.84-4.46,14.62-4.53C125.68,137.16,110.54,109.05,109.36,99.21Z"/><path class="cls-13" d="M218.69,94.58s1.17.4,1.14.13c2.34-3.42,11.5-18.78,13.82-28.47s2.84-14.58-11.4-16C210,48.93,190.57,48,190.46,48a1.78,1.78,0,0,0-.61,1.2C197.22,51.68,218.54,80.16,218.69,94.58Z"/><path class="cls-14" d="M219.83,94.71S233,76.21,235.71,65c2.36-9.84,2.9-14.88-11.64-16.38a222.26,222.26,0,0,0-33.61-.6C198,50.52,219.68,80,219.83,94.71Z"/><circle class="cls-15" cx="172.12" cy="92.42" r="28.05"/><circle class="cls-16" cx="172.81" cy="91.02" r="28.05"/><circle class="cls-17" cx="173.04" cy="91.4" r="23.16"/><circle class="cls-18" cx="172.43" cy="90.36" r="22.79"/><path class="cls-19" d="M152.25,79.87a40,40,0,0,0-1.71,4.26c1.55,1.71,38.89,23.62,38.89,23.62a25,25,0,0,0,3.18-4C186.74,99.19,152.25,79.87,152.25,79.87Z"/><path class="cls-19" d="M157.91,72.87a24.43,24.43,0,0,0-2.91,2.9c2.5,2,39.85,23.44,39.85,23.44A29.87,29.87,0,0,0,196,94.3C192.63,91.44,157.91,72.87,157.91,72.87Z"/><path class="cls-13" d="M134.93,86.33l-1.12,0c-1.46,0-35.86-1-41.93,1.14a98.6,98.6,0,0,0-13.4,6.42l-.92.53L78,95.91l1,.35c.23.08,23,8,34.79,12.66l.29.12,21.29-21.19Z"/><path class="cls-14" d="M114.06,109l-.29-.12C102,104.24,79.21,96.34,79,96.26l-1-.35.91-.53A98.6,98.6,0,0,1,92.3,89c6.07-2.17,40.47-1.18,41.93-1.14l1.12,0Z"/><path class="cls-13" d="M102.89,129.71s0-12.33-4.56-20.94c-.07-.14-15.8,1.47-24.41,12.31a1.47,1.47,0,0,0-.33.77,8.11,8.11,0,0,0,.51,2.41,32.3,32.3,0,0,0,16.45,7.09,37.23,37.23,0,0,0,11.6-.71S102.66,129.77,102.89,129.71Z"/><path class="cls-14" d="M102.89,129.69a37.68,37.68,0,0,1-11.69.79,32.5,32.5,0,0,1-16.45-7.06l-.3-.24c-.47-.37-1.35-1-.53-2.12,8.61-10.85,24.34-12.46,24.41-12.32C102.89,117.36,102.89,129.69,102.89,129.69Z"/><path class="cls-13" d="M158.43,125.81l-28.81,8.48,0,.32c-1.54,12.54-5.43,36.35-5.47,36.58l-.18,1,.8,1.07.9-.55a98,98,0,0,0,12.08-8.66c4.82-4.28,20.5-34.91,21.16-36.21l.51-1Z"/><path class="cls-14" d="M123.93,172.23l.18-1c0-.23,4.08-24,5.62-36.58l0-.32,28.82-8.48-.52,1c-.66,1.31-16.34,31.94-21.16,36.22a98,98,0,0,1-12.08,8.66Z"/><path class="cls-13" d="M123.09,147.33S117.24,136,106,133.67a4.4,4.4,0,0,1-1.18.65c-7,9.56-6.87,25.78-6.22,28.1a2.93,2.93,0,0,0,2.75,1.56c.59,0,8.3-2.83,11.57-5.45A44,44,0,0,0,123.09,147.33Z"/><path class="cls-14" d="M106,133.67c-7,9.55-6.72,26.25-6.07,28.57,0,.1,0,.21.07.31.13.58.36,1.65,1.66,1.39h0c13.47-3.15,21.48-16.68,21.56-16.81S117.24,136,106,133.67Z"/><path class="cls-20" d="M65.2,155c1.19.19,17.92,3.39,30.45-4-7.88.48-12.19-1.62-12.19-1.62s8.41-8.19,8.31-8.92c-2.83.64-11.78,3.11-11.78,3.11l8.22-7.76-11.14,3a21.23,21.23,0,0,1-.22-7c-8,5-13.43,18.87-13.77,20.27C62.66,153.83,63.06,154.69,65.2,155Z"/><path class="cls-21" d="M174.8,52.16c-1.56.48-8.33,3-10.27,3.94,1.81,2.33,8.12,4.48,9,8.57,5,.38,6.83-1.41,13-1C187.7,62.07,174.8,52.16,174.8,52.16Z"/><path class="cls-22" d="M179.06,91.77s.06,0,.07,0c.67-.15,1.54-.37.89-3s-1.17-1.74-1.41-2.57-3.27-18-4.58-20.83-4.59-8-12-7.75-22.67,14.37-29.78,19a16.9,16.9,0,0,0,2.58,0c9.4-.63,23.28-2.48,25-2.7s5.16,3.71,4.91,4.49-.87,5.47,0,6.29a1.43,1.43,0,0,0,.23.16c-.44,1-1.52,2.37-1.52,3.37s-.07,3.09,4.09,5.27c2.19,2.21,8.74,9.39,9.82,9.49s4.09.72,4.14-.41C181.59,101.62,179.64,94,179.06,91.77Z"/><path class="cls-23" d="M127.31,68.65s1.55,7,10.94,6.4,23.28-2.47,25-2.7,5.17,3.72,4.91,4.5-.87,5.46,0,6.28,13.69,7.21,14.35,7.07,1.54-.38.88-3-1.16-1.74-1.41-2.57-3.26-18-4.57-20.82-4.59-8-12-7.75-8.05-.58-9.77-.19-11.29,2.41-11.29,2.41Z"/><path class="cls-3" d="M105.2,58.75s5.86-2.2,10.31-.51c2.42.92,7.56,1,9.75-1,.8-1.6.89-3,1.44-3.35S109.86,56.06,105.2,58.75Z"/><path class="cls-24" d="M127.13,52.84s-5,7.32-.63,15.39c3.82-2.31,13.87-9.76,21.18-10,4.34-1.05,8.17-2.32,10.4-2.32a4.8,4.8,0,0,0-3.46-.19c-.37-.6-1.94-4.56-1.71-5.44s1.83-4.78,2.29-4.8,4,.26,5-2.92a67.7,67.7,0,0,0-4.94-5.34S134,46.81,127.13,52.84Z"/><path class="cls-25" d="M141.42,47.89s-3.39,6.9-6.67,7.83a20.17,20.17,0,0,1-6.93.5c-1,0-2.22.35-2.58,1.1a13.92,13.92,0,0,1,1.41-3.61Z"/><path class="cls-26" d="M113.43,67.8s-4.07,3.62-12.9,5.93S85,76.66,85,77.36s3,6.71,2.51,8.43S87,88,88.34,87.56s10.31-2.39,13.34-3.08,11.26-4.43,12.34-7.7S112.92,72.25,113.43,67.8Z"/><g class="cls-27"><path class="cls-26" d="M109.62,72.05a14.83,14.83,0,0,1-6,3.59,52.16,52.16,0,0,1-6.77,1.84c-2.28.5-4.58.89-6.74,1.56-.26.09-.51.2-.77.31a3.79,3.79,0,0,0-.61.4c-.23.18.08.82.33,1.31a5.86,5.86,0,0,1,.73,3.42,6,6,0,0,0-1.15-3.19,7.53,7.53,0,0,1-.43-.8,1.1,1.1,0,0,1,0-1.11c.13-.19.26-.23.39-.35a2.55,2.55,0,0,1,.39-.28c.27-.13.55-.29.82-.41a45.53,45.53,0,0,1,6.8-1.8c2.27-.48,4.53-1,6.75-1.61a23.09,23.09,0,0,0,3.24-1.15A12.59,12.59,0,0,0,109.62,72.05Z"/></g><path class="cls-28" d="M84.83,77.41s11-13.88,14-15.92c2-.31,7,1,9.68.5s8.3-2.46,8.57-2.08-3.31,8.67-4.54,9.28a50.83,50.83,0,0,1-11.13,4.68C94.13,76,87.14,77.7,84.83,77.41Z"/><path class="cls-29" d="M111.9,69.56s1.59,8,1.92,7.68,4-12.88,4.17-13.65,0-3.78-.73-3.71S114.45,68.33,111.9,69.56Z"/><rect class="cls-30" x="197.66" y="23.6" width="47.42" height="2.66" rx="1.33" transform="translate(15.77 110.69) rotate(-29.07)"/><rect class="cls-30" x="222.46" y="7.7" width="27.64" height="2.66" rx="1.33" transform="translate(25.38 115.94) rotate(-29.07)"/><rect class="cls-30" x="163.29" y="140.26" width="27.32" height="2.66" rx="1.33" transform="translate(-46.5 103.81) rotate(-29.07)"/><rect class="cls-30" x="156.42" y="154.07" width="17.05" height="2.66" rx="1.33" transform="translate(-54.73 99.71) rotate(-29.07)"/><rect class="cls-30" x="22.15" y="136.93" width="47.42" height="2.66" rx="1.33" transform="translate(-61.4 39.69) rotate(-29.07)"/><rect class="cls-30" x="45.5" y="118.66" width="27.64" height="2.66" rx="1.33" transform="translate(-50.82 43.93) rotate(-29.07)"/><rect class="cls-30" x="71.27" y="41.18" width="27.64" height="2.66" rx="1.33" transform="translate(-9.93 46.7) rotate(-29.07)"/><path class="cls-4" d="M158.21,40.06s7.21,9.47,17.24,14.84c1.6,2.08,2.75,4.28,4.26,4.28a3.37,3.37,0,0,1,3.15,1.55c1,1.29,2.15,3.37,3.12,3.34s2.43-.15,1.05-2.62-1.74-3.14-.58-2.75,4.89,1.66,5.61,1.46c.33-.09,1.05-.72.76-1.38a1.05,1.05,0,0,0,.56-1.85,23.42,23.42,0,0,0-5-3.38s.1-.24.82-.36,4.43-.52,4.68-.83-.24-1.5-1.44-1.59-3.91-.48-3.91-.48,1.74.29,1.69-.34.08-1.71-2.24-1.41a84,84,0,0,1-8.66.09L162.36,36.09S158.44,39.44,158.21,40.06Z"/><path class="cls-28" d="M114.32,74s-.57-4.39-.47-4.6S126,67.94,137.41,60.5a87.57,87.57,0,0,0,17.65-14.82l-1.24,4a61.2,61.2,0,0,1-26.67,21.12C114.78,75,114.32,74,114.32,74Z"/><path class="cls-26" d="M128.49,65.19l-4.37,6.69s-9.61,2.47-9.8,2.39a49.51,49.51,0,0,1-.76-4.9S126.83,66,128.49,65.19Z"/><path class="cls-31" d="M102.79,60.16s6.24-4.63,23.91-5.51c9.7-.48,10.84.4,15.6-6,4.33-5.84,13.27-10.44,13.27-10.44l6.09,7.33s4.74-5.83,6.54-6.08c-1.24-1-12.1-10.82-14.28-10.75-1.5,0-2.14-1.71-2.14-1.71s-6.91.83-11,4.44-5.25,7.41-6.79,8a30.85,30.85,0,0,0-8.2,5.23c-2.19,2.23-7,7.2-10.07,8.17-4.22,1.34-10.57,1.82-11.76,2.69S101.44,58.1,102.79,60.16Z"/><path class="cls-32" d="M134.75,38.91a27.38,27.38,0,0,0-4,8.37c-.33,1.45-2.51,4-4.14,4.13-4,.32,1,.05,2.41-3.43A29.48,29.48,0,0,1,134.75,38.91Z"/><polygon class="cls-32" points="153.31 34.99 155.56 38.19 154.28 38.91 153.31 34.99"/><path class="cls-25" d="M159.4,44s-4.6,2-7.2-.18a4.6,4.6,0,0,0,2.16,1.72c-.27.54-.7,1.65-.7,1.65l1.3-1.4.24-.32S158.12,45.71,159.4,44Z"/><path class="cls-25" d="M154.62,55.73s-3.52,1-4.37.89c1.93-.63,4.22-1.18,4.22-1.18Z"/><path class="cls-33" d="M174.44,28.24a22.8,22.8,0,0,0,2.78.6c-.52.18-.94-.22-1.84.12A7,7,0,0,1,174.44,28.24Z"/><path class="cls-34" d="M188.52,50.29s-3.87-.63-4.84-.28c.81-.48,3.37-.22,3.83-.11A6.07,6.07,0,0,1,188.52,50.29Z"/><path class="cls-34" d="M192.82,58.78s-4.61-1.87-5.83-2.35c1.63.47,5.94,2.29,6.42,2.1A1,1,0,0,1,192.82,58.78Z"/><path class="cls-4" d="M168.59,82.94c-.28,1-1.64,2.6-1.64,3.73s-.08,3.08,4.09,5.27c2.18,2.21,8.74,9.38,9.82,9.48s4.08.72,4.14-.41-2.65-11.44-2.65-11.44A92,92,0,0,1,168.59,82.94Z"/><path class="cls-35" d="M186.75,12.52s4.23,4.76-.7,9.21a4,4,0,0,1-4.92.09s-.13-4.55-.9-5S186.75,12.52,186.75,12.52Z"/><path class="cls-35" d="M163.54,22c-.33.31-.65.63-1,.92a16.12,16.12,0,0,1-4.75,2.63,26.08,26.08,0,0,1-2.6.81c-.89.2-1.78.38-2.67.53s-1.81.24-2.71.32l-2.73.15h0a31.16,31.16,0,0,1-5.55-1,11.93,11.93,0,0,1-2.63-1.13,5.71,5.71,0,0,1-1.16-.93,2.44,2.44,0,0,1-.72-1.43l0-.18A8,8,0,0,0,141.54,20a.7.7,0,0,0,.21-.27s0,.05,0,.05l-.05,0a15.24,15.24,0,0,0-1.93-.36,16.47,16.47,0,0,1-4.05-1.17,17.07,17.07,0,0,1-3.63-2.16l-.93-.71,1.19,0a8.42,8.42,0,0,0,2-.39q1-.3,2-.69a17.36,17.36,0,0,0,1.9-.89,4,4,0,0,0,.77-.55l.08-.11s0,0,0,0,0,0,0,0a2.53,2.53,0,0,0-.18-.4c-.68-1.21-1.51-2.42-2.25-3.67-.37-.62-.74-1.26-1.07-1.91a8,8,0,0,1-.79-2.16l-.15-.83.8.37a6.44,6.44,0,0,0,1.66.32c.61,0,1.22.08,1.84.09,1.24,0,2.47,0,3.71,0,2.48-.12,5-.33,7.41-.69,4.9-.63,9.55-2.58,14.55-3.42a23.69,23.69,0,0,1,7.61-.13,24,24,0,0,1,7.13,2.61,20.11,20.11,0,0,1,5.87,4.84,10.09,10.09,0,0,1,2.32,7.22v0h0a10.84,10.84,0,0,1-5.74,5.77,13.44,13.44,0,0,1-7.86.84l-2-.43c-.64-.21-1.27-.45-1.9-.67-.32-.12-.64-.22-.95-.35l-.9-.44-1.81-.88C165.46,20,163.84,21.63,163.54,22Z"/><path class="cls-36" d="M186.84,16.43s-4.42,5.06-14.44,2.72c-9.22-2.14-13.9-7.5-13.9-7.5a14,14,0,0,0,6.65,6.49c-1.87,2.41-7,8.46-18.67,9.15,7.42.2,12.05-1.88,14.27-3.16a13.15,13.15,0,0,0,5.65-5.32C168.21,19.69,179.85,26.26,186.84,16.43Z"/><path class="cls-36" d="M130.92,15.35s11.55,4.86,15,3.13A20.57,20.57,0,0,1,141.54,20S137.88,20.43,130.92,15.35Z"/><path class="cls-36" d="M134.64,3.76s3.92,6.89,8,7.11a19.14,19.14,0,0,0-3.59,1.86C138.54,11.7,135.5,7.85,134.64,3.76Z"/><path class="cls-36" d="M164.21,7.36a8.58,8.58,0,0,1-5.71,4.29,10,10,0,0,0,5.7-2.93A5.66,5.66,0,0,0,164.21,7.36Z"/></g></g></svg>