<svg id="Camada_1" data-name="Camada 1" xmlns="http://www.w3.org/2000/svg" viewBox="0 0 57.41 57.41"><defs><style>.cls-1{fill:#fff;}</style></defs><title>icone-grafico</title><path class="cls-1" d="M28.7,0A28.71,28.71,0,1,0,57.41,28.7,28.74,28.74,0,0,0,28.7,0Zm0,56.41A27.71,27.71,0,1,1,56.41,28.7,27.74,27.74,0,0,1,28.7,56.41Z"/><path class="cls-1" d="M26.05,11.93H32a.82.82,0,0,0,.83-.81c0-.79-.67-.76-1.48-.76H29.84c-.27,0,.89-1.39.08-1.39H27.48c-.81,0,.28,1.39,0,1.39H25.4a.82.82,0,0,0-.82.81C24.59,12,25.25,11.93,26.05,11.93Z"/><path class="cls-1" d="M41,13.32H16.41a2.59,2.59,0,0,0-2.59,2.58V36a2.59,2.59,0,0,0,2.59,2.58H41A2.59,2.59,0,0,0,43.59,36V15.9A2.59,2.59,0,0,0,41,13.32Zm-3.68,13-.41-1.87-5.86,5.33-5.87-3.57-6.89,5.22L16.9,29.58,25,23.4l5.74,3.5,4.58-4.17-1.82-.58,7-2.55Z"/><path class="cls-1" d="M38,40.94H19.39a1,1,0,1,0,0,1.92h6.55l-1.7,1.71L22,46.8a1,1,0,0,0,1.36,1.36L28,43.51l.71-.7.71.7,4.64,4.65a1,1,0,0,0,1.36-1.36l-2.24-2.23-1.7-1.71H38a1,1,0,0,0,0-1.92Z"/></svg>