<svg id="Camada_1" data-name="Camada 1" xmlns="http://www.w3.org/2000/svg" viewBox="0 0 57.41 57.41"><defs><style>.cls-1{fill:#fff;}</style></defs><title>icone-lampada</title><path class="cls-1" d="M28.7,0A28.71,28.71,0,1,0,57.41,28.7,28.74,28.74,0,0,0,28.7,0Zm0,56.41A27.71,27.71,0,1,1,56.41,28.7,27.74,27.74,0,0,1,28.7,56.41Z"/><polygon class="cls-1" points="23.4 45.79 33.8 44.41 33.8 43.12 23.4 44.5 23.4 45.79"/><path class="cls-1" d="M40.74,29.3a12.14,12.14,0,0,0-24.28,0c0,4.85,4.7,7,7,11,.08.13,0,.31,0,.46v2.19l10.4-1.38v-.81c0-.15-.1-.33,0-.46C36,36.33,40.74,34.15,40.74,29.3Z"/><path class="cls-1" d="M24.59,49.33c.15.17.67,0,.83.12A4.71,4.71,0,0,0,32,49.33c.18-.17.56.07.72-.13A5.17,5.17,0,0,0,33.8,46v0L23.57,47.35A5.34,5.34,0,0,0,24.59,49.33Z"/><rect class="cls-1" x="27.68" y="6.68" width="2.14" height="5.66" rx="0.95"/><rect class="cls-1" x="10.9" y="16.27" width="2.14" height="5.66" rx="0.95" transform="translate(-10.55 19.91) rotate(-60)"/><rect class="cls-1" x="42.61" y="18.18" width="5.66" height="2.14" rx="0.95" transform="translate(-3.54 25.3) rotate(-30)"/></svg>