<svg id="Camada_1" data-name="Camada 1" xmlns="http://www.w3.org/2000/svg" viewBox="0 0 95.78 91.18"><defs><style>.cls-1{fill:#fff;}</style></defs><title>icone-pedagogica</title><path class="cls-1" d="M69,79.72a.92.92,0,0,0,0-1.83H37.57V52.39H72.75a.92.92,0,0,0,0-1.84H59.93a4.51,4.51,0,0,1,4.28-3.11H79.1a3.44,3.44,0,0,1,3.44,3.44v1.51H89.6a3.73,3.73,0,0,0,3.72-3.73V3.72A3.73,3.73,0,0,0,89.6,0H9.47A3.73,3.73,0,0,0,5.75,3.72V48.66a3.74,3.74,0,0,0,3.72,3.73h9.2L15.75,64.68a3.17,3.17,0,0,0,3.11,3.23,1.36,1.36,0,0,1,1.33,1.28v.15s0,0,0,0v15a3.18,3.18,0,0,0,3.12,3.23H34.46a3.18,3.18,0,0,0,3.11-3.23v-4.7Zm-40.13-50a7,7,0,0,1,2.83,13.39h0a4.81,4.81,0,0,1-.53.2L31,43.4l-.4.1-.3.08-.39.06-.31,0a6,6,0,0,1-.73,0,6.06,6.06,0,0,1-.75,0l-.16,0-.58-.1-.12,0-.6-.17-.06,0a5.93,5.93,0,0,1-.63-.26,7,7,0,0,1,2.9-13.35Zm7,21.67v33a1.37,1.37,0,0,1-1.34,1.4H30L29.65,67.6H27.89l-.38,18.22H23.32A1.37,1.37,0,0,1,22,84.42V69.3a2.4,2.4,0,0,0,0-.28V58.6a.88.88,0,1,0-1.75,0v7.8a3,3,0,0,0-1.33-.32,1.36,1.36,0,0,1-1.35-1.26l3.56-15c0-3.79,1-4.91,2.9-4.91L34.24,45a.77.77,0,0,1,.32.07l.54.22,13.2-13a2.07,2.07,0,0,1,2.06-.38,2.88,2.88,0,0,1,.9,1,2.1,2.1,0,0,1-.2,2.09L36.2,50.4A1.49,1.49,0,0,0,35.8,51.41Z"/><path class="cls-1" d="M94.86,82H63.37a.92.92,0,1,0,0,1.83H94.86a.92.92,0,1,0,0-1.83Z"/><path class="cls-1" d="M76.21,86.31H71.09a.92.92,0,1,0,0,1.84h5.12a.92.92,0,0,0,0-1.84Z"/><path class="cls-1" d="M32.41,89.35H.92a.92.92,0,1,0,0,1.83H32.41a.92.92,0,0,0,0-1.83Z"/></svg>