<svg id="Camada_1" data-name="Camada 1" xmlns="http://www.w3.org/2000/svg" viewBox="0 0 57.41 57.41"><defs><style>.cls-1{fill:#fff;}</style></defs><title>icone-pin</title><path class="cls-1" d="M28.7,57.41A28.71,28.71,0,1,1,57.41,28.7,28.74,28.74,0,0,1,28.7,57.41ZM28.7,1A27.71,27.71,0,1,0,56.41,28.7,27.74,27.74,0,0,0,28.7,1Z"/><path class="cls-1" d="M28.7,11.44c-7,0-12.69,7-12.69,14.45,0,6.54,5.7,15.06,10.72,20.87a2.61,2.61,0,0,0,3.94,0C35.61,41,41.4,32.41,41.4,25.89,41.4,18.47,35.72,11.44,28.7,11.44Zm.2,19.26a7.28,7.28,0,1,1,7.28-7.28A7.28,7.28,0,0,1,28.9,30.7Z"/></svg>