<svg id="Camada_1" data-name="Camada 1" xmlns="http://www.w3.org/2000/svg" viewBox="0 0 256.43 249.68"><defs><style>.cls-1{fill:#111e3c;}</style></defs><title>Prancheta 1</title><path class="cls-1" d="M119.55,92V47.48a24.12,24.12,0,1,0-12,0V92A40.28,40.28,0,0,0,78.3,112.43L51.91,91.92a17.21,17.21,0,0,0,1-5.81,17.43,17.43,0,1,0-8.67,15l29.83,23.19a40,40,0,0,0,7.17,31.15L47.51,189.22A6,6,0,1,0,56,197.7L89.73,164a39.89,39.89,0,0,0,17.82,7.41V216a17.39,17.39,0,1,0,12,0V171.38a40.16,40.16,0,0,0,0-79.42Zm-84-.45a5.4,5.4,0,1,1,5.39-5.4,5.4,5.4,0,0,1-5.39,5.4Zm65.91-67.39a12.12,12.12,0,1,1,12.12,12.12,12.14,12.14,0,0,1-12.12-12.12Zm12.12,213.56A5.4,5.4,0,0,1,112.46,227a5.68,5.68,0,0,0,1.09.11,5.49,5.49,0,0,0,1.08-.11,5.4,5.4,0,0,1-1.08,10.69Zm0-77.85a28.16,28.16,0,0,1-27-36.06c0-.12.08-.24.11-.37a28.16,28.16,0,1,1,26.92,36.43Zm0,0"/><path class="cls-1" d="M232.31,73.39a24.15,24.15,0,0,0-24.12,24.12c0,.62,0,1.23.08,1.84l-43.4,14.79a6,6,0,0,0,3.88,11.36l43.39-14.79a24.11,24.11,0,1,0,20.17-37.32Zm0,36.24a12.12,12.12,0,1,1,12.12-12.12,12.13,12.13,0,0,1-12.12,12.12Zm0,0"/><path class="cls-1" d="M24.12,197A24.12,24.12,0,1,0,48.23,221.1,24.15,24.15,0,0,0,24.12,197Zm0,36.23A12.12,12.12,0,1,1,36.23,221.1a12.13,12.13,0,0,1-12.11,12.11Zm0,0"/></svg>