<svg xmlns="http://www.w3.org/2000/svg" viewBox="0 0 325.5 310"><defs><style>.a{fill:#131D3C;}.b{fill:#85c440;}.c{fill:#85c440;}</style></defs><rect class="a" x="156.25" y="117.41" width="4" height="4.5"/><path class="a" d="M160.25,112.09h-4v-9.56h4Zm0-14.87h-4V87.65h4Zm0-14.88h-4V72.77h4Zm0-14.88h-4V57.89h4Z"/><rect class="a" x="156.25" y="48.08" width="4" height="4.5"/><path class="a" d="M121,141.07l-8.47-3,1.35-3.77,8.47,3.05Zm-13.18-4.75-8.46-3,1.35-3.76,8.47,3.05ZM94.6,131.58l-8.47-3.05,1.36-3.76,8.47,3Zm-13.17-4.74-8.47-3L74.32,120l8.47,3Z"/><path class="a" d="M47.37,261.32l-2.47-3.14L52,252.62l2.47,3.15Zm11-8.63-2.47-3.15L63,244l2.47,3.15Zm11-8.63-2.47-3.15L74,235.36l2.46,3.14Zm11-8.64L78,232.27l7.09-5.55,2.46,3.15Zm11-8.63L89,223.64l7.09-5.55,2.46,3.15Zm11-8.64L100,215l7.09-5.55,2.46,3.15Zm11-8.63L111,206.37l7.09-5.55,2.46,3.15Zm11-8.64L122,197.74l7.09-5.55,2.46,3.14Z"/><path class="a" d="M197,149.45l-1.46-3.72,8.39-3.28,1.45,3.72Zm13-5.1-1.46-3.72,8.38-3.28,1.46,3.72Zm13-5.1-1.46-3.72,8.38-3.28,1.46,3.72Zm13-5.1-1.46-3.73,8.38-3.27,1.46,3.72Zm13-5.1-1.45-3.73,8.38-3.28,1.45,3.73Zm13-5.1-1.46-3.73,8.38-3.28,1.46,3.73Zm13-5.1-1.46-3.73,4.86-1.9,1.46,3.73Z"/><path class="a" d="M159.68,268.9l-4,0,.08-9,4,0Zm.13-14-4,0,.07-9,4,0Zm.12-14-4,0,.08-9,4,0Zm.12-14-4,0,.08-9,4,0Zm.12-14-4,0,.08-9,4,0Z"/><path class="b" d="M158.68,51.08a25.54,25.54,0,1,1,25.54-25.54A25.57,25.57,0,0,1,158.68,51.08Zm0-45.08a19.54,19.54,0,1,0,19.54,19.54A19.57,19.57,0,0,0,158.68,6Z"/><path class="b" d="M300,131.48a25.54,25.54,0,1,1,25.54-25.54A25.57,25.57,0,0,1,300,131.48Zm0-45.08a19.54,19.54,0,1,0,19.54,19.54A19.57,19.57,0,0,0,300,86.4Z"/><path class="b" d="M157.64,310a21.21,21.21,0,1,1,21.21-21.21A21.23,21.23,0,0,1,157.64,310Zm0-36.41a15.21,15.21,0,1,0,15.21,15.2A15.22,15.22,0,0,0,157.64,273.59Z"/><path class="b" d="M29.14,308.75a29.15,29.15,0,1,1,29.14-29.14A29.18,29.18,0,0,1,29.14,308.75Zm0-52.29a23.15,23.15,0,1,0,23.14,23.15A23.17,23.17,0,0,0,29.14,256.46Z"/><path class="b" d="M57.82,136.5a19.59,19.59,0,1,1,19.59-19.59A19.61,19.61,0,0,1,57.82,136.5Zm0-33.18a13.59,13.59,0,1,0,13.59,13.59A13.61,13.61,0,0,0,57.82,103.32Z"/><path class="c" d="M158.25,207.89a45,45,0,1,1,45-45A45,45,0,0,1,158.25,207.89Zm0-82a37,37,0,1,0,37,37A37,37,0,0,0,158.25,125.91Z"/></svg>